SplineFontDB: 3.2
FontName: mononoki-fork-Italic
FullName: mononoki fork Italic
FamilyName: mononoki-fork
Weight: Regular
Copyright: 
Version: 1.1
ItalicAngle: -9
UnderlinePosition: 0
UnderlineWidth: 0
Ascent: 819
Descent: 205
InvalidEm: 1
UFOAscent: 750
UFODescent: -250
LayerCount: 2
Layer: 0 0 "Back" 1
Layer: 1 0 "Fore" 0
StyleMap: 0x0001
FSType: 0
OS2Version: 0
OS2_WeightWidthSlopeOnly: 0
OS2_UseTypoMetrics: 0
CreationTime: 1593379981
ModificationTime: 1593471145
PfmFamily: 16
TTFWeight: 400
TTFWidth: 5
LineGap: 0
VLineGap: 0
OS2TypoAscent: 0
OS2TypoAOffset: 1
OS2TypoDescent: 0
OS2TypoDOffset: 1
OS2TypoLinegap: 0
OS2WinAscent: 900
OS2WinAOffset: 0
OS2WinDescent: 250
OS2WinDOffset: 0
HheadAscent: 0
HheadAOffset: 1
HheadDescent: 0
HheadDOffset: 1
OS2CapHeight: 700
OS2XHeight: 500
OS2Vendor: 'PfEd'
MarkAttachClasses: 1
DEI: 91125
LangName: 1033 "" "" "" "" "" "" "" "" "" "Matthias Tellen" "" "" "" "" "" "" "mononoki" "Italic"
PickledDataWithLists: "(dp0
VGSDimensionPlugin.Dimensions
p1
(dp2
V8A9476DE-11F4-4864-A7B4-14D9B7165FAE
p3
(dp4
VHV
p5
I240
ssVA14B1AE3-86D5-4EA7-AE2F-7B4FA04DAB2E
p6
(dp7
ssVcom.schriftgestaltung.disablesAutomaticAlignment
p8
I01
sVcom.schriftgestaltung.fontMaster.userData
p9
(dp10
VGSCornerRadius
p11
I25
sVGSOffsetHorizontal
p12
I10
sVGSOffsetPosition
p13
I1
sVGSOffsetVertical
p14
I10
ssVcom.schriftgestaltung.fontMasterID
p15
V8A9476DE-11F4-4864-A7B4-14D9B7165FAE
p16
sVcom.schriftgestaltung.glyphOrder
p17
I00
sVcom.schriftgestaltung.useNiceNames
p18
I00
sVcom.typemytype.robofont.layerOrder
p19
(lp20
Vbackground
p21
asVpublic.glyphOrder
p22
(lp23
VA
p24
aVAacute
p25
aVAbreve
p26
aVAcircumflex
p27
aVAdieresis
p28
aVAgrave
p29
aVAmacron
p30
aVAogonek
p31
aVAring
p32
aVAtilde
p33
aVAE
p34
aVB
p35
aVC
p36
aVCacute
p37
aVCcaron
p38
aVCcedilla
p39
aVCcircumflex
p40
aVD
p41
aVEth
p42
aVDcaron
p43
aVDcroat
p44
aVE
p45
aVEacute
p46
aVEcaron
p47
aVEcircumflex
p48
aVEdieresis
p49
aVEdotaccent
p50
aVEgrave
p51
aVEmacron
p52
aVEogonek
p53
aVF
p54
aVG
p55

StartChar: A
Encoding: 65 65 0
GlifName: A_
Width: 575
VWidth: 0
Flags: W
AnchorPoint: "ogonek" 479 10 basechar 0
AnchorPoint: "top" 359 700 basechar 0
LayerCount: 2
Fore
SplineSet
469 621 m 258
 464 679 414 710 355 710 c 256
 296 710 248 679 224 621 c 258
 -18 28 l 258
 -25 11 -19 0 -1 0 c 258
 34 0 l 258
 49 0 61 7 66 22 c 257
 147 220 l 257
 419 220 l 257
 437 22 l 257
 439 7 446 0 461 0 c 258
 497 0 l 258
 514 0 525 11 523 28 c 258
 469 621 l 258
306 607 m 257
 312 625 332 634 349 634 c 256
 366 634 382 625 384 607 c 258
 412 296 l 257
 178 296 l 257
 306 607 l 257
EndSplineSet
PickledDataWithLists: "(dp0
Vcom.schriftgestaltung.Glyphs.lastChange
p1
V2016-06-09 18:44:34 +0000
p2
s."
EndChar

StartChar: A.hex
Encoding: 65537 -1 1
GlifName: A_.hex
Width: 575
VWidth: 0
Flags: W
LayerCount: 2
Fore
SplineSet
114 875 m 258
 114 891 105 900 89 900 c 258
 54 900 l 258
 38 900 29 891 29 875 c 258
 29 829 l 258
 29 813 37 804 54 804 c 258
 89 804 l 258
 105 804 114 812 114 829 c 258
 114 875 l 258
402 875 m 258
 402 891 393 900 377 900 c 258
 342 900 l 258
 326 900 317 891 317 875 c 258
 317 829 l 258
 317 813 325 804 342 804 c 258
 377 804 l 258
 393 804 402 812 402 829 c 258
 402 875 l 258
EndSplineSet
Refer: 0 65 N 1 0 0 1 0 0 2
PickledDataWithLists: "(dp0
Vcom.schriftgestaltung.Glyphs.lastChange
p1
V2016-06-09 18:35:33 +0000
p2
s."
EndChar

StartChar: AE
Encoding: 198 198 2
GlifName: A_E_
Width: 575
VWidth: 0
Flags: W
LayerCount: 2
Fore
SplineSet
346 77 m 257
 385 326 l 257
 487 326 l 258
 503 326 513 335 516 351 c 258
 520 378 l 258
 523 394 515 403 499 403 c 258
 397 403 l 257
 432 624 l 257
 541 624 l 258
 557 624 568 632 570 649 c 258
 574 675 l 258
 577 692 569 700 553 700 c 258
 359 700 l 258
 294 700 248 679 224 621 c 258
 -18 28 l 258
 -25 11 -19 0 -1 0 c 258
 34 0 l 258
 49 0 61 7 66 22 c 257
 126 170 l 257
 275 170 l 257
 252 25 l 258
 250 9 257 0 273 0 c 258
 453 0 l 258
 470 0 480 9 482 25 c 258
 487 52 l 258
 489 68 483 77 466 77 c 258
 346 77 l 257
287 246 m 257
 157 246 l 257
 306 607 l 258
 312 624 328 634 349 634 c 257
 287 246 l 257
EndSplineSet
PickledDataWithLists: "(dp0
Vcom.schriftgestaltung.Glyphs.lastChange
p1
V2016-06-09 18:35:33 +0000
p2
s."
EndChar

StartChar: B
Encoding: 66 66 13
GlifName: B_
Width: 575
VWidth: 0
Flags: W
LayerCount: 2
Fore
SplineSet
66 25 m 257
 64 9 71 0 87 0 c 258
 224 0 l 258
 382 0 507 75 507 213 c 256
 507 289 469 346 401 370 c 257
 473 404 519 476 519 553 c 256
 519 658 435 700 315 700 c 258
 135 700 l 257
 118 700 109 691 106 675 c 258
 102 649 l 258
 100 633 106 624 123 624 c 258
 161 624 l 257
 66 25 l 257
246 624 m 257
 303 624 l 258
 394 624 442 591 442 527 c 256
 442 448 370 403 268 403 c 258
 211 403 l 257
 246 624 l 257
160 77 m 257
 199 326 l 257
 276 326 l 258
 362 326 431 299 431 215 c 256
 431 121 348 77 237 77 c 258
 160 77 l 257
EndSplineSet
PickledDataWithLists: "(dp0
Vcom.schriftgestaltung.Glyphs.lastChange
p1
V2016-06-09 18:35:33 +0000
p2
s."
EndChar

StartChar: B.hex
Encoding: 65538 -1 14
GlifName: B_.hex
Width: 575
VWidth: 0
Flags: W
LayerCount: 2
Fore
SplineSet
214 875 m 258
 214 891 205 900 189 900 c 258
 154 900 l 258
 138 900 129 891 129 875 c 258
 129 829 l 258
 129 813 137 804 154 804 c 258
 189 804 l 258
 205 804 214 812 214 829 c 258
 214 875 l 258
502 875 m 258
 502 891 493 900 477 900 c 258
 442 900 l 258
 426 900 417 891 417 875 c 258
 417 829 l 258
 417 813 425 804 442 804 c 258
 477 804 l 258
 493 804 502 812 502 829 c 258
 502 875 l 258
646 875 m 258
 646 891 637 900 621 900 c 258
 586 900 l 258
 570 900 561 891 561 875 c 258
 561 829 l 258
 561 813 569 804 586 804 c 258
 621 804 l 258
 637 804 646 812 646 829 c 258
 646 875 l 258
EndSplineSet
Refer: 13 66 N 1 0 0 1 0 0 2
PickledDataWithLists: "(dp0
Vcom.schriftgestaltung.Glyphs.lastChange
p1
V2016-06-09 18:35:33 +0000
p2
s."
EndChar

StartChar: C
Encoding: 67 67 16
GlifName: C_
Width: 575
VWidth: 0
Flags: W
AnchorPoint: "top" 359 700 basechar 0
AnchorPoint: "bottom" 248 0 basechar 0
LayerCount: 2
Fore
SplineSet
422 81 m 256
 376 65 339 58 308 58 c 256
 241 58 172 91 172 217 c 256
 172 253 176 286 193 390 c 256
 224 586 320 632 399 632 c 256
 430 632 464 625 506 609 c 256
 520 603 532 608 540 623 c 258
 554 647 l 258
 562 662 560 674 546 680 c 256
 502 700 458 710 413 710 c 256
 295 710 147 640 107 390 c 256
 90 280 85 246 85 207 c 256
 85 33 194 -20 297 -20 c 256
 342 -20 390 -10 440 10 c 256
 456 16 462 28 458 43 c 258
 452 67 l 258
 448 82 438 87 422 81 c 256
  PathStart: -2
EndSplineSet
PickledDataWithLists: "(dp0
Vcom.schriftgestaltung.Glyphs.lastChange
p1
V2016-06-09 18:35:33 +0000
p2
s."
EndChar

StartChar: C.hex
Encoding: 65539 -1 17
GlifName: C_.hex
Width: 575
VWidth: 0
Flags: W
LayerCount: 2
Fore
SplineSet
214 875 m 258
 214 891 205 900 189 900 c 258
 154 900 l 258
 138 900 129 891 129 875 c 258
 129 829 l 258
 129 813 137 804 154 804 c 258
 189 804 l 258
 205 804 214 812 214 829 c 258
 214 875 l 258
358 875 m 258
 358 891 349 900 333 900 c 258
 298 900 l 258
 282 900 273 891 273 875 c 258
 273 829 l 258
 273 813 281 804 298 804 c 258
 333 804 l 258
 349 804 358 812 358 829 c 258
 358 875 l 258
EndSplineSet
Refer: 16 67 N 1 0 0 1 0 0 2
PickledDataWithLists: "(dp0
Vcom.schriftgestaltung.Glyphs.lastChange
p1
V2016-06-09 18:35:33 +0000
p2
s."
EndChar

StartChar: D
Encoding: 68 68 23
GlifName: D_
Width: 575
VWidth: 0
Flags: W
LayerCount: 2
Fore
SplineSet
133 700 m 258
 118 700 108 692 106 677 c 258
 102 651 l 258
 99 634 108 624 125 624 c 258
 161 624 l 257
 66 27 l 258
 63 10 72 0 89 0 c 258
 143 0 l 258
 394 0 494 102 528 320 c 256
 542 405 546 433 546 473 c 256
 546 648 402 700 185 700 c 258
 133 700 l 258
160 76 m 257
 247 622 l 257
 405 614 461 570 461 473 c 256
 461 441 459 420 444 332 c 256
 415 145 345 80 160 76 c 257
  PathStart: -2
EndSplineSet
PickledDataWithLists: "(dp0
Vcom.schriftgestaltung.Glyphs.lastChange
p1
V2016-06-09 18:46:00 +0000
p2
s."
EndChar

StartChar: D.hex
Encoding: 65540 -1 24
GlifName: D_.hex
Width: 575
VWidth: 0
Flags: W
LayerCount: 2
Fore
SplineSet
214 875 m 258
 214 891 205 900 189 900 c 258
 154 900 l 258
 138 900 129 891 129 875 c 258
 129 829 l 258
 129 813 137 804 154 804 c 258
 189 804 l 258
 205 804 214 812 214 829 c 258
 214 875 l 258
358 875 m 258
 358 891 349 900 333 900 c 258
 298 900 l 258
 282 900 273 891 273 875 c 258
 273 829 l 258
 273 813 281 804 298 804 c 258
 333 804 l 258
 349 804 358 812 358 829 c 258
 358 875 l 258
646 875 m 258
 646 891 637 900 621 900 c 258
 586 900 l 258
 570 900 561 891 561 875 c 258
 561 829 l 258
 561 813 569 804 586 804 c 258
 621 804 l 258
 637 804 646 812 646 829 c 258
 646 875 l 258
EndSplineSet
Refer: 23 68 N 1 0 0 1 0 0 2
PickledDataWithLists: "(dp0
Vcom.schriftgestaltung.Glyphs.lastChange
p1
V2016-06-09 18:35:33 +0000
p2
s."
EndChar

StartChar: E
Encoding: 69 69 27
GlifName: E_
Width: 575
VWidth: 0
Flags: W
LayerCount: 2
Fore
SplineSet
143 77 m 257
 182 326 l 257
 460 326 l 258
 476 326 486 335 489 351 c 258
 493 378 l 258
 496 394 488 403 472 403 c 258
 194 403 l 257
 229 624 l 257
 528 624 l 258
 544 624 555 632 557 649 c 258
 561 675 l 258
 564 692 556 700 540 700 c 258
 181 700 l 258
 165 700 155 691 152 675 c 258
 49 25 l 258
 47 9 54 0 70 0 c 258
 451 0 l 258
 467 0 478 9 480 25 c 258
 485 52 l 258
 487 68 480 77 464 77 c 258
 143 77 l 257
EndSplineSet
PickledDataWithLists: "(dp0
Vcom.schriftgestaltung.Glyphs.lastChange
p1
V2016-06-09 18:35:33 +0000
p2
s."
EndChar

StartChar: E.hex
Encoding: 65541 -1 28
GlifName: E_.hex
Width: 575
VWidth: 0
Flags: W
LayerCount: 2
Fore
SplineSet
214 875 m 258
 214 891 205 900 189 900 c 258
 154 900 l 258
 138 900 129 891 129 875 c 258
 129 829 l 258
 129 813 137 804 154 804 c 258
 189 804 l 258
 205 804 214 812 214 829 c 258
 214 875 l 258
358 875 m 258
 358 891 349 900 333 900 c 258
 298 900 l 258
 282 900 273 891 273 875 c 258
 273 829 l 258
 273 813 281 804 298 804 c 258
 333 804 l 258
 349 804 358 812 358 829 c 258
 358 875 l 258
502 875 m 258
 502 891 493 900 477 900 c 258
 442 900 l 258
 426 900 417 891 417 875 c 258
 417 829 l 258
 417 813 425 804 442 804 c 258
 477 804 l 258
 493 804 502 812 502 829 c 258
 502 875 l 258
EndSplineSet
Refer: 27 69 N 1 0 0 1 0 0 2
PickledDataWithLists: "(dp0
Vcom.schriftgestaltung.Glyphs.lastChange
p1
V2016-06-09 18:35:33 +0000
p2
s."
EndChar

StartChar: Eth
Encoding: 208 208 39
GlifName: E_th
Width: 575
VWidth: 0
Flags: W
LayerCount: 2
Fore
SplineSet
36 337 m 258
 33 321 41 312 57 312 c 258
 280 312 l 258
 296 312 306 321 309 337 c 258
 313 364 l 258
 316 380 308 389 292 389 c 258
 69 389 l 258
 53 389 43 380 40 363 c 258
 36 337 l 258
EndSplineSet
Refer: 23 68 N 1 0 0 1 -10 0 2
PickledDataWithLists: "(dp0
Vcom.schriftgestaltung.Glyphs.lastChange
p1
V2016-06-09 18:35:33 +0000
p2
s."
EndChar

StartChar: Euro
Encoding: 8364 8364 40
GlifName: E_uro
Width: 575
VWidth: 0
Flags: W
LayerCount: 2
Fore
SplineSet
469 385 m 258
 485 385 496 394 498 410 c 258
 502 431 l 258
 504 448 497 456 481 456 c 258
 204 456 l 257
 225 552 266 634 412 634 c 256
 437 634 487 632 542 622 c 256
 557 619 569 626 575 641 c 257
 585 668 l 258
 591 684 586 694 570 697 c 256
 511 708 457 710 424 710 c 256
 208 710 145 573 119 456 c 257
 101 456 l 258
 85 456 74 448 72 431 c 258
 68 410 l 258
 66 394 73 385 89 385 c 258
 469 385 l 258
456 78 m 256
 399 69 350 67 322 67 c 256
 201 67 160 116 171 244 c 257
 447 244 l 258
 463 244 473 253 476 269 c 258
 479 290 l 258
 482 307 474 315 458 315 c 258
 78 315 l 258
 62 315 52 307 49 290 c 258
 46 269 l 258
 43 253 51 244 67 244 c 258
 85 244 l 257
 74 130 92 -10 310 -10 c 256
 341 -10 394 -9 460 3 c 256
 477 6 485 17 485 33 c 257
 483 59 l 258
 481 75 472 81 456 78 c 256
  PathStart: -2
EndSplineSet
PickledDataWithLists: "(dp0
Vcom.schriftgestaltung.Glyphs.lastChange
p1
V2015-12-22 14:04:06 +0000
p2
s."
EndChar

StartChar: F
Encoding: 70 70 41
GlifName: F_
Width: 575
VWidth: 0
Flags: W
LayerCount: 2
Fore
SplineSet
181 700 m 257
 165 700 155 691 152 675 c 258
 49 25 l 258
 47 9 54 0 70 0 c 258
 105 0 l 258
 122 0 132 9 134 25 c 258
 177 292 l 257
 476 292 l 258
 492 292 502 300 504 316 c 258
 509 343 l 258
 511 359 504 368 488 368 c 258
 189 368 l 257
 229 624 l 257
 550 624 l 258
 566 624 577 632 579 649 c 258
 583 675 l 258
 586 692 578 700 562 700 c 257
 181 700 l 257
EndSplineSet
PickledDataWithLists: "(dp0
Vcom.schriftgestaltung.Glyphs.lastChange
p1
V2016-06-09 18:35:33 +0000
p2
s."
EndChar

StartChar: F.hex
Encoding: 65542 -1 42
GlifName: F_.hex
Width: 575
VWidth: 0
Flags: W
LayerCount: 2
Fore
SplineSet
214 875 m 258
 214 891 205 900 189 900 c 258
 154 900 l 258
 138 900 129 891 129 875 c 258
 129 829 l 258
 129 813 137 804 154 804 c 258
 189 804 l 258
 205 804 214 812 214 829 c 258
 214 875 l 258
358 875 m 258
 358 891 349 900 333 900 c 258
 298 900 l 258
 282 900 273 891 273 875 c 258
 273 829 l 258
 273 813 281 804 298 804 c 258
 333 804 l 258
 349 804 358 812 358 829 c 258
 358 875 l 258
502 875 m 258
 502 891 493 900 477 900 c 258
 442 900 l 258
 426 900 417 891 417 875 c 258
 417 829 l 258
 417 813 425 804 442 804 c 258
 477 804 l 258
 493 804 502 812 502 829 c 258
 502 875 l 258
646 875 m 258
 646 891 637 900 621 900 c 258
 586 900 l 258
 570 900 561 891 561 875 c 258
 561 829 l 258
 561 813 569 804 586 804 c 258
 621 804 l 258
 637 804 646 812 646 829 c 258
 646 875 l 258
EndSplineSet
Refer: 41 70 N 1 0 0 1 0 0 2
PickledDataWithLists: "(dp0
Vcom.schriftgestaltung.Glyphs.lastChange
p1
V2016-06-09 18:35:33 +0000
p2
s."
EndChar

StartChar: G
Encoding: 71 71 43
GlifName: G_
Width: 575
VWidth: 0
Flags: W
AnchorPoint: "top" 359 700 basechar 0
AnchorPoint: "bottom" 248 0 basechar 0
LayerCount: 2
Fore
SplineSet
365 389 m 258
 349 389 339 380 336 363 c 258
 332 337 l 258
 329 321 336 312 353 312 c 258
 425 312 l 257
 386 70 l 257
 356 62 330 58 308 58 c 256
 241 58 172 91 172 217 c 256
 172 253 176 286 193 390 c 256
 224 586 320 632 399 632 c 256
 430 632 464 625 506 609 c 256
 520 603 532 608 540 623 c 258
 554 647 l 258
 562 662 560 674 546 680 c 256
 502 700 458 710 413 710 c 256
 295 710 147 640 107 390 c 256
 90 280 85 246 85 206 c 256
 85 33 194 -20 297 -20 c 256
 342 -20 391 -10 443 11 c 256
 457 17 465 27 467 41 c 258
 518 364 l 258
 521 380 513 389 497 389 c 258
 365 389 l 258
EndSplineSet
PickledDataWithLists: "(dp0
Vcom.schriftgestaltung.Glyphs.lastChange
p1
V2016-06-09 18:35:33 +0000
p2
s."
EndChar

StartChar: Gamma
Encoding: 915 915 44
GlifName: G_amma
Width: 575
VWidth: 0
Flags: W
LayerCount: 2
Fore
SplineSet
166 700 m 258
 150 700 140 692 137 675 c 258
 34 25 l 258
 32 9 39 0 55 0 c 258
 90 0 l 258
 107 0 117 9 119 25 c 258
 214 624 l 257
 539 624 l 258
 556 624 566 632 568 649 c 258
 572 675 l 258
 575 692 568 700 551 700 c 258
 166 700 l 258
EndSplineSet
PickledDataWithLists: "(dp0
Vcom.schriftgestaltung.Glyphs.lastChange
p1
V2015-12-22 16:32:37 +0000
p2
s."
EndChar

StartChar: H
Encoding: 72 72 46
GlifName: H_
Width: 575
VWidth: 0
Flags: W
AnchorPoint: "bottom" 248 0 basechar 0
AnchorPoint: "top" 359 700 basechar 0
AnchorPoint: "topleft" 91 700 basechar 0
AnchorPoint: "center" 304 350 basechar 0
LayerCount: 2
Fore
SplineSet
518 700 m 258
 502 700 492 692 489 675 c 258
 447 410 l 257
 178 410 l 257
 220 675 l 258
 223 692 216 700 199 700 c 258
 164 700 l 258
 148 700 138 691 135 675 c 258
 32 25 l 257
 30 9 37 0 53 0 c 258
 88 0 l 258
 105 0 115 9 117 25 c 258
 166 333 l 257
 435 333 l 257
 386 25 l 258
 384 9 391 0 407 0 c 258
 442 0 l 258
 459 0 469 9 471 25 c 258
 574 675 l 258
 577 692 569 700 553 700 c 258
 518 700 l 258
EndSplineSet
PickledDataWithLists: "(dp0
Vcom.schriftgestaltung.Glyphs.lastChange
p1
V2016-06-09 18:35:33 +0000
p2
s."
EndChar

StartChar: I
Encoding: 73 73 48
GlifName: I_
Width: 575
VWidth: 0
Flags: W
AnchorPoint: "ogonek" 477 10 basechar 0
AnchorPoint: "top" 359 700 basechar 0
AnchorPoint: "topleft" 91 700 basechar 0
AnchorPoint: "bottom" 248 0 basechar 0
LayerCount: 2
Fore
SplineSet
191 700 m 258
 175 700 165 692 162 675 c 258
 158 649 l 258
 156 633 163 624 179 624 c 258
 304 624 l 257
 218 77 l 257
 83 77 l 258
 67 77 56 68 54 52 c 258
 49 25 l 258
 47 9 54 0 70 0 c 258
 425 0 l 258
 442 0 452 9 454 25 c 258
 459 52 l 258
 461 68 455 77 438 77 c 258
 303 77 l 257
 389 624 l 257
 514 624 l 258
 530 624 541 632 543 649 c 258
 547 675 l 258
 550 692 542 700 526 700 c 258
 191 700 l 258
EndSplineSet
PickledDataWithLists: "(dp0
Vcom.schriftgestaltung.Glyphs.lastChange
p1
V2016-06-09 18:35:33 +0000
p2
s."
EndChar

StartChar: IJ
Encoding: 306 306 49
GlifName: I_J_
Width: 575
VWidth: 0
Flags: W
LayerCount: 2
Fore
SplineSet
161 700 m 258
 145 700 135 692 132 675 c 258
 128 649 l 258
 126 633 133 624 149 624 c 258
 174 624 l 257
 88 77 l 257
 53 77 l 258
 37 77 26 68 24 52 c 258
 19 25 l 258
 17 9 24 0 40 0 c 258
 195 0 l 258
 212 0 222 9 224 25 c 258
 229 52 l 258
 231 68 225 77 208 77 c 258
 173 77 l 257
 259 624 l 257
 284 624 l 258
 300 624 311 632 313 649 c 258
 317 675 l 258
 320 692 312 700 296 700 c 258
 161 700 l 258
423 700 m 258
 407 700 397 691 394 675 c 258
 390 649 l 258
 388 632 395 624 411 624 c 258
 464 624 l 257
 385 125 l 258
 379 86 350 77 313 77 c 256
 297 77 286 68 284 52 c 258
 279 25 l 258
 277 9 285 1 302 1 c 256
 398 1 454 24 470 125 c 258
 557 675 l 258
 560 692 553 700 536 700 c 258
 423 700 l 258
EndSplineSet
PickledDataWithLists: "(dp0
Vcom.schriftgestaltung.Glyphs.lastChange
p1
V2016-06-09 18:35:33 +0000
p2
s."
EndChar

StartChar: J
Encoding: 74 74 57
GlifName: J_
Width: 575
VWidth: 0
Flags: W
AnchorPoint: "top" 359 700 basechar 0
AnchorPoint: "bottom" 248 0 basechar 0
LayerCount: 2
Fore
SplineSet
268 700 m 258
 252 700 242 691 239 675 c 258
 235 649 l 258
 233 632 240 624 256 624 c 258
 464 624 l 257
 409 275 l 258
 390 153 332 67 176 67 c 256
 155 67 112 69 67 78 c 256
 51 81 39 75 33 59 c 258
 22 33 l 258
 15 17 20 6 36 3 c 256
 88 -8 134 -10 164 -10 c 256
 328 -10 459 52 494 275 c 258
 557 675 l 258
 560 692 553 700 536 700 c 258
 268 700 l 258
EndSplineSet
PickledDataWithLists: "(dp0
Vcom.schriftgestaltung.Glyphs.lastChange
p1
V2016-06-09 18:35:33 +0000
p2
s."
EndChar

StartChar: K
Encoding: 75 75 59
GlifName: K_
Width: 575
VWidth: 0
Flags: W
LayerCount: 2
Fore
SplineSet
455 0 m 258
 476 0 486 14 475 31 c 258
 280 360 l 257
 562 670 l 258
 577 687 572 700 551 700 c 258
 498 700 l 258
 485 700 476 696 466 685 c 258
 216 399 l 257
 194 399 l 257
 237 675 l 258
 240 692 233 700 216 700 c 258
 181 700 l 258
 165 700 155 691 152 675 c 258
 49 25 l 258
 47 9 54 0 70 0 c 258
 105 0 l 258
 122 0 132 9 134 25 c 258
 182 323 l 257
 203 323 l 257
 376 16 l 258
 381 5 389 0 403 0 c 258
 455 0 l 258
EndSplineSet
PickledDataWithLists: "(dp0
Vcom.schriftgestaltung.Glyphs.lastChange
p1
V2016-06-09 18:35:33 +0000
p2
s."
EndChar

StartChar: L
Encoding: 76 76 61
GlifName: L_
Width: 575
VWidth: 0
Flags: W
LayerCount: 2
Fore
SplineSet
143 77 m 257
 237 675 l 258
 240 692 233 700 216 700 c 258
 181 700 l 258
 165 700 155 691 152 675 c 258
 49 25 l 258
 47 9 54 0 70 0 c 258
 489 0 l 258
 505 0 516 9 518 25 c 258
 523 52 l 258
 525 68 518 77 502 77 c 258
 143 77 l 257
EndSplineSet
PickledDataWithLists: "(dp0
Vcom.schriftgestaltung.Glyphs.lastChange
p1
V2016-06-09 18:35:33 +0000
p2
s."
EndChar

StartChar: Lambda
Encoding: 923 923 63
GlifName: L_ambda
Width: 575
VWidth: 0
Flags: W
LayerCount: 2
Fore
SplineSet
361 710 m 256
 296 710 248 679 224 621 c 258
 -18 28 l 258
 -25 11 -19 0 -1 0 c 258
 34 0 l 258
 49 0 61 7 66 22 c 258
 306 607 l 258
 312 624 328 634 349 634 c 256
 370 634 382 624 384 607 c 258
 437 22 l 258
 439 7 446 0 461 0 c 258
 497 0 l 258
 514 0 525 11 523 28 c 258
 469 621 l 258
 464 679 425 710 361 710 c 256
  PathStart: -2
EndSplineSet
PickledDataWithLists: "(dp0
Vcom.schriftgestaltung.Glyphs.lastChange
p1
V2015-12-22 12:18:02 +0000
p2
s."
EndChar

StartChar: Lslash
Encoding: 321 321 66
GlifName: L_slash
Width: 575
VWidth: 0
Flags: W
LayerCount: 2
Fore
SplineSet
32 332 m 258
 19 323 13 306 21 294 c 258
 37 271 l 258
 44 261 58 259 71 267 c 258
 338 446 l 258
 351 455 356 471 348 484 c 258
 333 507 l 258
 326 517 312 520 299 512 c 258
 32 332 l 258
EndSplineSet
Refer: 61 76 N 1 0 0 1 0 0 2
PickledDataWithLists: "(dp0
Vcom.schriftgestaltung.Glyphs.lastChange
p1
V2016-06-09 18:35:33 +0000
p2
s."
EndChar

StartChar: M
Encoding: 77 77 67
GlifName: M_
Width: 575
VWidth: 0
Flags: W
LayerCount: 2
Fore
SplineSet
570 705 m 258
 554 705 l 258
 526 705 505 694 489 669 c 258
 312 399 l 257
 219 669 l 258
 211 694 194 705 166 705 c 258
 150 705 l 258
 132 705 122 696 119 680 c 258
 -4 26 l 258
 -7 11 2 0 17 0 c 258
 51 0 l 258
 66 0 77 11 81 26 c 258
 180 540 l 257
 256 318 l 258
 260 305 268 300 282 300 c 258
 310 300 l 258
 324 300 334 305 342 318 c 258
 488 540 l 257
 425 26 l 258
 423 11 430 0 445 0 c 258
 479 0 l 258
 494 0 507 11 510 26 c 257
 593 680 l 257
 596 696 588 705 570 705 c 258
  PathStart: -2
EndSplineSet
PickledDataWithLists: "(dp0
Vcom.schriftgestaltung.Glyphs.lastChange
p1
V2016-06-09 18:35:33 +0000
p2
s."
EndChar

StartChar: N
Encoding: 78 78 69
GlifName: N_
Width: 575
VWidth: 0
Flags: W
LayerCount: 2
Fore
SplineSet
518 705 m 258
 503 705 491 694 489 679 c 258
 408 169 l 257
 237 669 l 258
 229 694 212 705 184 705 c 258
 168 705 l 258
 150 705 140 696 137 680 c 258
 34 26 l 258
 31 11 40 0 55 0 c 258
 89 0 l 258
 104 0 116 11 119 26 c 258
 198 527 l 257
 370 36 l 258
 379 11 395 0 423 0 c 258
 439 0 l 258
 457 0 468 9 470 25 c 258
 574 679 l 258
 576 694 567 705 552 705 c 258
 518 705 l 258
EndSplineSet
PickledDataWithLists: "(dp0
Vcom.schriftgestaltung.Glyphs.lastChange
p1
V2016-06-09 18:35:33 +0000
p2
s."
EndChar

StartChar: O
Encoding: 79 79 74
GlifName: O_
Width: 575
VWidth: 0
Flags: W
LayerCount: 2
Fore
SplineSet
118 457 m 256
 84 246 77 214 79 162 c 256
 84 48 155 -10 252 -10 c 256
 370 -10 463 78 489 243 c 256
 522 456 528 480 528 519 c 256
 528 644 458 710 356 710 c 256
 238 710 144 624 118 457 c 256
  PathStart: -2
166 172 m 256
 162 215 168 237 203 457 c 256
 221 569 279 634 344 634 c 256
 399 634 442 587 442 503 c 256
 442 475 436 443 404 243 c 256
 386 131 329 66 264 66 c 256
 214 66 173 104 166 172 c 256
  PathStart: -2
EndSplineSet
PickledDataWithLists: "(dp0
Vcom.schriftgestaltung.Glyphs.lastChange
p1
V2016-06-09 18:35:33 +0000
p2
s."
EndChar

StartChar: OE
Encoding: 338 338 75
GlifName: O_E_
Width: 575
VWidth: 0
Flags: W
LayerCount: 2
Fore
SplineSet
346 77 m 257
 385 326 l 257
 487 326 l 258
 503 326 513 335 516 351 c 258
 520 378 l 258
 523 394 515 403 499 403 c 258
 397 403 l 257
 432 624 l 257
 541 624 l 258
 557 624 568 632 570 649 c 258
 574 675 l 258
 577 692 569 700 553 700 c 258
 359 700 l 258
 217 700 139 594 116 447 c 256
 85 256 79 223 79 185 c 256
 79 76 128 0 248 0 c 258
 453 0 l 258
 470 0 480 9 482 25 c 258
 487 52 l 258
 489 68 483 77 466 77 c 258
 346 77 l 257
261 77 m 257
 189 77 165 129 165 196 c 256
 165 227 169 248 201 447 c 256
 216 539 255 624 347 624 c 257
 261 77 l 257
EndSplineSet
PickledDataWithLists: "(dp0
Vcom.schriftgestaltung.Glyphs.lastChange
p1
V2016-06-09 18:35:33 +0000
p2
s."
EndChar

StartChar: P
Encoding: 80 80 85
GlifName: P_
Width: 575
VWidth: 0
Flags: W
LayerCount: 2
Fore
SplineSet
181 700 m 258
 165 700 155 691 152 675 c 258
 49 25 l 258
 47 9 54 0 70 0 c 258
 105 0 l 258
 122 0 132 9 134 25 c 258
 172 260 l 257
 247 260 l 258
 418 260 556 360 556 508 c 256
 556 616 480 700 316 700 c 258
 181 700 l 258
184 336 m 257
 229 624 l 257
 304 624 l 258
 419 624 470 569 470 495 c 256
 470 402 379 336 259 336 c 258
 184 336 l 257
EndSplineSet
PickledDataWithLists: "(dp0
Vcom.schriftgestaltung.Glyphs.lastChange
p1
V2016-06-09 18:35:33 +0000
p2
s."
EndChar

StartChar: Phi
Encoding: 934 934 86
GlifName: P_hi
Width: 575
VWidth: 0
Flags: W
LayerCount: 2
Fore
SplineSet
617 649 m 258
 621 675 l 258
 624 692 616 700 600 700 c 258
 118 700 l 258
 101 700 92 691 89 675 c 258
 85 649 l 258
 83 633 89 624 105 624 c 258
 304 624 l 257
 292 549 l 257
 155 534 58 445 58 314 c 256
 58 222 121 162 229 150 c 257
 217 76 l 257
 18 76 l 258
 2 76 -7 67 -10 51 c 258
 -14 25 l 258
 -16 9 -10 0 7 0 c 258
 489 0 l 258
 505 0 516 8 518 25 c 258
 522 51 l 258
 525 67 517 76 501 76 c 258
 302 76 l 257
 314 150 l 257
 451 166 549 256 549 386 c 256
 549 479 486 538 378 550 c 257
 389 624 l 257
 588 624 l 258
 604 624 615 633 617 649 c 258
  PathStart: -2
280 472 m 257
 242 228 l 257
 179 239 144 275 144 329 c 256
 144 402 197 457 280 472 c 257
  PathStart: -1
327 228 m 257
 365 472 l 257
 427 461 463 425 463 371 c 256
 463 298 410 243 327 228 c 257
  PathStart: -1
EndSplineSet
PickledDataWithLists: "(dp0
Vcom.schriftgestaltung.Glyphs.lastChange
p1
V2015-12-22 12:22:42 +0000
p2
s."
EndChar

StartChar: Pi
Encoding: 928 928 87
GlifName: P_i
Width: 575
VWidth: 0
Flags: W
LayerCount: 2
Fore
SplineSet
181 700 m 258
 165 700 155 692 152 675 c 258
 49 25 l 258
 47 9 54 0 70 0 c 258
 105 0 l 258
 122 0 132 9 134 25 c 258
 229 624 l 257
 464 624 l 257
 369 25 l 258
 367 9 374 0 390 0 c 258
 425 0 l 258
 442 0 452 9 454 25 c 258
 557 675 l 258
 560 692 553 700 536 700 c 258
 181 700 l 258
EndSplineSet
PickledDataWithLists: "(dp0
Vcom.schriftgestaltung.Glyphs.lastChange
p1
V2015-12-22 12:20:26 +0000
p2
s."
EndChar

StartChar: Psi
Encoding: 936 936 88
GlifName: P_si
Width: 575
VWidth: 0
Flags: W
LayerCount: 2
Fore
SplineSet
531 700 m 258
 515 700 505 691 502 675 c 258
 464 433 l 258
 453 363 412 314 338 301 c 257
 397 675 l 258
 400 691 393 700 376 700 c 258
 341 700 l 258
 325 700 315 691 312 675 c 258
 253 301 l 257
 193 312 167 349 167 403 c 256
 167 412 167 423 169 433 c 258
 207 675 l 258
 210 692 202 700 186 700 c 258
 151 700 l 258
 135 700 125 691 122 675 c 258
 84 433 l 258
 81 417 80 401 80 386 c 256
 80 291 134 234 241 222 c 257
 209 25 l 258
 207 9 214 0 230 0 c 258
 265 0 l 258
 282 0 292 9 294 25 c 258
 326 222 l 257
 454 235 529 309 549 433 c 258
 587 675 l 258
 590 692 583 700 566 700 c 258
 531 700 l 258
EndSplineSet
PickledDataWithLists: "(dp0
Vcom.schriftgestaltung.Glyphs.lastChange
p1
V2015-12-22 12:24:48 +0000
p2
s."
EndChar

StartChar: Q
Encoding: 81 81 89
GlifName: Q_
Width: 575
VWidth: 0
Flags: W
LayerCount: 2
Fore
SplineSet
473 -142 m 257
 468 -127 458 -122 442 -128 c 256
 414 -138 390 -142 365 -142 c 256
 307 -142 273 -114 290 -6 c 258
 298 43 l 257
 212 43 l 257
 204 -6 l 258
 179 -167 258 -220 353 -220 c 256
 388 -220 426 -212 461 -200 c 257
 478 -195 483 -183 480 -168 c 257
 473 -142 l 257
EndSplineSet
Refer: 74 79 N 1 0 0 1 0 0 2
PickledDataWithLists: "(dp0
Vcom.schriftgestaltung.Glyphs.lastChange
p1
V2016-06-09 18:35:33 +0000
p2
s."
EndChar

StartChar: R
Encoding: 82 82 90
GlifName: R_
Width: 575
VWidth: 0
Flags: W
LayerCount: 2
Fore
SplineSet
411 335 m 257
 489 370 544 454 544 537 c 256
 544 631 476 700 339 700 c 258
 181 700 l 258
 165 700 155 692 152 675 c 258
 49 25 l 258
 47 9 54 0 70 0 c 258
 105 0 l 258
 121 0 132 9 134 25 c 258
 180 312 l 257
 325 312 l 257
 425 18 l 258
 429 6 437 0 451 0 c 258
 493 0 l 258
 512 0 522 12 516 30 c 258
 411 335 l 257
192 389 m 257
 229 624 l 257
 327 624 l 258
 417 624 457 575 457 520 c 256
 457 446 383 389 290 389 c 258
 192 389 l 257
EndSplineSet
PickledDataWithLists: "(dp0
Vcom.schriftgestaltung.Glyphs.lastChange
p1
V2016-06-09 18:35:33 +0000
p2
s."
EndChar

StartChar: S
Encoding: 83 83 94
GlifName: S_
Width: 575
VWidth: 0
Flags: W
AnchorPoint: "top" 449 694 basechar 0
AnchorPoint: "bottom" 208 0 basechar 0
LayerCount: 2
Fore
SplineSet
531 652 m 258
 538 668 538 676 525 683 c 256
 486 701 432 710 389 710 c 256
 248 710 122 623 122 493 c 256
 122 415 171 345 295 318 c 256
 382 299 419 256 419 204 c 256
 419 118 323 69 226 69 c 256
 192 69 141 75 105 91 c 257
 91 97 79 92 71 77 c 258
 57 53 l 258
 48 38 51 26 65 20 c 256
 107 0 161 -10 209 -10 c 256
 357 -10 507 84 507 220 c 256
 507 307 446 375 316 403 c 256
 242 419 210 463 210 511 c 256
 210 586 294 634 377 634 c 256
 415 634 451 624 484 611 c 256
 498 605 510 610 517 625 c 258
 531 652 l 258
EndSplineSet
PickledDataWithLists: "(dp0
Vcom.schriftgestaltung.Glyphs.lastChange
p1
V2016-06-09 18:35:33 +0000
p2
s."
EndChar

StartChar: T
Encoding: 84 84 100
GlifName: T_
Width: 575
VWidth: 0
Flags: W
LayerCount: 2
Fore
SplineSet
621 675 m 258
 624 692 616 700 600 700 c 258
 118 700 l 258
 101 700 92 691 89 675 c 258
 85 649 l 258
 83 633 89 624 105 624 c 258
 304 624 l 257
 209 25 l 258
 207 9 214 0 230 0 c 258
 265 0 l 258
 282 0 292 9 294 25 c 258
 389 624 l 257
 588 624 l 258
 604 624 615 633 617 649 c 258
 621 675 l 258
EndSplineSet
PickledDataWithLists: "(dp0
Vcom.schriftgestaltung.Glyphs.lastChange
p1
V2016-06-09 18:35:33 +0000
p2
s."
EndChar

StartChar: Theta
Encoding: 920 920 104
GlifName: T_heta
Width: 575
VWidth: 0
Flags: W
LayerCount: 2
Fore
SplineSet
261 347 m 258
 259 331 266 322 282 322 c 258
 311 322 l 258
 327 322 338 331 340 347 c 258
 345 374 l 258
 347 390 340 399 324 399 c 258
 295 399 l 258
 279 399 268 390 266 374 c 258
 261 347 l 258
EndSplineSet
Refer: 74 79 N 1 0 0 1 0 0 2
PickledDataWithLists: "(dp0
Vcom.schriftgestaltung.Glyphs.lastChange
p1
V2016-05-30 08:32:14 +0000
p2
s."
EndChar

StartChar: Thorn
Encoding: 222 222 105
GlifName: T_horn
Width: 575
VWidth: 0
Flags: W
LayerCount: 2
Fore
SplineSet
237 675 m 258
 240 691 232 700 216 700 c 258
 181 700 l 258
 165 700 155 691 152 675 c 258
 49 25 l 258
 47 9 54 0 70 0 c 258
 105 0 l 258
 121 0 132 9 134 25 c 258
 150 126 l 257
 188 122 219 121 239 121 c 256
 438 121 519 254 519 448 c 256
 519 590 459 642 321 642 c 256
 299 642 268 641 231 637 c 257
 237 675 l 258
219 562 m 257
 259 565 291 565 309 565 c 256
 399 565 433 533 433 435 c 256
 433 298 387 198 251 198 c 256
 231 198 199 199 162 202 c 257
 219 562 l 257
EndSplineSet
PickledDataWithLists: "(dp0
Vcom.schriftgestaltung.Glyphs.lastChange
p1
V2016-06-09 18:35:33 +0000
p2
s."
EndChar

StartChar: U
Encoding: 85 85 106
GlifName: U_
Width: 575
VWidth: 0
Flags: W
AnchorPoint: "ogonek" 477 10 basechar 0
AnchorPoint: "top" 359 700 basechar 0
AnchorPoint: "topright" 626 700 basechar 0
AnchorPoint: "bottom" 248 0 basechar 0
LayerCount: 2
Fore
SplineSet
399 213 m 258
 382 103 355 66 271 66 c 256
 202 66 159 90 159 159 c 256
 159 174 161 192 164 213 c 258
 237 675 l 258
 240 691 232 700 216 700 c 258
 181 700 l 258
 165 700 155 691 152 675 c 258
 79 213 l 258
 76 191 74 171 74 152 c 256
 74 32 157 -10 259 -10 c 256
 377 -10 458 46 484 213 c 258
 557 675 l 258
 560 691 552 700 536 700 c 258
 501 700 l 258
 485 700 475 691 472 675 c 258
 399 213 l 258
EndSplineSet
PickledDataWithLists: "(dp0
Vcom.schriftgestaltung.Glyphs.lastChange
p1
V2016-06-09 18:35:33 +0000
p2
s."
EndChar

StartChar: V
Encoding: 86 86 117
GlifName: V_
Width: 575
VWidth: 0
Flags: W
LayerCount: 2
Fore
SplineSet
625 672 m 258
 633 689 625 700 608 700 c 258
 572 700 l 258
 557 700 547 693 541 678 c 257
 302 93 l 257
 295 75 276 66 259 66 c 256
 242 66 225 75 224 93 c 257
 170 678 l 257
 169 693 160 700 145 700 c 258
 110 700 l 258
 92 700 83 689 84 672 c 258
 138 79 l 258
 144 21 194 -10 253 -10 c 256
 312 -10 360 21 383 79 c 258
 625 672 l 258
EndSplineSet
PickledDataWithLists: "(dp0
Vcom.schriftgestaltung.Glyphs.lastChange
p1
V2016-06-09 18:35:33 +0000
p2
s."
EndChar

StartChar: X
Encoding: 88 88 123
GlifName: X_
Width: 575
VWidth: 0
Flags: W
LayerCount: 2
Fore
SplineSet
595 671 m 258
 606 688 600 700 581 700 c 258
 550 700 l 258
 536 700 525 695 517 682 c 258
 345 419 l 258
 332 399 320 390 310 390 c 256
 299 390 291 400 285 419 c 258
 194 682 l 258
 190 695 182 700 168 700 c 258
 137 700 l 258
 117 700 108 688 114 671 c 258
 205 390 l 258
 209 376 222 364 237 357 c 257
 220 351 203 338 195 325 c 258
 5 30 l 258
 -6 12 0 0 19 0 c 258
 50 0 l 258
 64 0 74 6 82 18 c 258
 265 295 l 258
 277 315 289 325 300 325 c 256
 310 325 318 315 325 295 c 258
 419 18 l 258
 423 6 432 0 446 0 c 258
 477 0 l 258
 496 0 505 12 500 30 c 258
 405 325 l 258
 400 338 388 351 372 357 c 257
 390 364 406 376 415 390 c 258
 595 671 l 258
EndSplineSet
PickledDataWithLists: "(dp0
Vcom.schriftgestaltung.Glyphs.lastChange
p1
V2016-06-09 18:35:33 +0000
p2
s."
EndChar

StartChar: Xi
Encoding: 926 926 124
GlifName: X_i
Width: 575
VWidth: 0
Flags: W
LayerCount: 2
Fore
SplineSet
528 624 m 258
 544 624 555 632 557 649 c 258
 561 675 l 258
 564 692 556 700 540 700 c 258
 177 700 l 258
 161 700 151 692 148 675 c 258
 144 649 l 258
 142 632 149 624 165 624 c 258
 528 624 l 258
151 403 m 258
 135 403 125 394 122 378 c 258
 118 351 l 258
 115 335 123 326 139 326 c 258
 460 326 l 258
 476 326 486 335 489 351 c 258
 493 378 l 258
 496 394 488 403 472 403 c 258
 151 403 l 258
57 77 m 258
 41 77 30 68 28 52 c 258
 23 25 l 258
 21 9 28 0 44 0 c 258
 451 0 l 258
 467 0 478 9 480 25 c 258
 485 52 l 258
 487 68 480 77 464 77 c 258
 57 77 l 258
EndSplineSet
PickledDataWithLists: "(dp0
Vcom.schriftgestaltung.Glyphs.lastChange
p1
V2015-12-22 12:18:54 +0000
p2
s."
EndChar

StartChar: Y
Encoding: 89 89 125
GlifName: Y_
Width: 575
VWidth: 0
Flags: W
LayerCount: 2
Fore
SplineSet
567 700 m 258
 553 700 542 695 534 682 c 258
 355 410 l 258
 343 391 327 380 309 380 c 256
 291 380 277 391 270 410 c 258
 177 682 l 258
 173 695 165 700 151 700 c 258
 114 700 l 258
 95 700 85 688 92 671 c 258
 191 380 l 258
 201 347 224 325 255 315 c 257
 209 25 l 258
 207 9 214 0 230 0 c 258
 265 0 l 258
 281 0 292 9 294 25 c 258
 340 315 l 257
 375 325 404 347 426 380 c 258
 617 671 l 258
 628 688 623 700 603 700 c 258
 567 700 l 258
EndSplineSet
PickledDataWithLists: "(dp0
Vcom.schriftgestaltung.Glyphs.lastChange
p1
V2016-06-09 18:35:33 +0000
p2
s."
EndChar

StartChar: Z
Encoding: 90 90 130
GlifName: Z_
Width: 575
VWidth: 0
Flags: W
LayerCount: 2
Fore
SplineSet
466 455 m 258
 523 504 561 572 573 645 c 258
 577 675 l 258
 580 692 573 700 556 700 c 258
 192 700 l 258
 176 700 166 692 163 675 c 258
 159 649 l 258
 157 633 164 624 180 624 c 258
 483 624 l 257
 472 571 449 529 420 504 c 258
 143 265 l 258
 87 216 48 142 34 55 c 258
 29 25 l 258
 27 9 34 0 50 0 c 258
 445 0 l 258
 461 0 472 9 474 25 c 258
 479 52 l 258
 481 68 474 77 458 77 c 258
 123 77 l 257
 136 141 159 190 191 217 c 258
 466 455 l 258
EndSplineSet
PickledDataWithLists: "(dp0
Vcom.schriftgestaltung.Glyphs.lastChange
p1
V2016-06-09 18:35:33 +0000
p2
s."
EndChar

StartChar: a
Encoding: 97 97 135
GlifName: a
Width: 575
VWidth: 0
Flags: W
AnchorPoint: "ogonek" 477 10 basechar 0
AnchorPoint: "bottom" 248 0 basechar 0
AnchorPoint: "top" 338 550 basechar 0
LayerCount: 2
Fore
SplineSet
522 471 m 258
 525 487 517 497 501 500 c 256
 440 508 386 510 357 510 c 256
 157 510 77 370 77 189 c 256
 77 36 136 -10 212 -10 c 256
 263 -10 322 15 375 63 c 257
 369 25 l 258
 366 9 374 0 390 0 c 258
 427 0 l 258
 443 0 452 14 454 30 c 258
 522 471 l 258
388 151 m 257
 336 95 283 66 242 66 c 256
 195 66 163 94 163 204 c 256
 163 326 209 434 345 434 c 256
 363 434 395 433 433 430 c 257
 388 151 l 257
EndSplineSet
PickledDataWithLists: "(dp0
Vcom.schriftgestaltung.Glyphs.lastChange
p1
V2016-06-09 18:35:33 +0000
p2
s."
EndChar

StartChar: a.hex
Encoding: 65543 -1 136
GlifName: a.hex
Width: 575
VWidth: 0
Flags: W
LayerCount: 2
Fore
SplineSet
214 875 m 258
 214 891 205 900 189 900 c 258
 154 900 l 258
 138 900 129 891 129 875 c 258
 129 829 l 258
 129 813 137 804 154 804 c 258
 189 804 l 258
 205 804 214 812 214 829 c 258
 214 875 l 258
502 875 m 258
 502 891 493 900 477 900 c 258
 442 900 l 258
 426 900 417 891 417 875 c 258
 417 829 l 258
 417 813 425 804 442 804 c 258
 477 804 l 258
 493 804 502 812 502 829 c 258
 502 875 l 258
EndSplineSet
Refer: 135 97 N 1 0 0 1 0 0 2
PickledDataWithLists: "(dp0
Vcom.schriftgestaltung.Glyphs.lastChange
p1
V2016-06-09 18:35:34 +0000
p2
s."
EndChar

StartChar: acute
Encoding: 180 180 140
GlifName: acute
Width: 575
VWidth: 0
Flags: W
AnchorPoint: "top" 353 500 mark 0
LayerCount: 2
Fore
SplineSet
232 544 m 257
 237 530 248 526 264 531 c 258
 496 606 l 258
 513 611 520 623 515 638 c 258
 502 684 l 258
 497 699 486 703 471 696 c 258
 245 595 l 258
 229 588 223 577 226 562 c 257
 232 544 l 257
EndSplineSet
PickledDataWithLists: "(dp0
Vcom.schriftgestaltung.Glyphs.lastChange
p1
V2015-12-22 16:32:39 +0000
p2
s."
EndChar

StartChar: ae
Encoding: 230 230 142
GlifName: ae
Width: 575
VWidth: 0
Flags: W
LayerCount: 2
Fore
SplineSet
156 443 m 258
 157 428 166 422 183 425 c 256
 215 430 246 432 269 433 c 257
 248 298 l 257
 133 290 64 243 49 149 c 256
 35 46 84 -10 249 -10 c 257
 321 -9 333 -9 389 1 c 256
 406 4 415 15 413 31 c 258
 411 57 l 258
 410 73 401 79 384 76 c 256
 351 71 320 68 296 67 c 257
 321 222 l 257
 455 222 l 258
 471 222 481 231 484 247 c 258
 487 270 l 257
 510 412 459 510 293 510 c 256
 257 510 215 506 176 499 c 256
 160 496 151 486 153 470 c 258
 156 443 l 258
333 299 m 257
 351 415 l 257
 403 401 411 347 407 299 c 257
 333 299 l 257
211 67 m 257
 160 73 126 98 133 140 c 256
 141 190 177 214 235 220 c 257
 211 67 l 257
EndSplineSet
PickledDataWithLists: "(dp0
Vcom.schriftgestaltung.Glyphs.lastChange
p1
V2016-06-09 18:35:33 +0000
p2
s."
EndChar

StartChar: alpha
Encoding: 945 945 144
GlifName: alpha
Width: 575
VWidth: 0
Flags: W
LayerCount: 2
Fore
SplineSet
519 500 m 258
 504 500 496 495 489 478 c 256
 486 468 475 429 458 379 c 257
 429 453 379 510 293 510 c 256
 119 510 39 347 39 177 c 256
 39 27 130 -10 211 -10 c 256
 297 -10 365 47 418 121 c 257
 419 71 416 32 417 22 c 256
 418 5 424 0 439 0 c 258
 466 0 l 258
 484 0 495 8 494 29 c 256
 494 45 501 145 483 250 c 257
 535 355 558 455 564 471 c 256
 571 492 564 500 546 500 c 258
 519 500 l 258
125 193 m 256
 125 293 169 433 281 433 c 256
 360 433 394 345 421 250 c 257
 364 155 302 67 223 67 c 256
 183 67 125 89 125 193 c 256
  PathStart: -2
EndSplineSet
PickledDataWithLists: "(dp0
Vcom.schriftgestaltung.Glyphs.lastChange
p1
V2015-12-22 12:26:38 +0000
p2
s."
EndChar

StartChar: ampersand
Encoding: 38 38 146
GlifName: ampersand
Width: 575
VWidth: 0
Flags: W
LayerCount: 2
Fore
SplineSet
463 0 m 258
 480 0 491 10 490 27 c 256
 484 69 470 112 448 159 c 257
 467 190 486 226 503 267 c 256
 509 283 504 294 488 297 c 258
 456 303 l 258
 441 306 430 299 423 284 c 256
 417 267 410 252 403 237 c 257
 364 298 313 364 259 428 c 256
 226 467 213 500 213 529 c 256
 213 578 255 618 305 618 c 256
 350 618 381 587 381 547 c 256
 381 521 368 491 344 471 c 256
 332 461 331 449 341 437 c 258
 357 417 l 258
 368 405 380 405 391 415 c 256
 436 453 463 506 463 564 c 256
 463 640 405 697 319 697 c 256
 217 697 127 616 127 519 c 256
 127 475 146 428 185 380 c 257
 99 325 38 241 38 143 c 256
 38 51 94 -7 192 -7 c 256
 255 -7 325 21 389 85 c 257
 398 62 404 41 407 21 c 256
 410 7 416 0 431 0 c 258
 463 0 l 258
122 153 m 256
 122 217 165 282 232 324 c 257
 283 260 323 205 352 157 c 257
 302 94 247 69 204 69 c 256
 153 69 122 98 122 153 c 256
  PathStart: -2
EndSplineSet
PickledDataWithLists: "(dp0
Vcom.schriftgestaltung.Glyphs.lastChange
p1
V2015-12-22 14:24:01 +0000
p2
s."
EndChar

StartChar: asciicircum
Encoding: 94 94 150
GlifName: asciicircum
Width: 575
VWidth: 0
Flags: W
LayerCount: 2
Fore
SplineSet
68 499 m 258
 55 487 53 474 64 463 c 258
 84 443 l 258
 94 432 106 432 119 444 c 258
 333 633 l 258
 336 636 343 642 350 642 c 256
 357 642 360 639 364 633 c 258
 518 444 l 258
 528 432 540 432 554 443 c 258
 579 463 l 258
 593 474 596 487 585 499 c 258
 425 682 l 258
 408 701 392 719 362 719 c 256
 332 719 311 702 286 682 c 258
 68 499 l 258
EndSplineSet
PickledDataWithLists: "(dp0
Vcom.schriftgestaltung.Glyphs.lastChange
p1
V2015-12-22 14:26:04 +0000
p2
s."
EndChar

StartChar: asciitilde
Encoding: 126 126 151
GlifName: asciitilde
Width: 575
VWidth: 0
Flags: W
LayerCount: 2
Fore
SplineSet
495 308 m 258
 478 308 467 300 465 286 c 256
 458 241 437 216 407 216 c 256
 383 216 352 238 319 277 c 256
 274 331 225 361 182 361 c 256
 100 361 47 310 32 219 c 256
 29 202 37 193 52 193 c 258
 80 193 l 258
 98 193 108 201 110 215 c 256
 118 260 138 284 169 284 c 256
 192 284 223 263 257 223 c 256
 302 169 351 140 395 140 c 256
 476 140 528 190 543 282 c 256
 546 299 539 308 524 308 c 258
 495 308 l 258
EndSplineSet
PickledDataWithLists: "(dp0
Vcom.schriftgestaltung.Glyphs.lastChange
p1
V2015-12-22 16:32:54 +0000
p2
s."
EndChar

StartChar: asterisk
Encoding: 42 42 152
GlifName: asterisk
Width: 575
VWidth: 0
Flags: W
LayerCount: 2
Fore
SplineSet
534 345 m 258
 531 360 521 366 505 361 c 258
 339 309 l 257
 366 475 l 258
 368 492 361 500 345 500 c 258
 310 500 l 258
 294 500 283 492 281 475 c 258
 254 309 l 257
 106 361 l 258
 90 366 78 360 71 345 c 258
 55 311 l 258
 47 296 52 285 66 280 c 258
 200 234 l 257
 76 94 l 258
 65 81 64 68 76 59 c 258
 101 38 l 258
 113 29 125 31 138 44 c 257
 280 206 l 257
 371 44 l 258
 379 31 391 29 406 39 c 257
 438 59 l 257
 451 68 455 81 448 94 c 258
 370 234 l 257
 519 280 l 258
 535 285 542 296 540 311 c 258
 534 345 l 258
EndSplineSet
PickledDataWithLists: "(dp0
Vcom.schriftgestaltung.Glyphs.lastChange
p1
V2015-12-22 20:53:16 +0000
p2
s."
EndChar

StartChar: at
Encoding: 64 64 153
GlifName: at
Width: 575
VWidth: 0
Flags: W
LayerCount: 2
Fore
SplineSet
25 88 m 258
 22 66 20 45 20 25 c 256
 20 -96 88 -158 223 -158 c 256
 269 -158 308 -151 350 -137 c 256
 365 -132 372 -120 368 -105 c 258
 361 -78 l 258
 357 -63 347 -58 331 -64 c 256
 296 -76 268 -82 235 -82 c 256
 149 -82 106 -41 106 41 c 256
 106 55 107 71 110 88 c 258
 170 464 l 258
 188 577 248 634 349 634 c 256
 434 634 477 593 477 512 c 256
 477 497 476 482 473 465 c 257
 359 465 303 410 282 276 c 256
 261 142 299 87 413 87 c 258
 473 87 l 258
 489 87 500 96 502 112 c 258
 558 464 l 258
 562 487 563 508 563 528 c 256
 563 649 495 710 361 710 c 256
 204 710 111 627 85 464 c 258
 25 88 l 258
EndSplineSet
PickledDataWithLists: "(dp0
Vcom.schriftgestaltung.Glyphs.lastChange
p1
V2016-02-01 22:12:54 +0000
p2
s."
EndChar

StartChar: b
Encoding: 98 98 155
GlifName: b
Width: 575
VWidth: 0
Flags: W
LayerCount: 2
Fore
SplineSet
48 29 m 258
 46 13 53 3 69 0 c 256
 130 -8 184 -10 213 -10 c 256
 413 -10 493 120 493 310 c 256
 493 454 434 510 358 510 c 256
 307 510 248 485 195 437 c 257
 240 725 l 258
 243 741 235 750 219 750 c 258
 182 750 l 258
 166 750 157 736 155 720 c 258
 48 29 l 258
182 349 m 257
 234 405 287 434 328 434 c 256
 375 434 407 396 407 295 c 256
 407 164 361 66 225 66 c 256
 207 66 175 67 137 70 c 257
 182 349 l 257
EndSplineSet
PickledDataWithLists: "(dp0
Vcom.schriftgestaltung.Glyphs.lastChange
p1
V2016-06-09 18:35:33 +0000
p2
sVcom.typemytype.robofont.layerData
p3
(dp4
Vbackground
p5
(dp6
Vanchors
p7
(lp8
sVcomponents
p9
(lp10
sVcontours
p11
(lp12
(dp13
Vpoints
p14
(lp15
(dp16
VsegmentType
p17
Vline
p18
sVsmooth
p19
I01
sVx
p20
I48
sVy
p21
I29
sa(dp22
g19
I00
sg20
I45
sg21
I13
sa(dp23
g19
I00
sg20
I53
sg21
I3
sa(dp24
g17
Vcurve
p25
sg19
I01
sg20
I69
sg21
I0
sa(dp26
g19
I00
sg20
I130
sg21
I-8
sa(dp27
g19
I00
sg20
I184
sg21
I-10
sa(dp28
g17
Vcurve
p29
sg19
I01
sg20
I213
sg21
I-10
sa(dp30
g19
I00
sg20
I354
sg21
I-10
sa(dp31
g19
I00
sg20
I452
sg21
I36
sa(dp32
g17
Vcurve
p33
sg19
I01
sg20
I486
sg21
I250
sa(dp34
g19
I00
sg20
I515
sg21
I431
sa(dp35
g19
I00
sg20
I448
sg21
I510
sa(dp36
g17
Vcurve
p37
sg19
I01
sg20
I358
sg21
I510
sa(dp38
g19
I00
sg20
I307
sg21
I510
sa(dp39
g19
I00
sg20
I248
sg21
I485
sa(dp40
g17
Vcurve
p41
sg19
I00
sg20
I195
sg21
I437
sa(dp42
g17
Vline
p43
sg19
I01
sg20
I201
sg21
I475
sa(dp44
g19
I00
sg20
I204
sg21
I491
sa(dp45
g19
I00
sg20
I196
sg21
I500
sa(dp46
g17
Vcurve
p47
sg19
I01
sg20
I180
sg21
I500
sa(dp48
g17
Vline
p49
sg19
I01
sg20
I143
sg21
I500
sa(dp50
g19
I00
sg20
I127
sg21
I500
sa(dp51
g19
I00
sg20
I118
sg21
I486
sa(dp52
g17
Vcurve
p53
sg19
I01
sg20
I116
sg21
I470
sasa(dp54
g14
(lp55
(dp56
g17
Vline
p57
sg19
I00
sg20
I182
sg21
I349
sa(dp58
g19
I00
sg20
I234
sg21
I405
sa(dp59
g19
I00
sg20
I287
sg21
I434
sa(dp60
g17
Vcurve
p61
sg19
I01
sg20
I328
sg21
I434
sa(dp62
g19
I00
sg20
I386
sg21
I434
sa(dp63
g19
I00
sg20
I421
sg21
I376
sa(dp64
g17
Vcurve
p65
sg19
I01
sg20
I401
sg21
I250
sa(dp66
g19
I00
sg20
I377
sg21
I98
sa(dp67
g19
I00
sg20
I324
sg21
I66
sa(dp68
g17
Vcurve
p69
sg19
I01
sg20
I225
sg21
I66
sa(dp70
g19
I00
sg20
I207
sg21
I66
sa(dp71
g19
I00
sg20
I175
sg21
I67
sa(dp72
g17
Vcurve
p73
sg19
I00
sg20
I137
sg21
I70
sasasVlib
p74
(dp75
sVname
p76
Vb
p77
sVunicodes
p78
(lp79
sVwidth
p80
I575
sss."
EndChar

StartChar: b.hex
Encoding: 65545 -1 156
GlifName: b.hex
Width: 575
VWidth: 0
Flags: W
LayerCount: 2
Fore
SplineSet
214 875 m 258
 214 891 205 900 189 900 c 258
 154 900 l 258
 138 900 129 891 129 875 c 258
 129 829 l 258
 129 813 137 804 154 804 c 258
 189 804 l 258
 205 804 214 812 214 829 c 258
 214 875 l 258
502 875 m 258
 502 891 493 900 477 900 c 258
 442 900 l 258
 426 900 417 891 417 875 c 258
 417 829 l 258
 417 813 425 804 442 804 c 258
 477 804 l 258
 493 804 502 812 502 829 c 258
 502 875 l 258
646 875 m 258
 646 891 637 900 621 900 c 258
 586 900 l 258
 570 900 561 891 561 875 c 258
 561 829 l 258
 561 813 569 804 586 804 c 258
 621 804 l 258
 637 804 646 812 646 829 c 258
 646 875 l 258
EndSplineSet
Refer: 155 98 N 1 0 0 1 0 0 2
PickledDataWithLists: "(dp0
Vcom.schriftgestaltung.Glyphs.lastChange
p1
V2016-06-09 18:35:34 +0000
p2
s."
EndChar

StartChar: backslash
Encoding: 92 92 157
GlifName: backslash
Width: 575
VWidth: 0
Flags: W
LayerCount: 2
Fore
SplineSet
188 682 m 258
 184 696 172 700 157 693 c 258
 123 677 l 258
 108 670 102 658 106 644 c 258
 389 -182 l 258
 393 -196 405 -200 420 -193 c 258
 454 -177 l 258
 469 -170 475 -158 471 -144 c 258
 188 682 l 258
EndSplineSet
PickledDataWithLists: "(dp0
Vcom.schriftgestaltung.Glyphs.lastChange
p1
V2015-12-22 16:32:37 +0000
p2
s."
EndChar

StartChar: bar
Encoding: 124 124 158
GlifName: bar
Width: 575
VWidth: 0
Flags: W
LayerCount: 2
Fore
SplineSet
349 750 m 258
 333 750 323 741 320 725 c 258
 181 -153 l 258
 178 -170 186 -178 202 -178 c 258
 237 -178 l 258
 254 -178 264 -169 266 -153 c 258
 405 725 l 258
 408 742 400 750 384 750 c 258
 349 750 l 258
EndSplineSet
PickledDataWithLists: "(dp0
Vcom.schriftgestaltung.Glyphs.lastChange
p1
V2015-12-22 16:32:56 +0000
p2
s."
EndChar

StartChar: beta
Encoding: 946 946 159
GlifName: beta
Width: 575
VWidth: 0
Flags: W
LayerCount: 2
Fore
SplineSet
141 494 m 258
 35 -175 l 258
 32 -191 40 -200 56 -200 c 258
 91 -200 l 258
 108 -200 117 -191 120 -175 c 258
 150 16 l 257
 305 -61 506 51 506 216 c 256
 506 264 477 291 453 314 c 256
 436 331 421 345 421 365 c 256
 421 385 440 407 456 427 c 256
 493 472 522 513 522 575 c 256
 522 656 468 700 365 700 c 256
 241 700 162 631 141 494 c 258
  PathStart: -2
440 552 m 256
 440 517 422 499 397 468 c 256
 369 434 334 394 334 349 c 256
 334 315 357 297 380 279 c 257
 402 260 425 242 425 209 c 256
 425 85 292 23 161 86 c 257
 226 494 l 258
 239 581 284 624 353 624 c 256
 410 624 440 599 440 552 c 256
  PathStart: -2
EndSplineSet
PickledDataWithLists: "(dp0
Vcom.schriftgestaltung.Glyphs.lastChange
p1
V2015-12-22 12:27:37 +0000
p2
s."
EndChar

StartChar: block
Encoding: 9608 9608 160
GlifName: block
Width: 575
VWidth: 0
Flags: W
LayerCount: 2
Fore
SplineSet
0 -250 m 257
 575 -250 l 257
 575 900 l 257
 0 900 l 257
 0 -250 l 257
EndSplineSet
PickledDataWithLists: "(dp0
Vcom.schriftgestaltung.Glyphs.lastChange
p1
V2016-06-10 08:26:49 +0000
p2
s."
EndChar

StartChar: braceleft
Encoding: 123 123 161
GlifName: braceleft
Width: 575
VWidth: 0
Flags: W
LayerCount: 2
Fore
SplineSet
383 585 m 258
 393 646 417 674 477 674 c 258
 558 674 l 258
 574 674 584 682 587 699 c 258
 591 725 l 258
 594 741 586 750 570 750 c 258
 489 750 l 258
 373 750 317 704 298 585 c 258
 270 409 l 258
 261 350 236 324 177 324 c 258
 97 324 l 258
 81 324 70 316 68 299 c 258
 64 273 l 258
 61 257 69 248 85 248 c 258
 165 248 l 258
 224 248 241 223 231 164 c 258
 203 -13 l 258
 185 -131 224 -178 342 -178 c 258
 423 -178 l 258
 439 -178 449 -170 452 -153 c 258
 456 -127 l 258
 459 -111 451 -102 435 -102 c 258
 354 -102 l 258
 295 -102 278 -76 288 -13 c 258
 316 164 l 258
 324 214 324 259 270 286 c 257
 332 314 347 355 355 409 c 258
 383 585 l 258
EndSplineSet
PickledDataWithLists: "(dp0
Vcom.schriftgestaltung.Glyphs.lastChange
p1
V2016-04-11 09:42:36 +0000
p2
s."
EndChar

StartChar: braceright
Encoding: 125 125 162
GlifName: braceright
Width: 575
VWidth: 0
Flags: W
LayerCount: 2
Fore
SplineSet
317 286 m 257
 253 259 239 214 231 164 c 258
 203 -13 l 258
 193 -76 168 -102 109 -102 c 258
 28 -102 l 258
 12 -102 2 -111 -1 -127 c 258
 -5 -153 l 258
 -8 -170 0 -178 16 -178 c 258
 97 -178 l 258
 215 -178 270 -131 288 -13 c 258
 316 164 l 258
 326 223 351 248 410 248 c 258
 490 248 l 258
 506 248 516 257 519 273 c 258
 523 299 l 258
 525 316 518 324 502 324 c 258
 422 324 l 258
 363 324 346 350 355 409 c 258
 383 585 l 258
 402 704 360 750 244 750 c 258
 163 750 l 258
 147 750 137 741 134 725 c 258
 130 699 l 258
 127 682 135 674 151 674 c 258
 232 674 l 258
 292 674 308 646 298 585 c 258
 270 409 l 258
 262 355 263 314 317 286 c 257
  PathStart: -2
EndSplineSet
PickledDataWithLists: "(dp0
Vcom.schriftgestaltung.Glyphs.lastChange
p1
V2016-06-03 09:15:51 +0000
p2
s."
EndChar

StartChar: bracketleft
Encoding: 91 91 163
GlifName: bracketleft
Width: 575
VWidth: 0
Flags: W
LayerCount: 2
Fore
SplineSet
179 -102 m 257
 302 674 l 257
 517 674 l 258
 534 674 543 682 546 699 c 258
 550 725 l 258
 553 742 545 750 529 750 c 258
 254 750 l 258
 238 750 228 741 225 725 c 258
 86 -153 l 258
 83 -170 91 -178 107 -178 c 258
 382 -178 l 258
 399 -178 408 -170 411 -153 c 258
 415 -127 l 258
 418 -111 410 -102 394 -102 c 258
 179 -102 l 257
EndSplineSet
PickledDataWithLists: "(dp0
Vcom.schriftgestaltung.Glyphs.lastChange
p1
V2015-12-22 13:51:23 +0000
p2
s."
EndChar

StartChar: bracketright
Encoding: 93 93 164
GlifName: bracketright
Width: 575
VWidth: 0
Flags: W
LayerCount: 2
Fore
SplineSet
204 750 m 258
 188 750 178 742 175 725 c 258
 171 699 l 258
 169 683 176 674 192 674 c 258
 407 674 l 257
 284 -102 l 257
 69 -102 l 258
 53 -102 43 -110 40 -127 c 258
 36 -153 l 258
 33 -170 41 -178 57 -178 c 258
 332 -178 l 258
 349 -178 359 -169 361 -153 c 258
 500 725 l 258
 503 742 495 750 479 750 c 258
 204 750 l 258
EndSplineSet
PickledDataWithLists: "(dp0
Vcom.schriftgestaltung.Glyphs.lastChange
p1
V2015-12-22 13:51:43 +0000
p2
s."
EndChar

StartChar: breve
Encoding: 728 728 165
GlifName: breve
Width: 575
VWidth: 0
Flags: W
AnchorPoint: "top" 328 500 mark 0
LayerCount: 2
Fore
SplineSet
524 696 m 258
 508 699 498 692 491 676 c 256
 468 626 426 598 373 598 c 256
 319 598 287 626 279 676 c 256
 277 692 269 699 254 696 c 258
 225 691 l 258
 208 688 199 678 200 662 c 256
 210 583 268 539 364 538 c 256
 460 539 531 583 565 662 c 256
 573 678 566 688 551 691 c 258
 524 696 l 258
EndSplineSet
PickledDataWithLists: "(dp0
Vcom.schriftgestaltung.Glyphs.lastChange
p1
V2015-12-22 16:32:39 +0000
p2
s."
EndChar

StartChar: brokenbar
Encoding: 166 166 166
GlifName: brokenbar
Width: 575
VWidth: 0
Flags: W
LayerCount: 2
Fore
SplineSet
237 -178 m 258
 254 -178 264 -169 266 -153 c 258
 317 168 l 258
 320 185 312 193 296 193 c 258
 261 193 l 258
 245 193 235 185 232 168 c 258
 181 -153 l 258
 178 -170 186 -178 202 -178 c 258
 237 -178 l 258
325 379 m 258
 341 379 352 388 354 404 c 258
 405 725 l 258
 408 742 401 750 384 750 c 258
 349 750 l 258
 333 750 323 741 320 725 c 258
 269 404 l 258
 267 388 274 379 290 379 c 258
 325 379 l 258
EndSplineSet
PickledDataWithLists: "(dp0
Vcom.schriftgestaltung.Glyphs.lastChange
p1
V2015-12-22 14:22:08 +0000
p2
s."
EndChar

StartChar: bullet
Encoding: 8226 8226 167
GlifName: bullet
Width: 575
VWidth: 0
Flags: W
LayerCount: 2
Fore
SplineSet
480 325 m 256
 480 423 404 500 308 500 c 256
 211 500 135 423 135 325 c 256
 135 227 211 150 308 150 c 256
 404 150 480 227 480 325 c 256
  PathStart: -2
EndSplineSet
PickledDataWithLists: "(dp0
Vcom.schriftgestaltung.Glyphs.lastChange
p1
V2015-12-22 16:32:38 +0000
p2
s."
EndChar

StartChar: c
Encoding: 99 99 168
GlifName: c
Width: 575
VWidth: 0
Flags: W
AnchorPoint: "top" 366 550 basechar 0
AnchorPoint: "bottom" 248 0 basechar 0
LayerCount: 2
Fore
SplineSet
522 447 m 258
 531 462 528 474 514 480 c 256
 471 500 420 510 369 510 c 256
 187 510 80 370 80 202 c 256
 80 45 176 -10 287 -10 c 256
 338 -10 391 0 442 20 c 256
 458 26 463 38 460 53 c 258
 454 77 l 258
 450 92 440 97 424 91 c 256
 376 75 340 68 299 68 c 256
 222 68 166 102 166 211 c 256
 166 325 226 432 357 432 c 256
 398 432 433 425 474 409 c 256
 488 403 500 408 508 423 c 258
 522 447 l 258
EndSplineSet
PickledDataWithLists: "(dp0
Vcom.schriftgestaltung.Glyphs.lastChange
p1
V2016-06-09 18:35:33 +0000
p2
s."
EndChar

StartChar: c.hex
Encoding: 65548 -1 169
GlifName: c.hex
Width: 575
VWidth: 0
Flags: W
LayerCount: 2
Fore
SplineSet
214 875 m 258
 214 891 205 900 189 900 c 258
 154 900 l 258
 138 900 129 891 129 875 c 258
 129 829 l 258
 129 813 137 804 154 804 c 258
 189 804 l 258
 205 804 214 812 214 829 c 258
 214 875 l 258
358 875 m 258
 358 891 349 900 333 900 c 258
 298 900 l 258
 282 900 273 891 273 875 c 258
 273 829 l 258
 273 813 281 804 298 804 c 258
 333 804 l 258
 349 804 358 812 358 829 c 258
 358 875 l 258
EndSplineSet
Refer: 168 99 N 1 0 0 1 0 0 2
PickledDataWithLists: "(dp0
Vcom.schriftgestaltung.Glyphs.lastChange
p1
V2016-06-09 18:35:34 +0000
p2
s."
EndChar

StartChar: caron
Encoding: 711 711 171
GlifName: caron
Width: 575
VWidth: 0
Flags: W
AnchorPoint: "top" 328 500 mark 0
LayerCount: 2
Fore
SplineSet
209 665 m 258
 197 652 198 639 210 630 c 258
 304 564 l 258
 323 551 341 542 364 542 c 256
 387 542 410 552 432 565 c 258
 546 630 l 258
 562 639 566 652 558 665 c 258
 544 688 l 258
 537 701 526 703 511 694 c 258
 398 623 l 258
 389 618 386 614 376 614 c 256
 366 614 363 617 356 623 c 258
 265 694 l 258
 254 703 241 701 229 688 c 258
 209 665 l 258
EndSplineSet
PickledDataWithLists: "(dp0
Vcom.schriftgestaltung.Glyphs.lastChange
p1
V2016-05-18 20:16:32 +0000
p2
s."
EndChar

StartChar: cedilla
Encoding: 184 184 175
GlifName: cedilla
Width: 575
VWidth: 0
Flags: W
AnchorPoint: "bottom" 202 0 mark 0
LayerCount: 2
Fore
SplineSet
240 -68 m 257
 271 -17 l 258
 282 1 276 12 257 13 c 257
 239 13 l 257
 225 14 215 8 207 -5 c 258
 180 -48 l 258
 172 -61 172 -72 180 -82 c 258
 204 -111 l 258
 212 -121 222 -123 235 -121 c 257
 245 -120 255 -119 263 -119 c 256
 291 -119 304 -128 304 -140 c 256
 304 -165 255 -181 207 -181 c 256
 191 -181 169 -179 149 -175 c 256
 134 -172 122 -177 115 -192 c 257
 109 -203 l 258
 101 -218 105 -230 120 -235 c 257
 147 -242 171 -246 196 -246 c 256
 294 -246 403 -199 403 -129 c 256
 403 -91 371 -61 302 -61 c 256
 284 -61 263 -63 240 -68 c 257
  PathStart: -2
EndSplineSet
PickledDataWithLists: "(dp0
Vcom.schriftgestaltung.Glyphs.lastChange
p1
V2015-12-22 16:32:40 +0000
p2
s."
EndChar

StartChar: cent
Encoding: 162 162 176
GlifName: cent
Width: 575
VWidth: 0
Flags: W
LayerCount: 2
Fore
SplineSet
225 44 m 257
 194 -153 l 258
 191 -170 199 -178 215 -178 c 258
 250 -178 l 258
 266 -178 276 -170 279 -153 c 258
 308 31 l 257
 225 44 l 257
379 480 m 257
 407 653 l 258
 410 670 402 678 386 678 c 258
 351 678 l 258
 335 678 325 670 322 653 c 258
 292 467 l 257
 379 480 l 257
EndSplineSet
Refer: 168 99 N 1 0 0 1 0 0 2
PickledDataWithLists: "(dp0
Vcom.schriftgestaltung.Glyphs.lastChange
p1
V2015-12-22 14:01:47 +0000
p2
s."
EndChar

StartChar: chi
Encoding: 967 967 177
GlifName: chi
Width: 575
VWidth: 0
Flags: W
LayerCount: 2
Fore
SplineSet
358 110 m 258
 338 197 l 257
 560 470 l 258
 574 487 569 500 549 500 c 258
 510 500 l 258
 497 500 486 495 477 484 c 258
 318 285 l 257
 313 303 l 257
 274 473 215 502 152 502 c 256
 143 502 135 501 126 501 c 256
 109 499 101 490 100 473 c 258
 100 449 l 258
 99 434 107 426 124 427 c 256
 130 428 135 428 140 428 c 256
 174 428 203 394 230 276 c 258
 248 198 l 257
 24 -81 l 258
 13 -94 13 -107 25 -116 c 258
 42 -128 l 258
 54 -137 67 -134 78 -121 c 258
 268 112 l 257
 275 83 l 258
 314 -87 373 -116 436 -116 c 256
 445 -116 453 -115 462 -115 c 256
 479 -113 487 -104 488 -87 c 258
 488 -63 l 258
 489 -47 480 -39 464 -41 c 256
 458 -42 453 -42 448 -42 c 256
 414 -42 385 -8 358 110 c 258
  PathStart: -2
EndSplineSet
PickledDataWithLists: "(dp0
Vcom.schriftgestaltung.Glyphs.lastChange
p1
V2015-12-22 12:54:05 +0000
p2
s."
EndChar

StartChar: circumflex
Encoding: 710 710 178
GlifName: circumflex
Width: 575
VWidth: 0
Flags: W
AnchorPoint: "top" 328 500 mark 0
LayerCount: 2
Fore
SplineSet
207 552 m 257
 216 540 228 538 242 547 c 258
 355 619 l 258
 364 624 368 628 378 628 c 256
 388 628 390 624 397 619 c 258
 488 547 l 258
 500 538 512 540 523 553 c 258
 544 576 l 258
 556 590 556 602 543 611 c 258
 450 677 l 258
 432 689 412 700 389 700 c 256
 366 700 345 691 322 677 c 258
 207 611 l 258
 192 602 187 590 195 576 c 258
 207 552 l 257
EndSplineSet
PickledDataWithLists: "(dp0
Vcom.schriftgestaltung.Glyphs.lastChange
p1
V2015-12-22 16:32:40 +0000
p2
s."
EndChar

StartChar: colon
Encoding: 58 58 179
GlifName: colon
Width: 575
VWidth: 0
Flags: W
LayerCount: 2
Fore
SplineSet
278 500 m 258
 261 500 251 492 249 475 c 258
 234 385 l 258
 232 369 239 360 255 360 c 258
 355 360 l 258
 371 360 382 369 384 385 c 258
 399 475 l 258
 401 492 394 500 378 500 c 258
 278 500 l 258
221 140 m 258
 204 140 194 132 192 115 c 258
 177 25 l 258
 175 9 182 0 198 0 c 258
 298 0 l 258
 314 0 325 9 327 25 c 258
 342 115 l 258
 344 132 337 140 321 140 c 258
 221 140 l 258
EndSplineSet
PickledDataWithLists: "(dp0
Vcom.schriftgestaltung.Glyphs.lastChange
p1
V2015-12-22 20:53:35 +0000
p2
s."
EndChar

StartChar: comma
Encoding: 44 44 180
GlifName: comma
Width: 575
VWidth: 0
Flags: W
LayerCount: 2
Fore
SplineSet
221 140 m 258
 204 140 194 132 192 115 c 258
 177 25 l 258
 175 9 182 0 198 0 c 258
 238 0 l 257
 220 -125 169 -171 50 -171 c 256
 34 -171 25 -180 22 -196 c 258
 18 -223 l 258
 16 -239 23 -247 39 -247 c 256
 218 -247 295 -181 323 -2 c 258
 342 115 l 258
 344 132 337 140 321 140 c 258
 221 140 l 258
EndSplineSet
PickledDataWithLists: "(dp0
Vcom.schriftgestaltung.Glyphs.lastChange
p1
V2015-12-22 20:53:49 +0000
p2
s."
EndChar

StartChar: copyright
Encoding: 169 169 181
GlifName: copyright
Width: 575
VWidth: 0
Flags: W
LayerCount: 2
Fore
SplineSet
411 468 m 258
 424 479 427 493 415 503 c 256
 394 521 365 532 335 532 c 257
 332 531 l 257
 292 531 250 513 218 484 c 256
 186 455 164 415 158 375 c 256
 151 335 161 296 184 267 c 256
 206 237 242 220 282 219 c 258
 285 219 l 258
 315 219 348 229 375 247 c 256
 390 257 391 271 381 282 c 258
 372 291 l 258
 363 302 353 301 338 293 c 256
 325 286 309 281 294 281 c 258
 293 281 l 258
 270 282 248 293 235 310 c 256
 222 328 217 352 221 375 c 256
 225 399 237 423 255 440 c 256
 274 458 300 469 323 469 c 258
 324 469 l 258
 339 469 353 465 364 458 c 256
 377 450 386 448 399 459 c 258
 411 468 l 258
92 190 m 256
 134 141 197 113 266 113 c 256
 334 113 408 141 463 190 c 256
 520 238 559 307 570 375 c 256
 581 444 563 512 522 561 c 256
 482 609 417 637 349 637 c 256
 280 637 208 609 151 561 c 256
 95 512 57 444 46 375 c 256
 35 307 52 238 92 190 c 256
  PathStart: -2
426 234 m 256
 384 197 328 176 276 176 c 256
 224 176 176 197 144 234 c 256
 113 271 100 323 108 375 c 256
 116 427 146 479 189 516 c 256
 232 553 287 575 339 575 c 256
 391 575 440 553 471 516 c 256
 502 479 515 427 507 375 c 256
 499 323 469 271 426 234 c 256
  PathStart: -2
EndSplineSet
PickledDataWithLists: "(dp0
Vcom.schriftgestaltung.Glyphs.lastChange
p1
V2015-12-22 14:24:21 +0000
p2
s."
EndChar

StartChar: currency
Encoding: 164 164 182
GlifName: currency
Width: 575
VWidth: 0
Flags: W
LayerCount: 2
Fore
SplineSet
566 442 m 258
 580 453 582 466 571 477 c 258
 551 498 l 258
 541 508 529 508 516 497 c 258
 423 417 l 257
 395 438 358 449 320 449 c 256
 281 449 241 438 204 417 c 257
 138 497 l 258
 128 508 116 508 102 497 c 258
 76 477 l 258
 62 466 60 453 69 442 c 258
 138 360 l 257
 112 327 95 289 89 250 c 256
 83 212 88 173 104 141 c 257
 9 59 l 258
 -4 47 -6 35 4 24 c 258
 24 3 l 258
 34 -8 46 -8 60 4 c 258
 152 84 l 257
 181 63 217 51 256 51 c 256
 294 51 335 63 371 84 c 257
 438 4 l 258
 447 -8 459 -8 473 3 c 258
 499 24 l 258
 514 35 516 47 506 59 c 258
 437 141 l 257
 463 173 481 212 487 250 c 256
 493 289 487 327 471 360 c 257
 566 442 l 258
165 250 m 256
 176 318 239 373 307 373 c 256
 375 373 421 318 410 250 c 256
 399 182 337 128 269 128 c 256
 201 128 154 182 165 250 c 256
  PathStart: -2
EndSplineSet
PickledDataWithLists: "(dp0
Vcom.schriftgestaltung.Glyphs.lastChange
p1
V2015-12-22 14:02:18 +0000
p2
s."
EndChar

StartChar: d
Encoding: 100 100 183
GlifName: d
Width: 575
VWidth: 0
Flags: W
AnchorPoint: "bottom" 248 0 basechar 0
AnchorPoint: "top" 439 520 basechar 0
AnchorPoint: "topright" 595 500 basechar 0
AnchorPoint: "center" 288 250 basechar 0
LayerCount: 2
Fore
SplineSet
508 750 m 258
 492 750 482 741 479 725 c 258
 445 506 l 257
 409 509 377 510 357 510 c 256
 157 510 77 380 77 190 c 256
 77 46 136 -10 212 -10 c 256
 263 -10 322 15 375 63 c 257
 369 25 l 258
 366 9 374 0 390 0 c 258
 427 0 l 258
 443 0 452 14 454 30 c 258
 564 725 l 258
 567 741 559 750 543 750 c 258
 508 750 l 258
242 66 m 256
 195 66 163 104 163 205 c 256
 163 336 209 434 345 434 c 256
 363 434 395 433 433 430 c 257
 388 151 l 257
 336 95 283 66 242 66 c 256
  PathStart: -2
EndSplineSet
PickledDataWithLists: "(dp0
Vcom.schriftgestaltung.Glyphs.lastChange
p1
V2016-06-09 18:35:33 +0000
p2
sVcom.typemytype.robofont.layerData
p3
(dp4
V(null) Nov 29 14, 21:56
p5
(dp6
Vanchors
p7
(lp8
sVcomponents
p9
(lp10
sVcontours
p11
(lp12
(dp13
Vpoints
p14
(lp15
(dp16
VsegmentType
p17
Vline
p18
sVsmooth
p19
I01
sVx
p20
I493
sVy
p21
I750
sa(dp22
g19
I00
sg20
I477
sg21
I750
sa(dp23
g19
I00
sg20
I467
sg21
I741
sa(dp24
g17
Vcurve
p25
sg19
I01
sg20
I464
sg21
I725
sa(dp26
g17
Vline
p27
sg19
I00
sg20
I430
sg21
I506
sa(dp28
g19
I00
sg20
I394
sg21
I509
sa(dp29
g19
I00
sg20
I362
sg21
I510
sa(dp30
g17
Vcurve
p31
sg19
I01
sg20
I342
sg21
I510
sa(dp32
g19
I00
sg20
I201
sg21
I510
sa(dp33
g19
I00
sg20
I103
sg21
I464
sa(dp34
g17
Vcurve
p35
sg19
I01
sg20
I69
sg21
I250
sa(dp36
g19
I00
sg20
I40
sg21
I69
sa(dp37
g19
I00
sg20
I107
sg21
I-10
sa(dp38
g17
Vcurve
p39
sg19
I01
sg20
I197
sg21
I-10
sa(dp40
g19
I00
sg20
I248
sg21
I-10
sa(dp41
g19
I00
sg20
I307
sg21
I15
sa(dp42
g17
Vcurve
p43
sg19
I00
sg20
I360
sg21
I63
sa(dp44
g17
Vline
p45
sg19
I01
sg20
I354
sg21
I25
sa(dp46
g19
I00
sg20
I351
sg21
I9
sa(dp47
g19
I00
sg20
I359
sg21
I0
sa(dp48
g17
Vcurve
p49
sg19
I01
sg20
I375
sg21
I0
sa(dp50
g17
Vline
p51
sg19
I01
sg20
I412
sg21
I0
sa(dp52
g19
I00
sg20
I428
sg21
I0
sa(dp53
g19
I00
sg20
I437
sg21
I14
sa(dp54
g17
Vcurve
p55
sg19
I01
sg20
I439
sg21
I30
sa(dp56
g17
Vline
p57
sg19
I01
sg20
I549
sg21
I725
sa(dp58
g19
I00
sg20
I552
sg21
I741
sa(dp59
g19
I00
sg20
I544
sg21
I750
sa(dp60
g17
Vcurve
p61
sg19
I01
sg20
I528
sg21
I750
sasa(dp62
g14
(lp63
(dp64
g17
Vline
p65
sg19
I00
sg20
I373
sg21
I151
sa(dp66
g19
I00
sg20
I321
sg21
I95
sa(dp67
g19
I00
sg20
I268
sg21
I66
sa(dp68
g17
Vcurve
p69
sg19
I01
sg20
I227
sg21
I66
sa(dp70
g19
I00
sg20
I169
sg21
I66
sa(dp71
g19
I00
sg20
I134
sg21
I124
sa(dp72
g17
Vcurve
p73
sg19
I01
sg20
I154
sg21
I250
sa(dp74
g19
I00
sg20
I178
sg21
I402
sa(dp75
g19
I00
sg20
I231
sg21
I434
sa(dp76
g17
Vcurve
p77
sg19
I01
sg20
I330
sg21
I434
sa(dp78
g19
I00
sg20
I348
sg21
I434
sa(dp79
g19
I00
sg20
I380
sg21
I433
sa(dp80
g17
Vcurve
p81
sg19
I00
sg20
I418
sg21
I430
sasasVlib
p82
(dp83
sVname
p84
Vd
p85
sVunicodes
p86
(lp87
sVwidth
p88
I575
ssV(null) Nov 29 14, 21:57
p89
(dp90
g7
(lp91
sg9
(lp92
sg11
(lp93
(dp94
g14
(lp95
(dp96
g17
Vline
p97
sg19
I01
sg20
I430
sg21
I750
sa(dp98
g19
I00
sg20
I414
sg21
I750
sa(dp99
g19
I00
sg20
I405
sg21
I741
sa(dp100
g17
Vcurve
p101
sg19
I01
sg20
I405
sg21
I725
sa(dp102
g17
Vline
p103
sg19
I00
sg20
I405
sg21
I506
sa(dp104
g19
I00
sg20
I369
sg21
I509
sa(dp105
g19
I00
sg20
I337
sg21
I510
sa(dp106
g17
Vcurve
p107
sg19
I01
sg20
I317
sg21
I510
sa(dp108
g19
I00
sg20
I176
sg21
I510
sa(dp109
g19
I00
sg20
I85
sg21
I464
sa(dp110
g17
Vcurve
p111
sg19
I01
sg20
I85
sg21
I250
sa(dp112
g19
I00
sg20
I85
sg21
I69
sa(dp113
g19
I00
sg20
I164
sg21
I-10
sa(dp114
g17
Vcurve
p115
sg19
I01
sg20
I254
sg21
I-10
sa(dp116
g19
I00
sg20
I305
sg21
I-10
sa(dp117
g19
I00
sg20
I360
sg21
I15
sa(dp118
g17
Vcurve
p119
sg19
I00
sg20
I405
sg21
I63
sa(dp120
g17
Vline
p121
sg19
I00
sg20
I405
sg21
I0
sa(dp122
g17
Vline
p123
sg19
I01
sg20
I467
sg21
I0
sa(dp124
g19
I00
sg20
I483
sg21
I0
sa(dp125
g19
I00
sg20
I490
sg21
I14
sa(dp126
g17
Vcurve
p127
sg19
I01
sg20
I490
sg21
I30
sa(dp128
g17
Vline
p129
sg19
I01
sg20
I490
sg21
I725
sa(dp130
g19
I00
sg20
I490
sg21
I741
sa(dp131
g19
I00
sg20
I481
sg21
I750
sa(dp132
g17
Vcurve
p133
sg19
I01
sg20
I465
sg21
I750
sasa(dp134
g14
(lp135
(dp136
g17
Vline
p137
sg19
I00
sg20
I405
sg21
I151
sa(dp138
g19
I00
sg20
I361
sg21
I95
sa(dp139
g19
I00
sg20
I313
sg21
I66
sa(dp140
g17
Vcurve
p141
sg19
I01
sg20
I272
sg21
I66
sa(dp142
g19
I00
sg20
I214
sg21
I66
sa(dp143
g19
I00
sg20
I170
sg21
I124
sa(dp144
g17
Vcurve
p145
sg19
I01
sg20
I170
sg21
I250
sa(dp146
g19
I00
sg20
I170
sg21
I402
sa(dp147
g19
I00
sg20
I218
sg21
I434
sa(dp148
g17
Vcurve
p149
sg19
I01
sg20
I317
sg21
I434
sa(dp150
g19
I00
sg20
I335
sg21
I434
sa(dp151
g19
I00
sg20
I367
sg21
I433
sa(dp152
g17
Vcurve
p153
sg19
I00
sg20
I405
sg21
I430
sasasg82
(dp154
sg84
g85
sg86
(lp155
sg88
I600
ssVRegular Italic Dec 4 14, 10:00
p156
(dp157
g7
(lp158
sg9
(lp159
sg11
(lp160
(dp161
g14
(lp162
(dp163
g17
Vline
p164
sg19
I01
sg20
I508
sg21
I750
sa(dp165
g19
I00
sg20
I492
sg21
I750
sa(dp166
g19
I00
sg20
I482
sg21
I741
sa(dp167
g17
Vcurve
p168
sg19
I01
sg20
I479
sg21
I725
sa(dp169
g17
Vline
p170
sg19
I00
sg20
I445
sg21
I506
sa(dp171
g19
I00
sg20
I409
sg21
I509
sa(dp172
g19
I00
sg20
I377
sg21
I510
sa(dp173
g17
Vcurve
p174
sg19
I01
sg20
I357
sg21
I510
sa(dp175
g19
I00
sg20
I216
sg21
I510
sa(dp176
g19
I00
sg20
I118
sg21
I464
sa(dp177
g17
Vcurve
p178
sg19
I01
sg20
I84
sg21
I250
sa(dp179
g19
I00
sg20
I55
sg21
I69
sa(dp180
g19
I00
sg20
I122
sg21
I-10
sa(dp181
g17
Vcurve
p182
sg19
I01
sg20
I212
sg21
I-10
sa(dp183
g19
I00
sg20
I271
sg21
I-10
sa(dp184
g19
I00
sg20
I342
sg21
I24
sa(dp185
g17
Vcurve
p186
sg19
I00
sg20
I401
sg21
I89
sa(dp187
g17
Vline
p188
sg19
I00
sg20
I382
sg21
I107
sa(dp189
g17
Vline
p190
sg19
I01
sg20
I369
sg21
I25
sa(dp191
g19
I00
sg20
I366
sg21
I9
sa(dp192
g19
I00
sg20
I374
sg21
I0
sa(dp193
g17
Vcurve
p194
sg19
I01
sg20
I390
sg21
I0
sa(dp195
g17
Vline
p196
sg19
I01
sg20
I427
sg21
I0
sa(dp197
g19
I00
sg20
I443
sg21
I0
sa(dp198
g19
I00
sg20
I452
sg21
I14
sa(dp199
g17
Vcurve
p200
sg19
I01
sg20
I454
sg21
I30
sa(dp201
g17
Vline
p202
sg19
I01
sg20
I564
sg21
I725
sa(dp203
g19
I00
sg20
I567
sg21
I741
sa(dp204
g19
I00
sg20
I559
sg21
I750
sa(dp205
g17
Vcurve
p206
sg19
I01
sg20
I543
sg21
I750
sasa(dp207
g14
(lp208
(dp209
g17
Vline
p210
sg19
I00
sg20
I388
sg21
I151
sa(dp211
g19
I00
sg20
I336
sg21
I95
sa(dp212
g19
I00
sg20
I283
sg21
I66
sa(dp213
g17
Vcurve
p214
sg19
I01
sg20
I242
sg21
I66
sa(dp215
g19
I00
sg20
I184
sg21
I66
sa(dp216
g19
I00
sg20
I149
sg21
I124
sa(dp217
g17
Vcurve
p218
sg19
I01
sg20
I169
sg21
I250
sa(dp219
g19
I00
sg20
I193
sg21
I402
sa(dp220
g19
I00
sg20
I246
sg21
I434
sa(dp221
g17
Vcurve
p222
sg19
I01
sg20
I345
sg21
I434
sa(dp223
g19
I00
sg20
I363
sg21
I434
sa(dp224
g19
I00
sg20
I395
sg21
I433
sa(dp225
g17
Vcurve
p226
sg19
I00
sg20
I433
sg21
I430
sasasg82
(dp227
sg84
g85
sg86
(lp228
sg88
I575
sss."
EndChar

StartChar: d.hex
Encoding: 65549 -1 184
GlifName: d.hex
Width: 575
VWidth: 0
Flags: W
LayerCount: 2
Fore
SplineSet
214 875 m 258
 214 891 205 900 189 900 c 258
 154 900 l 258
 138 900 129 891 129 875 c 258
 129 829 l 258
 129 813 137 804 154 804 c 258
 189 804 l 258
 205 804 214 812 214 829 c 258
 214 875 l 258
358 875 m 258
 358 891 349 900 333 900 c 258
 298 900 l 258
 282 900 273 891 273 875 c 258
 273 829 l 258
 273 813 281 804 298 804 c 258
 333 804 l 258
 349 804 358 812 358 829 c 258
 358 875 l 258
646 875 m 258
 646 891 637 900 621 900 c 258
 586 900 l 258
 570 900 561 891 561 875 c 258
 561 829 l 258
 561 813 569 804 586 804 c 258
 621 804 l 258
 637 804 646 812 646 829 c 258
 646 875 l 258
EndSplineSet
Refer: 183 100 N 1 0 0 1 0 0 2
PickledDataWithLists: "(dp0
Vcom.schriftgestaltung.Glyphs.lastChange
p1
V2016-06-09 18:35:34 +0000
p2
s."
EndChar

StartChar: dagger
Encoding: 8224 8224 185
GlifName: dagger
Width: 575
VWidth: 0
Flags: W
LayerCount: 2
Fore
SplineSet
574 564 m 258
 576 580 570 589 553 589 c 258
 384 589 l 257
 413 774 l 258
 416 791 409 799 392 799 c 258
 357 799 l 258
 341 799 331 790 328 774 c 258
 299 589 l 257
 130 589 l 258
 114 589 103 580 101 563 c 258
 96 537 l 258
 94 521 101 512 117 512 c 258
 286 512 l 257
 186 -124 l 258
 183 -140 191 -149 207 -149 c 258
 242 -149 l 258
 259 -149 268 -140 271 -124 c 258
 371 512 l 257
 540 512 l 258
 557 512 567 521 569 537 c 258
 574 564 l 258
EndSplineSet
PickledDataWithLists: "(dp0
Vcom.schriftgestaltung.Glyphs.lastChange
p1
V2015-12-22 14:26:24 +0000
p2
s."
EndChar

StartChar: daggerdbl
Encoding: 8225 8225 186
GlifName: daggerdbl
Width: 575
VWidth: 0
Flags: W
LayerCount: 2
Fore
SplineSet
540 512 m 258
 557 512 567 521 569 537 c 258
 574 564 l 258
 576 580 570 589 553 589 c 258
 384 589 l 257
 413 774 l 258
 416 791 409 799 392 799 c 258
 357 799 l 258
 341 799 331 790 328 774 c 258
 299 589 l 257
 130 589 l 258
 114 589 103 580 101 563 c 258
 96 537 l 258
 94 521 101 512 117 512 c 258
 286 512 l 257
 227 138 l 257
 58 138 l 258
 42 138 32 130 29 113 c 258
 25 87 l 258
 23 71 30 62 46 62 c 258
 215 62 l 257
 186 -124 l 258
 183 -140 191 -149 207 -149 c 258
 242 -149 l 258
 259 -149 268 -141 271 -124 c 258
 300 62 l 257
 469 62 l 258
 486 62 496 71 498 87 c 258
 502 113 l 258
 505 130 498 138 481 138 c 258
 312 138 l 257
 371 512 l 257
 540 512 l 258
EndSplineSet
PickledDataWithLists: "(dp0
Vcom.schriftgestaltung.Glyphs.lastChange
p1
V2015-12-22 14:32:11 +0000
p2
s."
EndChar

StartChar: degree
Encoding: 176 176 189
GlifName: degree
Width: 575
VWidth: 0
Flags: W
LayerCount: 2
Fore
SplineSet
147 498 m 256
 147 409 210 346 306 346 c 256
 422 346 517 446 517 560 c 256
 517 648 455 710 364 710 c 256
 247 710 147 615 147 498 c 256
  PathStart: -2
233 509 m 256
 233 576 285 633 349 633 c 256
 398 633 431 598 431 548 c 256
 431 483 379 423 315 423 c 256
 265 423 233 459 233 509 c 256
  PathStart: -2
EndSplineSet
PickledDataWithLists: "(dp0
Vcom.schriftgestaltung.Glyphs.lastChange
p1
V2016-05-30 08:37:06 +0000
p2
s."
EndChar

StartChar: delta
Encoding: 948 948 190
GlifName: delta
Width: 575
VWidth: 0
Flags: W
LayerCount: 2
Fore
SplineSet
144 192 m 256
 144 302 205 393 308 393 c 256
 343 393 378 389 413 382 c 257
 422 351 427 319 427 288 c 256
 427 168 372 62 255 62 c 256
 184 62 144 111 144 192 c 256
  PathStart: -2
536 623 m 258
 552 623 563 632 565 648 c 258
 569 675 l 258
 572 691 564 700 548 700 c 258
 238 700 l 258
 222 700 212 691 209 675 c 258
 204 643 l 258
 202 629 207 620 218 614 c 256
 286 573 337 522 373 467 c 257
 357 470 340 471 320 471 c 256
 157 471 58 343 58 178 c 256
 58 57 125 -15 243 -15 c 256
 413 -15 512 114 512 286 c 256
 512 400 450 528 323 623 c 257
 536 623 l 258
EndSplineSet
PickledDataWithLists: "(dp0
Vcom.schriftgestaltung.Glyphs.lastChange
p1
V2016-05-30 08:32:37 +0000
p2
s."
EndChar

StartChar: dieresis
Encoding: 168 168 191
GlifName: dieresis
Width: 575
VWidth: 0
Flags: W
AnchorPoint: "top" 328 500 mark 0
LayerCount: 2
Fore
SplineSet
324 675 m 258
 327 691 320 700 303 700 c 258
 268 700 l 258
 252 700 242 691 239 675 c 258
 232 629 l 258
 229 613 237 604 253 604 c 258
 288 604 l 258
 305 604 314 612 317 629 c 258
 324 675 l 258
531 675 m 258
 534 691 526 700 510 700 c 258
 475 700 l 258
 459 700 449 691 446 675 c 258
 439 629 l 258
 436 613 443 604 460 604 c 258
 495 604 l 258
 511 604 521 612 524 629 c 258
 531 675 l 258
EndSplineSet
PickledDataWithLists: "(dp0
Vcom.schriftgestaltung.Glyphs.lastChange
p1
V2015-12-22 16:32:41 +0000
p2
s."
EndChar

StartChar: divide
Encoding: 247 247 192
GlifName: divide
Width: 575
VWidth: 0
Flags: W
LayerCount: 2
Fore
SplineSet
367 485 m 258
 370 501 363 510 346 510 c 258
 311 510 l 258
 295 510 285 501 282 485 c 258
 275 439 l 258
 272 423 280 414 296 414 c 258
 331 414 l 258
 348 414 357 422 360 439 c 258
 367 485 l 258
300 62 m 258
 303 78 296 87 279 87 c 258
 244 87 l 258
 228 87 218 78 215 62 c 258
 208 15 l 258
 205 -2 213 -10 229 -10 c 258
 264 -10 l 258
 281 -10 290 -2 293 15 c 258
 300 62 l 258
83 237 m 258
 80 221 88 212 104 212 c 258
 459 212 l 258
 476 212 485 221 488 237 c 258
 492 264 l 258
 495 280 488 289 471 289 c 258
 116 289 l 258
 100 289 90 280 87 263 c 258
 83 237 l 258
EndSplineSet
PickledDataWithLists: "(dp0
Vcom.schriftgestaltung.Glyphs.lastChange
p1
V2015-12-22 14:06:58 +0000
p2
s."
EndChar

StartChar: dkshade
Encoding: 9619 9619 193
GlifName: dkshade
Width: 575
VWidth: 0
Flags: W
LayerCount: 2
Fore
SplineSet
0 -250 m 257
 28 -250 l 257
 0 -194 l 257
 0 -250 l 257
71 -250 m 257
 99 -250 l 257
 0 -52 l 257
 0 -108 l 257
 71 -250 l 257
142 -250 m 257
 170 -250 l 257
 0 90 l 257
 0 34 l 257
 142 -250 l 257
213 -250 m 257
 241 -250 l 257
 0 232 l 257
 0 176 l 257
 213 -250 l 257
284 -250 m 257
 312 -250 l 257
 0 374 l 257
 0 318 l 257
 284 -250 l 257
355 -250 m 257
 383 -250 l 257
 0 516 l 257
 0 460 l 257
 355 -250 l 257
426 -250 m 257
 454 -250 l 257
 0 658 l 257
 0 602 l 257
 426 -250 l 257
497 -250 m 257
 525 -250 l 257
 0 800 l 257
 0 744 l 257
 497 -250 l 257
575 -250 m 257
 575 -194 l 257
 28 900 l 257
 0 900 l 257
 575 -250 l 257
575 -108 m 257
 575 -52 l 257
 99 900 l 257
 71 900 l 257
 575 -108 l 257
575 34 m 257
 575 90 l 257
 170 900 l 257
 142 900 l 257
 575 34 l 257
575 176 m 257
 575 232 l 257
 241 900 l 257
 213 900 l 257
 575 176 l 257
575 318 m 257
 575 374 l 257
 312 900 l 257
 284 900 l 257
 575 318 l 257
575 460 m 257
 575 516 l 257
 383 900 l 257
 355 900 l 257
 575 460 l 257
575 602 m 257
 575 658 l 257
 454 900 l 257
 426 900 l 257
 575 602 l 257
575 744 m 257
 575 800 l 257
 525 900 l 257
 497 900 l 257
 575 744 l 257
EndSplineSet
PickledDataWithLists: "(dp0
Vcom.schriftgestaltung.Glyphs.lastChange
p1
V2016-06-10 08:26:49 +0000
p2
s."
EndChar

StartChar: dnblock
Encoding: 9604 9604 194
GlifName: dnblock
Width: 575
VWidth: 0
Flags: W
LayerCount: 2
Fore
SplineSet
0 -250 m 257
 575 -250 l 257
 575 325 l 257
 0 325 l 257
 0 -250 l 257
EndSplineSet
PickledDataWithLists: "(dp0
Vcom.schriftgestaltung.Glyphs.lastChange
p1
V2016-06-10 08:26:49 +0000
p2
s."
EndChar

StartChar: dollar
Encoding: 36 36 195
GlifName: dollar
Width: 575
VWidth: 0
Flags: W
LayerCount: 2
Fore
SplineSet
507 187 m 256
 507 280 436 328 303 343 c 256
 223 352 174 372 174 431 c 256
 174 502 246 534 342 534 c 256
 366 534 430 532 479 523 c 256
 495 520 506 526 512 541 c 258
 523 567 l 258
 530 583 524 594 509 598 c 257
 468 605 422 608 387 609 c 257
 413 775 l 258
 416 792 408 800 392 800 c 258
 357 800 l 258
 341 800 331 792 328 775 c 258
 302 607 l 257
 172 594 87 526 87 413 c 256
 87 315 160 280 291 266 c 256
 375 257 421 229 421 177 c 256
 421 103 333 67 230 67 c 256
 201 67 130 68 71 79 c 257
 55 81 44 75 38 59 c 258
 28 33 l 257
 22 17 27 6 43 3 c 256
 99 -7 165 -9 204 -10 c 257
 178 -175 l 258
 175 -192 183 -200 199 -200 c 258
 234 -200 l 258
 251 -200 260 -191 263 -175 c 258
 289 -6 l 257
 416 10 507 78 507 187 c 256
  PathStart: -1
EndSplineSet
PickledDataWithLists: "(dp0
Vcom.schriftgestaltung.Glyphs.lastChange
p1
V2015-12-22 14:03:19 +0000
p2
s."
EndChar

StartChar: dotaccent
Encoding: 729 729 196
GlifName: dotaccent
Width: 575
VWidth: 0
Flags: W
AnchorPoint: "top" 325 500 mark 0
LayerCount: 2
Fore
SplineSet
414 675 m 258
 417 691 410 700 393 700 c 258
 358 700 l 258
 342 700 332 691 329 675 c 258
 322 629 l 258
 319 613 327 604 343 604 c 258
 378 604 l 258
 395 604 404 612 407 629 c 258
 414 675 l 258
EndSplineSet
PickledDataWithLists: "(dp0
Vcom.schriftgestaltung.Glyphs.lastChange
p1
V2015-12-22 16:32:41 +0000
p2
s."
EndChar

StartChar: dotbelowcomb
Encoding: 803 803 197
GlifName: dotbelowcomb
Width: 575
VWidth: 0
Flags: W
LayerCount: 2
Fore
SplineSet
144 -169 m 258
 141 -185 149 -194 165 -194 c 258
 270 -194 l 258
 287 -194 296 -185 299 -169 c 258
 313 -81 l 258
 315 -65 309 -56 292 -56 c 258
 187 -56 l 258
 171 -56 160 -65 158 -81 c 258
 144 -169 l 258
EndSplineSet
PickledDataWithLists: "(dp0
Vcom.schriftgestaltung.Glyphs.lastChange
p1
V2015-12-22 14:33:09 +0000
p2
s."
EndChar

StartChar: dotlessi
Encoding: 305 305 198
GlifName: dotlessi
Width: 575
VWidth: 0
Flags: W
AnchorPoint: "ogonek" 500 10 basechar 0
AnchorPoint: "bottom" 260 0 basechar 0
AnchorPoint: "top" 340 550 basechar 0
LayerCount: 2
Fore
SplineSet
455 57 m 257
 452 72 443 77 426 74 c 257
 400 68 376 67 360 67 c 256
 321 68 305 83 305 116 c 256
 305 126 306 137 309 150 c 258
 351 350 l 258
 355 369 357 386 357 402 c 256
 357 475 313 510 227 510 c 256
 207 510 176 509 138 500 c 256
 120 496 112 484 116 469 c 257
 120 443 l 257
 123 428 132 423 149 426 c 257
 175 432 199 433 215 433 c 256
 254 432 270 417 270 384 c 256
 270 374 269 363 266 350 c 258
 224 150 l 258
 220 131 218 114 218 98 c 256
 218 25 262 -10 348 -10 c 256
 368 -10 399 -9 437 0 c 256
 455 4 463 16 459 31 c 257
 455 57 l 257
EndSplineSet
PickledDataWithLists: "(dp0
Vcom.schriftgestaltung.Glyphs.lastChange
p1
V2016-06-09 18:35:33 +0000
p2
s."
EndChar

StartChar: e
Encoding: 101 101 199
GlifName: e
Width: 575
VWidth: 0
Flags: W
AnchorPoint: "ogonek" 440 5 basechar 0
AnchorPoint: "bottom" 208 0 basechar 0
AnchorPoint: "top" 344 550 basechar 0
LayerCount: 2
Fore
SplineSet
454 77 m 258
 450 92 440 97 424 91 c 257
 376 75 340 68 299 68 c 256
 222 68 166 102 166 199 c 256
 166 210 167 223 169 237 c 257
 463 237 l 258
 479 237 489 246 492 262 c 256
 497 292 500 310 500 331 c 256
 500 448 423 510 333 510 c 256
 183 510 80 354 80 189 c 256
 80 45 176 -10 287 -10 c 256
 338 -10 391 0 442 20 c 256
 458 26 463 38 460 53 c 258
 454 77 l 258
415 314 m 257
 188 314 l 257
 207 392 269 434 322 434 c 256
 374 434 427 394 415 314 c 257
  PathStart: -2
EndSplineSet
PickledDataWithLists: "(dp0
Vcom.schriftgestaltung.Glyphs.lastChange
p1
V2016-06-09 18:35:33 +0000
p2
sVcom.typemytype.robofont.layerData
p3
(dp4
VRegular Italic Dec 1 14, 09:50
p5
(dp6
Vanchors
p7
(lp8
(dp9
Vname
p10
Vogonek
p11
sVx
p12
I479
sVy
p13
I5
sa(dp14
g10
Vbottom
p15
sg12
I248
sg13
I0
sa(dp16
g10
Vtop
p17
sg12
I336
sg13
I550
sasVcomponents
p18
(lp19
sVcontours
p20
(lp21
(dp22
Vpoints
p23
(lp24
(dp25
VsegmentType
p26
Vline
p27
sVsmooth
p28
I00
sg12
I146
sg13
I314
sa(dp29
g26
Vline
p30
sg28
I00
sg12
I171
sg13
I250
sa(dp31
g28
I00
sg12
I190
sg13
I369
sa(dp32
g28
I00
sg12
I241
sg13
I434
sa(dp33
g26
Vcurve
p34
sg28
I01
sg12
I317
sg13
I434
sa(dp35
g28
I00
sg12
I393
sg13
I434
sa(dp36
g28
I00
sg12
I424
sg13
I369
sa(dp37
g26
Vcurve
p38
sg28
I00
sg12
I405
sg13
I250
sa(dp39
g26
Vline
p40
sg28
I00
sg12
I450
sg13
I314
sasa(dp41
g23
(lp42
(dp43
g26
Vline
p44
sg28
I01
sg12
I463
sg13
I237
sa(dp45
g28
I00
sg12
I479
sg13
I237
sa(dp46
g28
I00
sg12
I489
sg13
I246
sa(dp47
g26
Vcurve
p48
sg28
I01
sg12
I492
sg13
I262
sa(dp49
g26
Vline
p50
sg28
I01
sg12
I496
sg13
I285
sa(dp51
g28
I00
sg12
I519
sg13
I431
sa(dp52
g28
I00
sg12
I460
sg13
I510
sa(dp53
g26
Vcurve
p54
sg28
I01
sg12
I329
sg13
I510
sa(dp55
g28
I00
sg12
I198
sg13
I510
sa(dp56
g28
I00
sg12
I112
sg13
I418
sa(dp57
g26
Vcurve
p58
sg28
I01
sg12
I85
sg13
I250
sa(dp59
g28
I00
sg12
I58
sg13
I82
sa(dp60
g28
I00
sg12
I109
sg13
I-10
sa(dp61
g26
Vcurve
p62
sg28
I01
sg12
I285
sg13
I-10
sa(dp63
g28
I00
sg12
I312
sg13
I-10
sa(dp64
g28
I00
sg12
I358
sg13
I-9
sa(dp65
g26
Vcurve
p66
sg28
I01
sg12
I414
sg13
I1
sa(dp67
g28
I00
sg12
I431
sg13
I4
sa(dp68
g28
I00
sg12
I440
sg13
I15
sa(dp69
g26
Vcurve
p70
sg28
I01
sg12
I438
sg13
I31
sa(dp71
g26
Vline
p72
sg28
I01
sg12
I436
sg13
I57
sa(dp73
g28
I00
sg12
I435
sg13
I73
sa(dp74
g28
I00
sg12
I426
sg13
I79
sa(dp75
g26
Vcurve
p76
sg28
I01
sg12
I409
sg13
I76
sa(dp77
g28
I00
sg12
I362
sg13
I69
sa(dp78
g28
I00
sg12
I321
sg13
I67
sa(dp79
g26
Vcurve
p80
sg28
I01
sg12
I297
sg13
I67
sa(dp81
g28
I00
sg12
I183
sg13
I67
sa(dp82
g28
I00
sg12
I151
sg13
I127
sa(dp83
g26
Vcurve
p84
sg28
I00
sg12
I168
sg13
I237
sasasVlib
p85
(dp86
sg10
Ve
p87
sVunicodes
p88
(lp89
sVwidth
p90
I575
ssVbackground
p91
(dp92
g7
(lp93
sg18
(lp94
sg20
(lp95
(dp96
g23
(lp97
(dp98
g26
Vline
p99
sg28
I00
sg12
I85
sg13
I250
sa(dp100
g28
I00
sg12
I58
sg13
I82
sa(dp101
g28
I00
sg12
I109
sg13
I-10
sa(dp102
g26
Vcurve
p103
sg28
I01
sg12
I285
sg13
I-10
sa(dp104
g28
I00
sg12
I312
sg13
I-10
sa(dp105
g28
I00
sg12
I358
sg13
I-9
sa(dp106
g26
Vcurve
p107
sg28
I01
sg12
I414
sg13
I1
sa(dp108
g28
I00
sg12
I431
sg13
I4
sa(dp109
g28
I00
sg12
I440
sg13
I15
sa(dp110
g26
Vcurve
p111
sg28
I01
sg12
I438
sg13
I31
sa(dp112
g26
Vline
p113
sg28
I01
sg12
I436
sg13
I57
sa(dp114
g28
I00
sg12
I435
sg13
I73
sa(dp115
g28
I00
sg12
I426
sg13
I79
sa(dp116
g26
Vcurve
p117
sg28
I01
sg12
I409
sg13
I76
sa(dp118
g28
I00
sg12
I362
sg13
I69
sa(dp119
g28
I00
sg12
I321
sg13
I67
sa(dp120
g26
Vcurve
p121
sg28
I01
sg12
I297
sg13
I67
sa(dp122
g28
I00
sg12
I183
sg13
I67
sa(dp123
g28
I00
sg12
I151
sg13
I127
sa(dp124
g26
Vcurve
p125
sg28
I00
sg12
I168
sg13
I237
sasa(dp126
g23
(lp127
(dp128
g26
Vline
p129
sg28
I00
sg12
I170
sg13
I250
sa(dp130
g28
I00
sg12
I186
sg13
I353
sa(dp131
g28
I00
sg12
I219
sg13
I435
sa(dp132
g26
Vcurve
p133
sg28
I01
sg12
I317
sg13
I435
sa(dp134
g28
I00
sg12
I406
sg13
I435
sa(dp135
g28
I00
sg12
I422
sg13
I360
sa(dp136
g26
Vcurve
p137
sg28
I00
sg12
I405
sg13
I250
sa(dp138
g26
Vline
p139
sg28
I00
sg12
I490
sg13
I250
sa(dp140
g28
I00
sg12
I515
sg13
I410
sa(dp141
g28
I00
sg12
I474
sg13
I512
sa(dp142
g26
Vcurve
p143
sg28
I01
sg12
I332
sg13
I512
sa(dp144
g28
I00
sg12
I182
sg13
I512
sa(dp145
g28
I00
sg12
I111
sg13
I412
sa(dp146
g26
Vcurve
p147
sg28
I00
sg12
I85
sg13
I250
sasasg85
(dp148
sg10
g87
sg88
(lp149
sg90
I575
sss."
EndChar

StartChar: e.hex
Encoding: 65550 -1 200
GlifName: e.hex
Width: 575
VWidth: 0
Flags: W
LayerCount: 2
Fore
SplineSet
214 875 m 258
 214 891 205 900 189 900 c 258
 154 900 l 258
 138 900 129 891 129 875 c 258
 129 829 l 258
 129 813 137 804 154 804 c 258
 189 804 l 258
 205 804 214 812 214 829 c 258
 214 875 l 258
502 875 m 258
 502 891 493 900 477 900 c 258
 442 900 l 258
 426 900 417 891 417 875 c 258
 417 829 l 258
 417 813 425 804 442 804 c 258
 477 804 l 258
 493 804 502 812 502 829 c 258
 502 875 l 258
358 875 m 258
 358 891 349 900 333 900 c 258
 298 900 l 258
 282 900 273 891 273 875 c 258
 273 829 l 258
 273 813 281 804 298 804 c 258
 333 804 l 258
 349 804 358 812 358 829 c 258
 358 875 l 258
EndSplineSet
Refer: 199 101 N 1 0 0 1 0 0 2
PickledDataWithLists: "(dp0
Vcom.schriftgestaltung.Glyphs.lastChange
p1
V2016-06-09 18:35:34 +0000
p2
s."
EndChar

StartChar: eight
Encoding: 56 56 207
GlifName: eight
Width: 575
VWidth: 0
Flags: W
LayerCount: 2
Fore
SplineSet
545 570 m 256
 545 656 469 710 361 710 c 256
 233 710 123 632 123 511 c 256
 123 433 172 390 229 357 c 257
 133 307 41 235 41 142 c 256
 41 48 133 -10 247 -10 c 256
 390 -10 508 64 508 192 c 256
 508 276 453 321 389 359 c 257
 472 408 545 481 545 570 c 256
  PathStart: -2
349 634 m 256
 414 634 457 600 457 553 c 256
 457 498 393 431 330 393 c 257
 257 430 210 474 210 528 c 256
 210 592 278 634 349 634 c 256
  PathStart: -1
128 157 m 256
 128 229 210 285 290 326 c 257
 359 293 422 251 422 183 c 256
 422 108 345 67 259 67 c 256
 182 67 128 99 128 157 c 256
  PathStart: -2
EndSplineSet
PickledDataWithLists: "(dp0
Vcom.schriftgestaltung.Glyphs.lastChange
p1
V2015-12-22 20:52:45 +0000
p2
s."
EndChar

StartChar: eight.dnom
Encoding: 65551 -1 208
GlifName: eight.dnom
Width: 250
VWidth: 0
Flags: W
LayerCount: 2
Fore
SplineSet
264 274 m 257
 273 332 236 365 162 365 c 257
 88 365 41 331 32 273 c 257
 24 226 45 198 74 179 c 257
 26 151 -3 123 -9 84 c 257
 -19 21 21 -15 102 -15 c 257
 184 -15 236 22 246 85 c 257
 253 131 226 159 195 181 c 257
 233 207 258 239 264 274 c 257
  PathStart: -2
153 307 m 257
 187 307 200 295 197 273 c 257
 193 251 173 230 146 209 c 257
 115 227 94 243 99 273 c 257
 102 295 120 307 153 307 c 257
  PathStart: -2
57 88 m 257
 62 114 84 131 124 151 c 257
 158 135 185 121 179 87 c 257
 175 59 154 44 111 44 c 257
 70 44 53 59 57 88 c 257
  PathStart: -2
EndSplineSet
PickledDataWithLists: "(dp0
Vcom.schriftgestaltung.Glyphs.Export
p1
I00
sVcom.schriftgestaltung.Glyphs.lastChange
p2
V2015-12-22 13:07:21 +0000
p3
s."
EndChar

StartChar: eight.hex
Encoding: 65552 -1 209
GlifName: eight.hex
Width: 575
VWidth: 0
Flags: W
LayerCount: 2
Fore
SplineSet
214 875 m 258
 214 891 205 900 189 900 c 258
 154 900 l 258
 138 900 129 891 129 875 c 258
 129 829 l 258
 129 813 137 804 154 804 c 258
 189 804 l 258
 205 804 214 812 214 829 c 258
 214 875 l 258
EndSplineSet
Refer: 207 56 N 1 0 0 1 0 0 2
PickledDataWithLists: "(dp0
Vcom.schriftgestaltung.Glyphs.lastChange
p1
V2016-02-10 13:40:53 +0000
p2
s."
EndChar

StartChar: emdash
Encoding: 8212 8212 213
GlifName: emdash
Width: 575
VWidth: 0
Flags: W
LayerCount: 2
Fore
SplineSet
-2 237 m 258
 -5 221 3 212 19 212 c 258
 544 212 l 258
 560 212 570 221 573 237 c 258
 577 264 l 258
 580 280 572 289 556 289 c 258
 31 289 l 258
 15 289 5 280 2 263 c 258
 -2 237 l 258
EndSplineSet
PickledDataWithLists: "(dp0
Vcom.schriftgestaltung.Glyphs.lastChange
p1
V2016-05-22 17:00:36 +0000
p2
s."
EndChar

StartChar: emptyset
Encoding: 8709 8709 214
GlifName: emptyset
Width: 575
VWidth: 0
Flags: W
LayerCount: 2
Fore
SplineSet
596 481 m 258
 609 493 611 505 601 516 c 258
 578 544 l 258
 568 556 556 556 543 544 c 258
 446 461 l 257
 415 486 375 500 328 500 c 256
 203 500 89 401 69 275 c 256
 62 228 68 185 86 150 c 257
 -7 70 l 258
 -19 59 -21 47 -12 35 c 258
 12 7 l 258
 22 -5 34 -5 47 7 c 258
 139 87 l 257
 170 63 210 50 256 50 c 256
 380 50 494 149 514 275 c 256
 521 320 515 362 498 397 c 257
 596 481 l 258
158 212 m 257
 151 231 149 252 153 275 c 256
 165 353 237 415 314 415 c 256
 337 415 357 409 375 399 c 257
 158 212 l 257
426 335 m 257
 432 317 433 297 430 275 c 256
 418 197 347 136 270 136 c 256
 248 136 228 140 211 149 c 257
 426 335 l 257
EndSplineSet
PickledDataWithLists: "(dp0
Vcom.schriftgestaltung.Glyphs.lastChange
p1
V2015-12-22 14:07:55 +0000
p2
s."
EndChar

StartChar: endash
Encoding: 8211 8211 215
GlifName: endash
Width: 575
VWidth: 0
Flags: W
LayerCount: 2
Fore
SplineSet
148 237 m 258
 146 221 153 212 169 212 c 258
 394 212 l 258
 410 212 421 221 423 237 c 258
 427 264 l 258
 429 280 422 289 406 289 c 258
 181 289 l 258
 165 289 155 280 152 263 c 258
 148 237 l 258
EndSplineSet
PickledDataWithLists: "(dp0
Vcom.schriftgestaltung.Glyphs.lastChange
p1
V2016-05-22 12:19:24 +0000
p2
s."
EndChar

StartChar: epsilon
Encoding: 949 949 217
GlifName: epsilon
Width: 575
VWidth: 0
Flags: W
LayerCount: 2
Fore
SplineSet
460 63 m 258
 458 78 449 84 433 82 c 257
 407 77 365 74 312 73 c 256
 205 73 150 93 150 130 c 256
 150 185 250 220 336 220 c 256
 352 220 362 229 365 245 c 258
 369 272 l 258
 371 288 364 297 348 297 c 256
 248 297 199 335 199 373 c 256
 199 427 286 444 371 444 c 256
 423 443 465 440 489 435 c 257
 504 433 515 439 522 454 c 258
 533 481 l 257
 539 497 534 509 518 511 c 257
 482 517 433 520 383 520 c 256
 244 520 112 473 112 360 c 256
 112 309 147 275 220 259 c 257
 132 240 64 197 64 116 c 256
 64 37 144 -3 300 -3 c 256
 350 -3 400 0 438 6 c 257
 455 8 463 20 463 36 c 257
 460 63 l 258
EndSplineSet
PickledDataWithLists: "(dp0
Vcom.schriftgestaltung.Glyphs.lastChange
p1
V2016-05-30 08:32:45 +0000
p2
s."
EndChar

StartChar: equal
Encoding: 61 61 218
GlifName: equal
Width: 575
VWidth: 0
Flags: W
LayerCount: 2
Fore
SplineSet
67 352 m 258
 65 336 72 327 88 327 c 258
 511 327 l 258
 528 327 538 336 540 352 c 258
 544 379 l 258
 547 395 540 404 523 404 c 258
 100 404 l 258
 84 404 74 395 71 378 c 258
 67 352 l 258
31 122 m 258
 28 106 36 97 52 97 c 258
 475 97 l 258
 492 97 501 106 504 122 c 258
 508 149 l 258
 511 165 504 174 487 174 c 258
 64 174 l 258
 48 174 38 165 35 148 c 258
 31 122 l 258
EndSplineSet
PickledDataWithLists: "(dp0
Vcom.schriftgestaltung.Glyphs.lastChange
p1
V2015-12-22 14:08:13 +0000
p2
s."
EndChar

StartChar: equivalence
Encoding: 8801 8801 219
GlifName: equivalence
Width: 575
VWidth: 0
Flags: W
LayerCount: 2
Fore
SplineSet
450 60 m 258
 467 60 476 69 479 85 c 258
 483 112 l 258
 486 128 479 137 462 137 c 258
 77 137 l 258
 61 137 51 128 48 112 c 258
 44 85 l 258
 41 69 49 60 65 60 c 258
 450 60 l 258
474 212 m 258
 491 212 500 221 503 237 c 258
 507 264 l 258
 510 280 503 289 486 289 c 258
 101 289 l 258
 85 289 75 280 72 264 c 258
 68 237 l 258
 65 221 73 212 89 212 c 258
 474 212 l 258
498 363 m 258
 515 363 524 372 527 388 c 258
 531 415 l 258
 534 431 527 440 510 440 c 258
 125 440 l 258
 109 440 99 431 96 415 c 258
 92 388 l 258
 89 372 97 363 113 363 c 258
 498 363 l 258
EndSplineSet
PickledDataWithLists: "(dp0
Vcom.schriftgestaltung.Glyphs.lastChange
p1
V2015-12-22 14:08:32 +0000
p2
s."
EndChar

StartChar: eta
Encoding: 951 951 220
GlifName: eta
Width: 575
VWidth: 0
Flags: W
LayerCount: 2
Fore
SplineSet
49 25 m 258
 47 9 54 0 70 0 c 258
 105 0 l 258
 122 0 132 9 134 25 c 258
 199 430 l 257
 244 433 283 434 307 434 c 256
 384 434 418 411 418 348 c 256
 418 336 416 323 414 308 c 258
 330 -225 l 258
 327 -241 335 -250 351 -250 c 258
 386 -250 l 258
 403 -250 412 -241 415 -225 c 258
 499 308 l 258
 502 329 504 349 504 366 c 256
 504 469 445 510 319 510 c 256
 286 510 222 509 147 498 c 256
 132 495 122 486 120 471 c 258
 49 25 l 258
EndSplineSet
PickledDataWithLists: "(dp0
Vcom.schriftgestaltung.Glyphs.lastChange
p1
V2016-05-30 08:32:52 +0000
p2
s."
EndChar

StartChar: eth
Encoding: 240 240 221
GlifName: eth
Width: 575
VWidth: 0
Flags: W
LayerCount: 2
Fore
SplineSet
591 623 m 257
 587 638 577 644 561 638 c 258
 492 614 l 257
 458 668 408 702 343 709 c 257
 327 710 316 702 313 685 c 258
 307 656 l 258
 305 640 312 632 327 631 c 257
 358 627 388 614 411 586 c 257
 319 555 l 258
 304 550 297 538 300 522 c 257
 304 498 l 257
 308 483 318 477 334 483 c 257
 443 520 l 257
 452 485 456 440 452 382 c 257
 404 419 360 429 318 429 c 256
 182 429 69 310 69 166 c 256
 69 52 149 -10 251 -10 c 256
 456 -10 539 198 539 412 c 256
 539 462 533 507 521 547 c 257
 576 566 l 258
 592 571 599 583 596 598 c 258
 591 623 l 257
156 175 m 256
 156 271 218 351 310 351 c 256
 338 351 390 349 443 297 c 257
 418 134 337 68 260 68 c 256
 204 68 156 99 156 175 c 256
  PathStart: -2
EndSplineSet
PickledDataWithLists: "(dp0
Vcom.schriftgestaltung.Glyphs.lastChange
p1
V2016-06-09 18:35:33 +0000
p2
s."
EndChar

StartChar: exclam
Encoding: 33 33 222
GlifName: exclam
Width: 575
VWidth: 0
Flags: W
LayerCount: 2
Fore
SplineSet
331 700 m 258
 315 700 305 691 302 675 c 258
 248 230 l 258
 245 214 253 205 269 205 c 258
 292 205 l 258
 308 205 318 214 322 230 c 258
 407 675 l 258
 411 691 403 700 386 700 c 258
 331 700 l 258
300 62 m 258
 303 78 296 87 279 87 c 258
 244 87 l 258
 228 87 218 78 215 62 c 258
 208 15 l 258
 205 -2 213 -10 229 -10 c 258
 264 -10 l 258
 281 -10 290 -2 293 15 c 258
 300 62 l 258
EndSplineSet
PickledDataWithLists: "(dp0
Vcom.schriftgestaltung.Glyphs.lastChange
p1
V2016-02-14 11:57:10 +0000
p2
s."
EndChar

StartChar: f
Encoding: 102 102 225
GlifName: f
Width: 575
VWidth: 0
Flags: W
LayerCount: 2
Fore
SplineSet
570 711 m 258
 578 726 576 738 561 743 c 256
 530 755 494 763 459 763 c 256
 364 763 269 710 243 549 c 258
 236 500 l 257
 140 500 l 258
 124 500 113 491 111 475 c 258
 107 449 l 258
 104 432 112 424 128 424 c 258
 224 424 l 257
 156 0 l 257
 144 -79 123 -108 56 -144 c 256
 40 -152 34 -164 41 -179 c 258
 53 -209 l 258
 59 -223 72 -226 87 -218 c 256
 192 -162 223 -119 241 0 c 257
 309 424 l 257
 473 424 l 258
 489 424 499 433 502 449 c 258
 506 475 l 258
 508 491 501 500 485 500 c 258
 322 500 l 257
 329 549 l 258
 346 657 389 685 447 685 c 256
 472 685 494 681 520 671 c 256
 534 665 546 670 555 685 c 258
 570 711 l 258
384 231 m 1281
EndSplineSet
PickledDataWithLists: "(dp0
Vcom.schriftgestaltung.Glyphs.lastChange
p1
V2016-06-09 18:35:33 +0000
p2
s."
EndChar

StartChar: f.hex
Encoding: 65557 -1 226
GlifName: f.hex
Width: 575
VWidth: 0
Flags: W
LayerCount: 2
Fore
SplineSet
214 875 m 258
 214 891 205 900 189 900 c 258
 154 900 l 258
 138 900 129 891 129 875 c 258
 129 829 l 258
 129 813 137 804 154 804 c 258
 189 804 l 258
 205 804 214 812 214 829 c 258
 214 875 l 258
502 875 m 258
 502 891 493 900 477 900 c 258
 442 900 l 258
 426 900 417 891 417 875 c 258
 417 829 l 258
 417 813 425 804 442 804 c 258
 477 804 l 258
 493 804 502 812 502 829 c 258
 502 875 l 258
358 875 m 258
 358 891 349 900 333 900 c 258
 298 900 l 258
 282 900 273 891 273 875 c 258
 273 829 l 258
 273 813 281 804 298 804 c 258
 333 804 l 258
 349 804 358 812 358 829 c 258
 358 875 l 258
646 875 m 258
 646 891 637 900 621 900 c 258
 586 900 l 258
 570 900 561 891 561 875 c 258
 561 829 l 258
 561 813 569 804 586 804 c 258
 621 804 l 258
 637 804 646 812 646 829 c 258
 646 875 l 258
EndSplineSet
Refer: 225 102 N 1 0 0 1 0 0 2
PickledDataWithLists: "(dp0
Vcom.schriftgestaltung.Glyphs.lastChange
p1
V2016-06-09 18:35:34 +0000
p2
s."
EndChar

StartChar: five
Encoding: 53 53 227
GlifName: five
Width: 575
VWidth: 0
Flags: W
LayerCount: 2
Fore
SplineSet
239 431 m 257
 284 624 l 257
 490 624 l 257
 507 624 517 633 519 649 c 257
 523 675 l 257
 526 692 519 700 502 700 c 257
 247 700 l 257
 231 700 220 692 217 677 c 257
 149 389 l 257
 145 373 151 363 167 361 c 257
 215 354 l 257
 279 354 l 257
 361 354 404 318 404 236 c 256
 404 135 339 68 217 68 c 257
 181 68 149 72 120 79 c 257
 105 83 93 78 86 63 c 257
 74 35 l 257
 68 20 71 8 86 4 c 257
 122 -5 163 -10 205 -10 c 257
 387 -10 491 88 491 254 c 256
 491 375 424 431 292 431 c 257
 239 431 l 257
EndSplineSet
PickledDataWithLists: "(dp0
Vcom.schriftgestaltung.Glyphs.lastChange
p1
V2015-12-22 20:52:19 +0000
p2
s."
EndChar

StartChar: five.dnom
Encoding: 65558 -1 228
GlifName: five.dnom
Width: 250
VWidth: 0
Flags: W
LayerCount: 2
Fore
SplineSet
101 216 m 257
 128 302 l 257
 229 302 l 258
 244 302 255 314 257 325 c 258
 259 338 l 258
 261 350 252 360 238 360 c 258
 101 360 l 258
 90 360 76 352 72 340 c 258
 35 215 l 258
 32 206 34 198 40 191 c 257
 58 167 l 257
 62 162 70 157 80 157 c 258
 112 157 l 258
 156 157 174 139 168 101 c 256
 162 63 137 44 90 44 c 256
 73 44 59 46 45 50 c 256
 33 53 17 45 12 35 c 258
 6 21 l 258
 1 9 6 -4 19 -8 c 256
 37 -13 59 -15 81 -15 c 256
 168 -15 224 27 235 101 c 256
 247 174 206 216 122 216 c 258
 101 216 l 257
EndSplineSet
PickledDataWithLists: "(dp0
Vcom.schriftgestaltung.Glyphs.Export
p1
I00
sVcom.schriftgestaltung.Glyphs.lastChange
p2
V2015-12-22 13:06:15 +0000
p3
s."
EndChar

StartChar: five.hex
Encoding: 65559 -1 229
GlifName: five.hex
Width: 575
VWidth: 0
Flags: W
LayerCount: 2
Fore
SplineSet
358 875 m 258
 358 891 349 900 333 900 c 258
 298 900 l 258
 282 900 273 891 273 875 c 258
 273 829 l 258
 273 813 281 804 298 804 c 258
 333 804 l 258
 349 804 358 812 358 829 c 258
 358 875 l 258
646 875 m 258
 646 891 637 900 621 900 c 258
 586 900 l 258
 570 900 561 891 561 875 c 258
 561 829 l 258
 561 813 569 804 586 804 c 258
 621 804 l 258
 637 804 646 812 646 829 c 258
 646 875 l 258
EndSplineSet
Refer: 227 53 N 1 0 0 1 0 0 2
PickledDataWithLists: "(dp0
Vcom.schriftgestaltung.Glyphs.lastChange
p1
V2016-02-10 13:20:16 +0000
p2
s."
EndChar

StartChar: florin
Encoding: 402 402 232
GlifName: florin
Width: 575
VWidth: 0
Flags: W
LayerCount: 2
Fore
SplineSet
536 719 m 258
 543 736 538 746 522 749 c 256
 473 758 429 760 401 760 c 256
 285 760 227 716 207 599 c 258
 190 500 l 257
 94 500 l 258
 78 500 68 491 65 475 c 258
 60 449 l 258
 57 432 65 424 81 424 c 258
 176 424 l 257
 88 -75 l 258
 86 -92 93 -100 109 -100 c 258
 144 -100 l 258
 160 -100 171 -92 173 -75 c 258
 261 424 l 257
 425 424 l 258
 442 424 452 433 455 449 c 258
 459 475 l 258
 462 491 455 500 439 500 c 258
 275 500 l 257
 292 599 l 258
 304 665 328 684 388 684 c 256
 409 684 447 682 492 674 c 256
 507 672 519 678 525 693 c 258
 536 719 l 258
EndSplineSet
PickledDataWithLists: "(dp0
Vcom.schriftgestaltung.Glyphs.lastChange
p1
V2015-12-22 12:14:05 +0000
p2
s."
EndChar

StartChar: four
Encoding: 52 52 233
GlifName: four
Width: 575
VWidth: 0
Flags: W
LayerCount: 2
Fore
SplineSet
426 221 m 257
 453 392 l 258
 456 408 448 417 432 417 c 258
 397 417 l 258
 381 417 371 408 368 392 c 258
 341 221 l 257
 160 221 l 257
 457 670 l 258
 468 688 462 700 442 700 c 258
 406 700 l 258
 386 700 376 694 366 677 c 258
 78 240 l 258
 72 230 68 221 67 209 c 258
 60 169 l 258
 58 153 64 145 80 145 c 258
 329 145 l 257
 310 25 l 258
 308 9 314 0 330 0 c 258
 365 0 l 258
 382 0 392 9 394 25 c 258
 413 145 l 257
 468 145 l 258
 485 145 495 154 497 170 c 258
 501 196 l 258
 504 212 497 221 480 221 c 258
 426 221 l 257
EndSplineSet
PickledDataWithLists: "(dp0
Vcom.schriftgestaltung.Glyphs.lastChange
p1
V2015-12-22 20:52:10 +0000
p2
s."
EndChar

StartChar: four.dnom
Encoding: 65561 -1 234
GlifName: four.dnom
Width: 250
VWidth: 0
Flags: W
LayerCount: 2
Fore
SplineSet
208 121 m 257
 219 196 l 257
 221 208 212 219 198 219 c 257
 181 219 l 257
 168 219 154 208 152 196 c 257
 141 121 l 257
 81 121 l 257
 218 331 l 257
 228 344 220 360 203 360 c 257
 185 360 l 257
 172 360 160 353 153 343 c 257
 9 124 l 257
 9 124 l 257
 5 118 3 112 2 105 c 257
 -1 85 l 257
 -3 73 6 63 19 63 c 257
 131 63 l 257
 123 13 l 257
 122 2 129 -10 144 -10 c 257
 162 -10 l 257
 176 -10 188 2 189 13 c 257
 197 63 l 257
 213 63 l 257
 227 63 239 73 241 85 c 257
 243 98 l 257
 245 109 237 121 223 121 c 257
 208 121 l 257
EndSplineSet
PickledDataWithLists: "(dp0
Vcom.schriftgestaltung.Glyphs.Export
p1
I00
sVcom.schriftgestaltung.Glyphs.lastChange
p2
V2015-12-22 13:05:53 +0000
p3
s."
EndChar

StartChar: four.hex
Encoding: 65562 -1 235
GlifName: four.hex
Width: 575
VWidth: 0
Flags: W
LayerCount: 2
Fore
SplineSet
358 875 m 258
 358 891 349 900 333 900 c 258
 298 900 l 258
 282 900 273 891 273 875 c 258
 273 829 l 258
 273 813 281 804 298 804 c 258
 333 804 l 258
 349 804 358 812 358 829 c 258
 358 875 l 258
EndSplineSet
Refer: 233 52 N 1 0 0 1 0 0 2
PickledDataWithLists: "(dp0
Vcom.schriftgestaltung.Glyphs.lastChange
p1
V2016-02-10 13:19:53 +0000
p2
s."
EndChar

StartChar: g
Encoding: 103 103 238
GlifName: g
Width: 575
VWidth: 0
Flags: W
AnchorPoint: "top" 338 550 basechar 0
AnchorPoint: "bottom" 248 0 basechar 0
LayerCount: 2
Fore
SplineSet
359 -39 m 257
 342 -147 296 -175 222 -175 c 256
 185 -175 140 -168 88 -160 c 256
 72 -158 60 -166 57 -181 c 258
 52 -207 l 258
 48 -225 51 -234 68 -236 c 256
 122 -242 173 -250 221 -250 c 256
 330 -250 415 -212 443 -38 c 257
 522 471 l 257
 524 487 517 497 501 500 c 257
 440 508 386 510 357 510 c 256
 157 510 77 380 77 190 c 256
 77 46 136 -10 212 -10 c 256
 263 -10 322 15 375 63 c 257
 359 -39 l 257
388 151 m 257
 336 95 283 66 242 66 c 256
 195 66 163 104 163 205 c 256
 163 336 209 434 345 434 c 256
 363 434 395 433 433 430 c 257
 388 151 l 257
EndSplineSet
PickledDataWithLists: "(dp0
Vcom.schriftgestaltung.Glyphs.lastChange
p1
V2016-06-09 18:35:33 +0000
p2
sVcom.typemytype.robofont.layerData
p3
(dp4
Vbackground
p5
(dp6
Vanchors
p7
(lp8
sVcomponents
p9
(lp10
sVcontours
p11
(lp12
(dp13
Vpoints
p14
(lp15
(dp16
VsegmentType
p17
Vline
p18
sVsmooth
p19
I00
sVx
p20
I365
sVy
p21
I0
sa(dp22
g17
Vline
p23
sg19
I01
sg20
I351
sg21
I-89
sa(dp24
g19
I00
sg20
I341
sg21
I-154
sa(dp25
g19
I00
sg20
I317
sg21
I-174
sa(dp26
g17
Vcurve
p27
sg19
I01
sg20
I258
sg21
I-174
sa(dp28
g19
I00
sg20
I237
sg21
I-174
sa(dp29
g19
I00
sg20
I199
sg21
I-172
sa(dp30
g17
Vcurve
p31
sg19
I00
sg20
I154
sg21
I-164
sa(dp32
g19
I00
sg20
I138
sg21
I-162
sa(dp33
g19
I00
sg20
I127
sg21
I-168
sa(dp34
g17
Vcurve
p35
sg19
I01
sg20
I121
sg21
I-183
sa(dp36
g17
Vline
p37
sg19
I01
sg20
I111
sg21
I-209
sa(dp38
g19
I00
sg20
I104
sg21
I-226
sa(dp39
g19
I00
sg20
I109
sg21
I-236
sa(dp40
g17
Vcurve
p41
sg19
I01
sg20
I125
sg21
I-239
sa(dp42
g19
I00
sg20
I174
sg21
I-248
sa(dp43
g19
I00
sg20
I218
sg21
I-250
sa(dp44
g17
Vcurve
p45
sg19
I01
sg20
I246
sg21
I-250
sa(dp46
g19
I00
sg20
I362
sg21
I-250
sa(dp47
g19
I00
sg20
I416
sg21
I-205
sa(dp48
g17
Vcurve
p49
sg19
I01
sg20
I435
sg21
I-88
sa(dp50
g17
Vline
p51
sg19
I00
sg20
I451
sg21
I10
sa(dp52
g17
Vline
p53
sg19
I01
sg20
I522
sg21
I471
sa(dp54
g19
I00
sg20
I524
sg21
I487
sa(dp55
g19
I00
sg20
I517
sg21
I497
sa(dp56
g17
Vcurve
p57
sg19
I00
sg20
I501
sg21
I500
sa(dp58
g19
I00
sg20
I440
sg21
I508
sa(dp59
g19
I00
sg20
I386
sg21
I510
sa(dp60
g17
Vcurve
p61
sg19
I01
sg20
I357
sg21
I510
sa(dp62
g19
I00
sg20
I216
sg21
I510
sa(dp63
g19
I00
sg20
I118
sg21
I464
sa(dp64
g17
Vcurve
p65
sg19
I01
sg20
I84
sg21
I250
sa(dp66
g19
I00
sg20
I55
sg21
I69
sa(dp67
g19
I00
sg20
I122
sg21
I-10
sa(dp68
g17
Vcurve
p69
sg19
I01
sg20
I212
sg21
I-10
sa(dp70
g19
I00
sg20
I263
sg21
I-10
sa(dp71
g19
I00
sg20
I322
sg21
I15
sa(dp72
g17
Vcurve
p73
sg19
I00
sg20
I375
sg21
I63
sasa(dp74
g14
(lp75
(dp76
g17
Vline
p77
sg19
I00
sg20
I388
sg21
I151
sa(dp78
g19
I00
sg20
I336
sg21
I95
sa(dp79
g19
I00
sg20
I283
sg21
I66
sa(dp80
g17
Vcurve
p81
sg19
I01
sg20
I242
sg21
I66
sa(dp82
g19
I00
sg20
I184
sg21
I66
sa(dp83
g19
I00
sg20
I149
sg21
I124
sa(dp84
g17
Vcurve
p85
sg19
I01
sg20
I169
sg21
I250
sa(dp86
g19
I00
sg20
I193
sg21
I402
sa(dp87
g19
I00
sg20
I246
sg21
I434
sa(dp88
g17
Vcurve
p89
sg19
I01
sg20
I345
sg21
I434
sa(dp90
g19
I00
sg20
I363
sg21
I434
sa(dp91
g19
I00
sg20
I395
sg21
I433
sa(dp92
g17
Vcurve
p93
sg19
I00
sg20
I433
sg21
I430
sasasVlib
p94
(dp95
sVname
p96
Vg
p97
sVunicodes
p98
(lp99
sVwidth
p100
I575
sss."
EndChar

StartChar: gamma
Encoding: 947 947 239
GlifName: gamma
Width: 575
VWidth: 0
Flags: W
LayerCount: 2
Fore
SplineSet
101 472 m 258
 146 -21 l 258
 153 -103 155 -178 152 -226 c 256
 150 -242 157 -250 173 -250 c 258
 201 -250 l 258
 217 -250 227 -241 230 -225 c 256
 237 -158 239 -78 232 -10 c 257
 245 -10 l 258
 310 -10 358 22 382 80 c 258
 542 472 l 258
 549 490 543 500 525 500 c 258
 489 500 l 258
 474 500 463 493 458 479 c 258
 300 93 l 258
 293 74 277 63 256 63 c 258
 225 63 l 257
 187 479 l 258
 185 493 178 500 163 500 c 258
 127 500 l 258
 110 500 99 489 101 472 c 258
  PathStart: -2
EndSplineSet
PickledDataWithLists: "(dp0
Vcom.schriftgestaltung.Glyphs.lastChange
p1
V2016-05-30 08:32:29 +0000
p2
s."
EndChar

StartChar: germandbls
Encoding: 223 223 241
GlifName: germandbls
Width: 575
VWidth: 0
Flags: W
AnchorPoint: "top" 340 500 basechar 0
AnchorPoint: "bottom" 260 0 basechar 0
LayerCount: 2
Fore
SplineSet
226 494 m 258
 239 581 284 624 353 624 c 256
 410 624 440 599 440 552 c 256
 440 517 422 499 397 468 c 256
 369 434 334 394 334 349 c 256
 334 315 357 297 380 279 c 256
 402 260 425 242 425 209 c 256
 425 129 355 84 262 78 c 256
 245 76 235 68 233 52 c 258
 229 26 l 258
 226 9 233 0 251 1 c 256
 393 8 506 84 506 216 c 256
 506 264 477 291 453 314 c 256
 436 331 421 345 421 365 c 256
 421 385 440 407 456 427 c 256
 493 472 522 513 522 575 c 256
 522 656 468 700 365 700 c 256
 241 700 162 631 141 494 c 258
 66 25 l 258
 64 9 71 0 87 0 c 258
 122 0 l 258
 139 0 149 9 151 25 c 258
 226 494 l 258
EndSplineSet
PickledDataWithLists: "(dp0
Vcom.schriftgestaltung.Glyphs.lastChange
p1
V2016-06-09 18:35:34 +0000
p2
s."
EndChar

StartChar: grave
Encoding: 96 96 242
GlifName: grave
Width: 575
VWidth: 0
Flags: W
AnchorPoint: "top" 328 500 mark 0
LayerCount: 2
Fore
SplineSet
470 595 m 258
 277 696 l 258
 263 703 250 699 242 684 c 258
 212 638 l 258
 203 623 206 611 221 606 c 258
 432 531 l 258
 445 526 456 530 467 544 c 257
 478 562 l 257
 486 577 484 588 470 595 c 258
  PathStart: -2
EndSplineSet
PickledDataWithLists: "(dp0
Vcom.schriftgestaltung.Glyphs.lastChange
p1
V2015-12-22 16:32:42 +0000
p2
s."
EndChar

StartChar: greater
Encoding: 62 62 243
GlifName: greater
Width: 575
VWidth: 0
Flags: W
LayerCount: 2
Fore
SplineSet
183 562 m 258
 173 571 160 571 148 558 c 258
 125 535 l 258
 113 522 112 510 124 500 c 258
 416 250 l 257
 44 0 l 258
 30 -10 27 -22 35 -35 c 258
 50 -58 l 258
 58 -71 72 -71 86 -62 c 258
 448 182 l 258
 477 201 496 226 500 250 c 256
 504 274 493 299 470 318 c 258
 183 562 l 258
EndSplineSet
PickledDataWithLists: "(dp0
Vcom.schriftgestaltung.Glyphs.lastChange
p1
V2016-06-09 12:12:14 +0000
p2
s."
EndChar

StartChar: greaterequal
Encoding: 8805 8805 244
GlifName: greaterequal
Width: 575
VWidth: 0
Flags: W
LayerCount: 2
Fore
SplineSet
15 25 m 258
 13 9 20 0 36 0 c 258
 459 0 l 258
 476 0 486 9 488 25 c 258
 493 52 l 258
 495 68 489 77 472 77 c 258
 49 77 l 258
 33 77 22 68 20 52 c 258
 15 25 l 258
176 645 m 258
 163 652 150 649 141 635 c 258
 123 610 l 258
 113 596 115 584 128 576 c 258
 452 400 l 257
 72 224 l 258
 57 217 51 205 56 190 c 258
 67 166 l 258
 71 152 83 148 98 155 c 258
 470 328 l 258
 513 347 540 373 544 400 c 256
 548 425 533 451 493 473 c 258
 176 645 l 258
EndSplineSet
PickledDataWithLists: "(dp0
Vcom.schriftgestaltung.Glyphs.lastChange
p1
V2015-12-22 14:10:07 +0000
p2
s."
EndChar

StartChar: guillemotleft
Encoding: 171 171 245
GlifName: guillemotleft
Width: 575
VWidth: 0
Flags: W
LayerCount: 2
Fore
SplineSet
114 250 m 257
 331 437 l 258
 344 449 346 462 335 473 c 258
 315 493 l 258
 305 504 293 504 279 492 c 258
 75 316 l 258
 53 297 34 277 30 250 c 256
 26 223 39 204 55 185 c 258
 203 8 l 258
 213 -3 225 -3 239 7 c 258
 265 28 l 258
 279 39 281 52 271 63 c 258
 114 250 l 257
350 250 m 257
 567 437 l 258
 581 449 583 462 571 473 c 258
 551 493 l 258
 541 504 529 504 516 492 c 258
 311 316 l 258
 289 297 270 277 266 250 c 256
 262 223 275 204 291 185 c 258
 440 8 l 258
 449 -3 461 -3 475 7 c 258
 501 28 l 258
 516 39 518 52 507 63 c 258
 350 250 l 257
EndSplineSet
PickledDataWithLists: "(dp0
Vcom.schriftgestaltung.Glyphs.lastChange
p1
V2015-12-22 13:55:11 +0000
p2
s."
EndChar

StartChar: guilsinglleft
Encoding: 8249 8249 247
GlifName: guilsinglleft
Width: 575
VWidth: 0
Flags: W
LayerCount: 2
Fore
SplineSet
232 250 m 257
 449 437 l 258
 463 449 465 462 453 473 c 258
 433 493 l 258
 423 504 411 504 398 492 c 258
 193 316 l 258
 163 290 147 267 147 242 c 256
 147 224 156 206 173 185 c 258
 322 8 l 258
 331 -3 343 -3 357 7 c 258
 383 28 l 258
 398 39 400 52 389 63 c 258
 232 250 l 257
EndSplineSet
PickledDataWithLists: "(dp0
Vcom.schriftgestaltung.Glyphs.lastChange
p1
V2015-12-22 13:57:17 +0000
p2
s."
EndChar

StartChar: h
Encoding: 104 104 249
GlifName: h
Width: 575
VWidth: 0
Flags: W
AnchorPoint: "center" 288 250 basechar 0
AnchorPoint: "top" 408 620 basechar 0
LayerCount: 2
Fore
SplineSet
245 725 m 258
 248 741 240 750 224 750 c 258
 187 750 l 258
 171 750 162 736 159 720 c 258
 49 25 l 258
 47 9 54 0 70 0 c 258
 105 0 l 258
 121 0 132 9 134 25 c 258
 186 349 l 257
 239 405 291 434 343 434 c 256
 381 434 415 421 415 344 c 256
 415 326 413 304 409 278 c 258
 369 25 l 258
 367 9 374 0 390 0 c 258
 425 0 l 258
 442 0 452 9 454 25 c 258
 494 278 l 258
 499 309 501 336 501 359 c 256
 501 481 439 510 372 510 c 256
 311 510 252 485 200 437 c 257
 245 725 l 258
EndSplineSet
PickledDataWithLists: "(dp0
Vcom.schriftgestaltung.Glyphs.lastChange
p1
V2016-06-09 18:35:33 +0000
p2
s."
EndChar

StartChar: heart
Encoding: 9829 9829 251
GlifName: heart
Width: 575
VWidth: 0
Flags: W
LayerCount: 2
Fore
SplineSet
175 530 m 256
 96 530 36 462 36 373 c 256
 36 255 126 124 288 -20 c 257
 445 120 540 251 540 373 c 256
 540 457 481 530 400 530 c 256
 351 530 308 499 288 460 c 257
 268 499 226 530 175 530 c 256
  PathStart: -2
EndSplineSet
PickledDataWithLists: "(dp0
Vcom.schriftgestaltung.Glyphs.lastChange
p1
V2016-06-10 08:28:00 +0000
p2
s."
Comment: "+AAoA    heart+AAoA  "
EndChar

StartChar: hungarumlaut
Encoding: 733 733 252
GlifName: hungarumlaut
Width: 575
VWidth: 0
Flags: W
AnchorPoint: "top" 331 500 mark 0
LayerCount: 2
Fore
SplineSet
359 691 m 258
 349 703 337 702 324 690 c 258
 216 588 l 258
 203 576 201 564 210 553 c 258
 227 533 l 258
 236 522 248 521 262 532 c 258
 379 624 l 258
 393 635 395 648 386 659 c 258
 359 691 l 258
588 691 m 258
 578 703 566 702 553 690 c 258
 444 588 l 258
 431 576 430 564 439 553 c 258
 456 533 l 258
 465 522 477 521 491 532 c 258
 607 624 l 258
 621 635 624 648 614 659 c 258
 588 691 l 258
EndSplineSet
PickledDataWithLists: "(dp0
Vcom.schriftgestaltung.Glyphs.lastChange
p1
V2015-12-22 16:32:42 +0000
p2
s."
EndChar

StartChar: hyphen
Encoding: 45 45 253
GlifName: hyphen
Width: 575
VWidth: 0
Flags: W
LayerCount: 2
Fore
SplineSet
50 237 m 258
 47 221 55 212 71 212 c 258
 494 212 l 258
 510 212 520 221 523 237 c 258
 527 264 l 258
 530 280 522 289 506 289 c 258
 83 289 l 258
 67 289 57 280 54 263 c 258
 50 237 l 258
EndSplineSet
PickledDataWithLists: "(dp0
Vcom.schriftgestaltung.Glyphs.lastChange
p1
V2015-12-22 16:32:53 +0000
p2
s."
EndChar

StartChar: i
Encoding: 105 105 254
GlifName: i
Width: 575
VWidth: 0
Flags: W
LayerCount: 2
Fore
SplineSet
377 644 m 258
 394 644 404 653 406 669 c 258
 417 735 l 258
 420 752 412 760 396 760 c 258
 331 760 l 258
 315 760 304 751 302 735 c 258
 291 669 l 258
 289 653 296 644 312 644 c 258
 377 644 l 258
EndSplineSet
Refer: 198 305 N 1 0 0 1 0 0 2
PickledDataWithLists: "(dp0
Vcom.schriftgestaltung.Glyphs.lastChange
p1
V2016-06-09 18:35:33 +0000
p2
sVcom.typemytype.robofont.layerData
p3
(dp4
VRegular Italic Nov 30 14, 09:18
p5
(dp6
Vanchors
p7
(lp8
sVcomponents
p9
(lp10
sVcontours
p11
(lp12
(dp13
Vpoints
p14
(lp15
(dp16
VsegmentType
p17
Vline
p18
sVsmooth
p19
I01
sVx
p20
I305
sVy
p21
I644
sa(dp22
g19
I00
sg20
I322
sg21
I644
sa(dp23
g19
I00
sg20
I330
sg21
I653
sa(dp24
g17
Vcurve
p25
sg19
I01
sg20
I330
sg21
I669
sa(dp26
g17
Vline
p27
sg19
I01
sg20
I330
sg21
I735
sa(dp28
g19
I00
sg20
I330
sg21
I752
sa(dp29
g19
I00
sg20
I321
sg21
I760
sa(dp30
g17
Vcurve
p31
sg19
I01
sg20
I305
sg21
I760
sa(dp32
g17
Vline
p33
sg19
I01
sg20
I240
sg21
I760
sa(dp34
g19
I00
sg20
I224
sg21
I760
sa(dp35
g19
I00
sg20
I215
sg21
I751
sa(dp36
g17
Vcurve
p37
sg19
I01
sg20
I215
sg21
I735
sa(dp38
g17
Vline
p39
sg19
I01
sg20
I215
sg21
I669
sa(dp40
g19
I00
sg20
I215
sg21
I653
sa(dp41
g19
I00
sg20
I224
sg21
I644
sa(dp42
g17
Vcurve
p43
sg19
I01
sg20
I240
sg21
I644
sasa(dp44
g14
(lp45
(dp46
g17
Vline
p47
sg19
I00
sg20
I486
sg21
I57
sa(dp48
g19
I00
sg20
I480
sg21
I72
sa(dp49
g19
I00
sg20
I470
sg21
I77
sa(dp50
g17
Vcurve
p51
sg19
I00
sg20
I454
sg21
I74
sa(dp52
g19
I00
sg20
I429
sg21
I68
sa(dp53
g19
I00
sg20
I405
sg21
I67
sa(dp54
g17
Vcurve
p55
sg19
I01
sg20
I389
sg21
I67
sa(dp56
g19
I00
sg20
I339
sg21
I68
sa(dp57
g19
I00
sg20
I330
sg21
I91
sa(dp58
g17
Vcurve
p59
sg19
I01
sg20
I330
sg21
I150
sa(dp60
g17
Vline
p61
sg19
I01
sg20
I330
sg21
I350
sa(dp62
g19
I00
sg20
I330
sg21
I460
sa(dp63
g19
I00
sg20
I290
sg21
I510
sa(dp64
g17
Vcurve
p65
sg19
I01
sg20
I186
sg21
I510
sa(dp66
g19
I00
sg20
I166
sg21
I510
sa(dp67
g19
I00
sg20
I135
sg21
I509
sa(dp68
g17
Vcurve
p69
sg19
I01
sg20
I98
sg21
I500
sa(dp70
g19
I00
sg20
I81
sg21
I496
sa(dp71
g19
I00
sg20
I75
sg21
I484
sa(dp72
g17
Vcurve
p73
sg19
I00
sg20
I81
sg21
I469
sa(dp74
g17
Vline
p75
sg19
I00
sg20
I89
sg21
I443
sa(dp76
g19
I00
sg20
I95
sg21
I428
sa(dp77
g19
I00
sg20
I105
sg21
I423
sa(dp78
g17
Vcurve
p79
sg19
I00
sg20
I121
sg21
I426
sa(dp80
g19
I00
sg20
I146
sg21
I432
sa(dp81
g19
I00
sg20
I170
sg21
I433
sa(dp82
g17
Vcurve
p83
sg19
I01
sg20
I186
sg21
I433
sa(dp84
g19
I00
sg20
I236
sg21
I432
sa(dp85
g19
I00
sg20
I245
sg21
I409
sa(dp86
g17
Vcurve
p87
sg19
I01
sg20
I245
sg21
I350
sa(dp88
g17
Vline
p89
sg19
I01
sg20
I245
sg21
I150
sa(dp90
g19
I00
sg20
I245
sg21
I40
sa(dp91
g19
I00
sg20
I285
sg21
I-10
sa(dp92
g17
Vcurve
p93
sg19
I01
sg20
I389
sg21
I-10
sa(dp94
g19
I00
sg20
I409
sg21
I-10
sa(dp95
g19
I00
sg20
I440
sg21
I-9
sa(dp96
g17
Vcurve
p97
sg19
I01
sg20
I477
sg21
I0
sa(dp98
g19
I00
sg20
I494
sg21
I4
sa(dp99
g19
I00
sg20
I500
sg21
I16
sa(dp100
g17
Vcurve
p101
sg19
I00
sg20
I494
sg21
I31
sasasVlib
p102
(dp103
sVname
p104
Vi
p105
sVunicodes
p106
(lp107
sVwidth
p108
I600
ssVRegular Italic Nov 30 14, 09:19
p109
(dp110
g7
(lp111
sg9
(lp112
sg11
(lp113
(dp114
g14
(lp115
(dp116
g17
Vline
p117
sg19
I01
sg20
I305
sg21
I644
sa(dp118
g19
I00
sg20
I322
sg21
I644
sa(dp119
g19
I00
sg20
I330
sg21
I653
sa(dp120
g17
Vcurve
p121
sg19
I01
sg20
I330
sg21
I669
sa(dp122
g17
Vline
p123
sg19
I01
sg20
I330
sg21
I735
sa(dp124
g19
I00
sg20
I330
sg21
I752
sa(dp125
g19
I00
sg20
I321
sg21
I760
sa(dp126
g17
Vcurve
p127
sg19
I01
sg20
I305
sg21
I760
sa(dp128
g17
Vline
p129
sg19
I01
sg20
I240
sg21
I760
sa(dp130
g19
I00
sg20
I224
sg21
I760
sa(dp131
g19
I00
sg20
I215
sg21
I751
sa(dp132
g17
Vcurve
p133
sg19
I01
sg20
I215
sg21
I735
sa(dp134
g17
Vline
p135
sg19
I01
sg20
I215
sg21
I669
sa(dp136
g19
I00
sg20
I215
sg21
I653
sa(dp137
g19
I00
sg20
I224
sg21
I644
sa(dp138
g17
Vcurve
p139
sg19
I01
sg20
I240
sg21
I644
sasa(dp140
g14
(lp141
(dp142
g17
Vline
p143
sg19
I00
sg20
I486
sg21
I57
sa(dp144
g19
I00
sg20
I480
sg21
I72
sa(dp145
g19
I00
sg20
I470
sg21
I77
sa(dp146
g17
Vcurve
p147
sg19
I00
sg20
I454
sg21
I74
sa(dp148
g19
I00
sg20
I429
sg21
I68
sa(dp149
g19
I00
sg20
I405
sg21
I67
sa(dp150
g17
Vcurve
p151
sg19
I01
sg20
I389
sg21
I67
sa(dp152
g19
I00
sg20
I339
sg21
I68
sa(dp153
g19
I00
sg20
I330
sg21
I91
sa(dp154
g17
Vcurve
p155
sg19
I01
sg20
I330
sg21
I150
sa(dp156
g17
Vline
p157
sg19
I01
sg20
I330
sg21
I350
sa(dp158
g19
I00
sg20
I330
sg21
I460
sa(dp159
g19
I00
sg20
I290
sg21
I510
sa(dp160
g17
Vcurve
p161
sg19
I01
sg20
I186
sg21
I510
sa(dp162
g19
I00
sg20
I166
sg21
I510
sa(dp163
g19
I00
sg20
I135
sg21
I509
sa(dp164
g17
Vcurve
p165
sg19
I01
sg20
I98
sg21
I500
sa(dp166
g19
I00
sg20
I81
sg21
I496
sa(dp167
g19
I00
sg20
I75
sg21
I484
sa(dp168
g17
Vcurve
p169
sg19
I00
sg20
I81
sg21
I469
sa(dp170
g17
Vline
p171
sg19
I00
sg20
I89
sg21
I443
sa(dp172
g19
I00
sg20
I95
sg21
I428
sa(dp173
g19
I00
sg20
I105
sg21
I423
sa(dp174
g17
Vcurve
p175
sg19
I00
sg20
I121
sg21
I426
sa(dp176
g19
I00
sg20
I146
sg21
I432
sa(dp177
g19
I00
sg20
I170
sg21
I433
sa(dp178
g17
Vcurve
p179
sg19
I01
sg20
I186
sg21
I433
sa(dp180
g19
I00
sg20
I236
sg21
I432
sa(dp181
g19
I00
sg20
I245
sg21
I409
sa(dp182
g17
Vcurve
p183
sg19
I01
sg20
I245
sg21
I350
sa(dp184
g17
Vline
p185
sg19
I01
sg20
I245
sg21
I150
sa(dp186
g19
I00
sg20
I245
sg21
I40
sa(dp187
g19
I00
sg20
I285
sg21
I-10
sa(dp188
g17
Vcurve
p189
sg19
I01
sg20
I389
sg21
I-10
sa(dp190
g19
I00
sg20
I409
sg21
I-10
sa(dp191
g19
I00
sg20
I440
sg21
I-9
sa(dp192
g17
Vcurve
p193
sg19
I01
sg20
I477
sg21
I0
sa(dp194
g19
I00
sg20
I494
sg21
I4
sa(dp195
g19
I00
sg20
I500
sg21
I16
sa(dp196
g17
Vcurve
p197
sg19
I00
sg20
I494
sg21
I31
sasasg102
(dp198
sg104
g105
sg106
(lp199
sg108
I600
ssVbackground
p200
(dp201
g7
(lp202
sg9
(lp203
sg11
(lp204
(dp205
g14
(lp206
(dp207
g17
Vline
p208
sg19
I01
sg20
I240
sg21
I760
sa(dp209
g19
I00
sg20
I224
sg21
I760
sa(dp210
g19
I00
sg20
I215
sg21
I751
sa(dp211
g17
Vcurve
p212
sg19
I01
sg20
I215
sg21
I735
sa(dp213
g17
Vline
p214
sg19
I01
sg20
I215
sg21
I669
sa(dp215
g19
I00
sg20
I215
sg21
I653
sa(dp216
g19
I00
sg20
I224
sg21
I644
sa(dp217
g17
Vcurve
p218
sg19
I01
sg20
I240
sg21
I644
sa(dp219
g17
Vline
p220
sg19
I01
sg20
I305
sg21
I644
sa(dp221
g19
I00
sg20
I322
sg21
I644
sa(dp222
g19
I00
sg20
I330
sg21
I653
sa(dp223
g17
Vcurve
p224
sg19
I01
sg20
I330
sg21
I669
sa(dp225
g17
Vline
p226
sg19
I01
sg20
I330
sg21
I735
sa(dp227
g19
I00
sg20
I330
sg21
I752
sa(dp228
g19
I00
sg20
I321
sg21
I760
sa(dp229
g17
Vcurve
p230
sg19
I01
sg20
I305
sg21
I760
sasa(dp231
g14
(lp232
(dp233
g17
Vline
p234
sg19
I00
sg20
I330
sg21
I77
sa(dp235
g17
Vline
p236
sg19
I01
sg20
I330
sg21
I475
sa(dp237
g19
I00
sg20
I330
sg21
I492
sa(dp238
g19
I00
sg20
I321
sg21
I500
sa(dp239
g17
Vcurve
p240
sg19
I01
sg20
I305
sg21
I500
sa(dp241
g17
Vline
p242
sg19
I01
sg20
I143
sg21
I500
sa(dp243
g19
I00
sg20
I127
sg21
I500
sa(dp244
g19
I00
sg20
I118
sg21
I492
sa(dp245
g17
Vcurve
p246
sg19
I01
sg20
I118
sg21
I475
sa(dp247
g17
Vline
p248
sg19
I01
sg20
I118
sg21
I449
sa(dp249
g19
I00
sg20
I118
sg21
I433
sa(dp250
g19
I00
sg20
I127
sg21
I424
sa(dp251
g17
Vcurve
p252
sg19
I01
sg20
I143
sg21
I424
sa(dp253
g17
Vline
p254
sg19
I00
sg20
I245
sg21
I424
sa(dp255
g17
Vline
p256
sg19
I00
sg20
I245
sg21
I77
sa(dp257
g17
Vline
p258
sg19
I01
sg20
I110
sg21
I77
sa(dp259
g19
I00
sg20
I94
sg21
I77
sa(dp260
g19
I00
sg20
I85
sg21
I68
sa(dp261
g17
Vcurve
p262
sg19
I01
sg20
I85
sg21
I52
sa(dp263
g17
Vline
p264
sg19
I01
sg20
I85
sg21
I25
sa(dp265
g19
I00
sg20
I85
sg21
I9
sa(dp266
g19
I00
sg20
I94
sg21
I0
sa(dp267
g17
Vcurve
p268
sg19
I01
sg20
I110
sg21
I0
sa(dp269
g17
Vline
p270
sg19
I01
sg20
I465
sg21
I0
sa(dp271
g19
I00
sg20
I481
sg21
I0
sa(dp272
g19
I00
sg20
I490
sg21
I9
sa(dp273
g17
Vcurve
p274
sg19
I01
sg20
I490
sg21
I25
sa(dp275
g17
Vline
p276
sg19
I01
sg20
I490
sg21
I52
sa(dp277
g19
I00
sg20
I490
sg21
I68
sa(dp278
g19
I00
sg20
I481
sg21
I77
sa(dp279
g17
Vcurve
p280
sg19
I01
sg20
I465
sg21
I77
sasasg102
(dp281
sg104
g105
sg106
(lp282
sg108
I575
sss."
EndChar

StartChar: ij
Encoding: 307 307 259
GlifName: ij
Width: 575
VWidth: 0
Flags: W
LayerCount: 2
Fore
SplineSet
319 654 m 258
 336 654 345 662 348 679 c 258
 355 725 l 258
 358 741 351 750 334 750 c 258
 299 750 l 258
 283 750 273 741 270 725 c 258
 263 679 l 258
 260 663 268 654 284 654 c 258
 319 654 l 258
509 750 m 258
 493 750 483 741 480 725 c 258
 473 679 l 258
 470 663 478 654 494 654 c 258
 529 654 l 258
 546 654 555 663 558 679 c 258
 565 725 l 258
 568 742 560 750 544 750 c 258
 509 750 l 258
155 500 m 258
 139 500 128 492 126 475 c 258
 122 449 l 258
 119 433 127 424 143 424 c 258
 223 424 l 257
 159 25 l 258
 157 9 164 0 180 0 c 258
 215 0 l 258
 232 0 242 9 244 25 c 258
 308 424 l 257
 433 424 l 257
 369 24 l 258
 348 -107 286 -171 152 -171 c 256
 130 -171 95 -170 54 -162 c 256
 38 -159 27 -165 21 -181 c 258
 10 -207 l 258
 3 -223 8 -234 24 -237 c 256
 71 -246 112 -248 140 -248 c 256
 324 -248 425 -163 454 24 c 258
 526 475 l 258
 528 491 523 500 510 500 c 258
 155 500 l 258
EndSplineSet
PickledDataWithLists: "(dp0
Vcom.schriftgestaltung.Glyphs.lastChange
p1
V2016-06-09 18:35:33 +0000
p2
s."
EndChar

StartChar: infinity
Encoding: 8734 8734 261
GlifName: infinity
Width: 575
VWidth: 0
Flags: W
LayerCount: 2
Fore
SplineSet
180 403 m 256
 96 403 40 309 40 210 c 256
 40 139 76 95 136 95 c 256
 191 95 233 123 274 187 c 257
 302 123 340 90 388 90 c 256
 473 90 536 188 536 289 c 256
 536 363 499 408 434 408 c 256
 371 408 328 364 292 315 c 257
 266 373 229 403 180 403 c 256
  PathStart: -2
111 213 m 256
 111 262 126 335 172 335 c 256
 204 335 237 307 255 262 c 257
 218 195 182 162 147 162 c 256
 123 162 111 179 111 213 c 256
  PathStart: -2
392 157 m 256
 359 157 334 184 309 242 c 257
 350 310 384 341 421 341 c 256
 454 341 465 317 465 284 c 256
 465 228 445 157 392 157 c 256
  PathStart: -1
EndSplineSet
PickledDataWithLists: "(dp0
Vcom.schriftgestaltung.Glyphs.lastChange
p1
V2015-12-22 14:13:58 +0000
p2
s."
EndChar

StartChar: integral
Encoding: 8747 8747 262
GlifName: integral
Width: 575
VWidth: 0
Flags: W
LayerCount: 2
Fore
SplineSet
15 -150 m 256
 50 -159 82 -160 102 -160 c 256
 213 -160 273 -113 290 -1 c 258
 370 501 l 258
 379 560 402 583 462 584 c 256
 478 584 502 582 526 577 c 256
 541 573 552 578 560 593 c 257
 572 619 l 258
 581 635 577 647 560 650 c 256
 525 659 494 660 474 660 c 256
 363 660 302 613 285 501 c 258
 205 -1 l 258
 196 -60 173 -83 114 -84 c 256
 97 -84 73 -82 49 -77 c 256
 35 -73 23 -78 16 -93 c 257
 3 -119 l 258
 -5 -135 -1 -147 15 -150 c 256
  PathStart: -2
EndSplineSet
PickledDataWithLists: "(dp0
Vcom.schriftgestaltung.Glyphs.lastChange
p1
V2015-12-22 14:14:22 +0000
p2
s."
EndChar

StartChar: iota
Encoding: 953 953 264
GlifName: iota
Width: 575
VWidth: 0
Flags: W
LayerCount: 2
Fore
SplineSet
405 57 m 257
 402 72 393 77 376 74 c 256
 350 68 326 67 310 67 c 256
 250 68 235 91 244 150 c 258
 296 476 l 258
 298 493 291 501 275 501 c 258
 240 501 l 258
 224 501 212 493 211 476 c 257
 159 150 l 257
 142 40 184 -10 298 -10 c 256
 318 -10 349 -9 387 0 c 256
 405 4 413 16 409 31 c 258
 405 57 l 257
EndSplineSet
PickledDataWithLists: "(dp0
Vcom.schriftgestaltung.Glyphs.lastChange
p1
V2015-12-22 12:32:48 +0000
p2
s."
EndChar

StartChar: j
Encoding: 106 106 265
GlifName: j
Width: 575
VWidth: 0
Flags: W
LayerCount: 2
Fore
SplineSet
461 760 m 258
 445 760 434 751 432 735 c 258
 421 669 l 258
 419 653 426 644 442 644 c 258
 507 644 l 258
 524 644 534 653 536 669 c 258
 547 735 l 258
 550 752 542 760 526 760 c 258
 461 760 l 258
504 365 m 256
 504 478 440 512 348 512 c 256
 317 512 283 508 246 502 c 256
 229 499 221 488 221 473 c 258
 222 445 l 258
 221 429 231 422 248 425 c 256
 281 431 309 435 333 435 c 256
 389 435 417 413 417 351 c 256
 417 336 415 319 412 300 c 258
 383 120 l 258
 359 -36 283 -82 194 -82 c 256
 153 -82 119 -75 77 -59 c 256
 63 -53 51 -58 43 -73 c 258
 29 -97 l 258
 21 -112 23 -124 37 -130 c 256
 81 -150 131 -160 182 -160 c 256
 308 -160 436 -90 469 120 c 258
 498 300 l 258
 502 324 504 345 504 365 c 256
  PathStart: -1
EndSplineSet
PickledDataWithLists: "(dp0
Vcom.schriftgestaltung.Glyphs.lastChange
p1
V2016-06-09 18:35:33 +0000
p2
s."
EndChar

StartChar: k
Encoding: 107 107 267
GlifName: k
Width: 575
VWidth: 0
Flags: W
AnchorPoint: "top" 328 550 basechar 0
AnchorPoint: "bottom" 248 0 basechar 0
LayerCount: 2
Fore
SplineSet
360 510 m 256
 310 510 252 494 204 466 c 257
 245 725 l 258
 248 741 240 750 224 750 c 258
 189 750 l 258
 173 750 163 741 160 725 c 258
 49 25 l 258
 47 9 54 0 70 0 c 258
 105 0 l 258
 121 0 132 9 134 25 c 258
 193 396 l 257
 234 417 290 433 331 433 c 256
 366 433 389 421 384 392 c 257
 379 355 320 295 225 238 c 256
 209 228 204 215 215 203 c 257
 362 13 l 257
 370 4 378 0 391 0 c 258
 449 0 l 258
 472 0 481 15 467 31 c 257
 318 220 l 257
 410 271 468 346 478 407 c 256
 487 465 452 510 360 510 c 256
  PathStart: -2
EndSplineSet
PickledDataWithLists: "(dp0
Vcom.schriftgestaltung.Glyphs.lastChange
p1
V2016-06-09 18:35:33 +0000
p2
sVcom.typemytype.robofont.layerData
p3
(dp4
VRegular Italic Nov 30 14, 15:56
p5
(dp6
Vanchors
p7
(lp8
sVcomponents
p9
(lp10
sVcontours
p11
(lp12
(dp13
Vpoints
p14
(lp15
(dp16
VsegmentType
p17
Vline
p18
sVsmooth
p19
I01
sVx
p20
I170
sVy
p21
I725
sa(dp22
g19
I00
sg20
I170
sg21
I741
sa(dp23
g19
I00
sg20
I161
sg21
I750
sa(dp24
g17
Vcurve
p25
sg19
I01
sg20
I145
sg21
I750
sa(dp26
g17
Vline
p27
sg19
I01
sg20
I110
sg21
I750
sa(dp28
g19
I00
sg20
I94
sg21
I750
sa(dp29
g19
I00
sg20
I85
sg21
I741
sa(dp30
g17
Vcurve
p31
sg19
I01
sg20
I85
sg21
I725
sa(dp32
g17
Vline
p33
sg19
I01
sg20
I85
sg21
I25
sa(dp34
g19
I00
sg20
I85
sg21
I9
sa(dp35
g19
I00
sg20
I94
sg21
I0
sa(dp36
g17
Vcurve
p37
sg19
I01
sg20
I110
sg21
I0
sa(dp38
g17
Vline
p39
sg19
I01
sg20
I145
sg21
I0
sa(dp40
g19
I00
sg20
I161
sg21
I0
sa(dp41
g19
I00
sg20
I170
sg21
I9
sa(dp42
g17
Vcurve
p43
sg19
I01
sg20
I170
sg21
I25
sasa(dp44
g14
(lp45
(dp46
g17
Vline
p47
sg19
I00
sg20
I323
sg21
I220
sa(dp48
g19
I00
sg20
I407
sg21
I271
sa(dp49
g19
I00
sg20
I453
sg21
I346
sa(dp50
g17
Vcurve
p51
sg19
I01
sg20
I453
sg21
I407
sa(dp52
g19
I00
sg20
I453
sg21
I465
sa(dp53
g19
I00
sg20
I411
sg21
I510
sa(dp54
g17
Vcurve
p55
sg19
I01
sg20
I319
sg21
I510
sa(dp56
g19
I00
sg20
I260
sg21
I510
sa(dp57
g19
I00
sg20
I193
sg21
I488
sa(dp58
g17
Vcurve
p59
sg19
I00
sg20
I148
sg21
I450
sa(dp60
g17
Vline
p61
sg19
I00
sg20
I158
sg21
I389
sa(dp62
g19
I00
sg20
I196
sg21
I413
sa(dp63
g19
I00
sg20
I257
sg21
I433
sa(dp64
g17
Vcurve
p65
sg19
I01
sg20
I302
sg21
I433
sa(dp66
g19
I00
sg20
I337
sg21
I433
sa(dp67
g19
I00
sg20
I362
sg21
I421
sa(dp68
g17
Vcurve
p69
sg19
I01
sg20
I362
sg21
I392
sa(dp70
g19
I00
sg20
I362
sg21
I355
sa(dp71
g19
I00
sg20
I313
sg21
I295
sa(dp72
g17
Vcurve
p73
sg19
I01
sg20
I227
sg21
I238
sa(dp74
g19
I00
sg20
I212
sg21
I228
sa(dp75
g19
I00
sg20
I210
sg21
I215
sa(dp76
g17
Vcurve
p77
sg19
I01
sg20
I222
sg21
I203
sa(dp78
g17
Vline
p79
sg19
I01
sg20
I400
sg21
I13
sa(dp80
g19
I00
sg20
I409
sg21
I4
sa(dp81
g19
I00
sg20
I418
sg21
I0
sa(dp82
g17
Vcurve
p83
sg19
I01
sg20
I431
sg21
I0
sa(dp84
g17
Vline
p85
sg19
I01
sg20
I489
sg21
I0
sa(dp86
g19
I00
sg20
I512
sg21
I0
sa(dp87
g19
I00
sg20
I518
sg21
I15
sa(dp88
g17
Vcurve
p89
sg19
I01
sg20
I502
sg21
I31
sasasVlib
p90
(dp91
sVname
p92
Vk
p93
sVunicodes
p94
(lp95
sVwidth
p96
I575
sss."
EndChar

StartChar: kappa
Encoding: 954 954 268
GlifName: kappa
Width: 575
VWidth: 0
Flags: W
LayerCount: 2
Fore
SplineSet
297 233 m 258
 290 242 282 251 255 260 c 257
 285 269 295 278 306 287 c 258
 517 469 l 258
 535 485 532 500 509 500 c 258
 451 500 l 258
 438 500 428 496 418 487 c 258
 209 307 l 258
 193 293 181 285 176 285 c 257
 206 476 l 258
 208 492 201 501 185 501 c 258
 150 501 l 258
 134 501 123 492 121 476 c 258
 49 25 l 258
 47 9 54 0 70 0 c 258
 105 0 l 258
 121 0 132 9 134 25 c 258
 168 236 l 257
 173 236 183 228 194 214 c 258
 362 13 l 258
 370 4 378 0 391 0 c 258
 449 0 l 258
 472 0 481 15 467 31 c 258
 297 233 l 258
EndSplineSet
PickledDataWithLists: "(dp0
Vcom.schriftgestaltung.Glyphs.lastChange
p1
V2015-12-22 12:33:21 +0000
p2
s."
EndChar

StartChar: l
Encoding: 108 108 269
GlifName: l
Width: 575
VWidth: 0
Flags: W
AnchorPoint: "bottom" 248 0 basechar 0
AnchorPoint: "top" 328 700 basechar 0
AnchorPoint: "topright" 595 500 basechar 0
AnchorPoint: "center" 288 250 basechar 0
LayerCount: 2
Fore
SplineSet
455 57 m 257
 452 72 443 77 426 74 c 257
 400 68 376 67 360 67 c 256
 310 68 292 84 292 122 c 256
 292 131 292 140 294 150 c 258
 365 600 l 258
 368 616 369 631 369 645 c 256
 369 724 324 760 227 760 c 256
 207 760 176 759 137 750 c 256
 120 746 112 734 115 719 c 257
 119 693 l 257
 123 678 132 673 148 676 c 257
 174 682 199 683 215 683 c 256
 263 682 283 667 283 629 c 256
 283 620 282 611 280 600 c 258
 209 150 l 258
 207 134 205 120 205 107 c 256
 205 27 250 -10 348 -10 c 256
 368 -10 399 -9 437 0 c 256
 455 4 463 16 459 31 c 257
 455 57 l 257
EndSplineSet
PickledDataWithLists: "(dp0
Vcom.schriftgestaltung.Glyphs.lastChange
p1
V2016-06-09 18:35:33 +0000
p2
s."
EndChar

StartChar: lacute
Encoding: 314 314 270
GlifName: lacute
Width: 575
VWidth: 0
Flags: W
AnchorPoint: "bottom" 248 0 basechar 0
AnchorPoint: "top" 328 700 basechar 0
AnchorPoint: "topright" 595 500 basechar 0
AnchorPoint: "center" 288 250 basechar 0
LayerCount: 2
Fore
SplineSet
455 57 m 257
 452 72 443 77 426 74 c 257
 400 68 376 67 360 67 c 256
 310 68 292 84 292 122 c 256
 292 131 292 140 294 150 c 258
 357 555 l 258
 360 571 361 586 361 600 c 256
 361 679 316 715 219 715 c 256
 199 715 168 714 129 705 c 256
 112 701 104 689 107 674 c 257
 111 648 l 257
 115 633 124 628 140 631 c 257
 166 637 191 638 207 638 c 256
 255 638 275 622 275 584 c 256
 275 575 274 566 272 555 c 258
 209 150 l 258
 207 134 205 120 205 107 c 256
 205 27 250 -10 348 -10 c 256
 368 -10 399 -9 437 0 c 256
 455 4 463 16 459 31 c 257
 455 57 l 257
EndSplineSet
Refer: 140 180 N 1 0 0 1 -22 200 2
PickledDataWithLists: "(dp0
Vcom.schriftgestaltung.Glyphs.lastChange
p1
V2016-06-09 18:35:33 +0000
p2
s."
EndChar

StartChar: lambda
Encoding: 955 955 271
GlifName: lambda
Width: 575
VWidth: 0
Flags: W
LayerCount: 2
Fore
SplineSet
158 662 m 258
 154 638 l 258
 152 622 159 613 175 613 c 256
 220 613 253 577 279 482 c 257
 17 29 l 258
 7 11 14 0 32 0 c 258
 69 0 l 258
 83 0 94 6 101 19 c 258
 308 392 l 257
 400 19 l 258
 403 6 412 0 426 0 c 258
 463 0 l 258
 481 0 492 11 488 29 c 258
 365 500 l 258
 337 607 289 687 187 687 c 256
 171 687 161 678 158 662 c 258
  PathStart: -2
EndSplineSet
PickledDataWithLists: "(dp0
Vcom.schriftgestaltung.Glyphs.lastChange
p1
V2016-05-30 08:32:58 +0000
p2
s."
EndChar

StartChar: lcaron
Encoding: 318 318 272
GlifName: lcaron
Width: 575
VWidth: 0
Flags: W
LayerCount: 2
Fore
SplineSet
455 57 m 257
 452 72 443 77 426 74 c 257
 400 68 376 67 360 67 c 256
 310 68 292 84 292 122 c 256
 292 131 292 140 294 150 c 258
 357 555 l 258
 360 571 361 586 361 600 c 256
 361 679 316 715 219 715 c 256
 199 715 168 714 129 705 c 256
 112 701 104 689 107 674 c 257
 111 648 l 257
 115 633 124 628 140 631 c 257
 166 637 191 638 207 638 c 256
 255 638 275 622 275 584 c 256
 275 575 274 566 272 555 c 258
 209 150 l 258
 207 134 205 120 205 107 c 256
 205 27 250 -10 348 -10 c 256
 368 -10 399 -9 437 0 c 256
 455 4 463 16 459 31 c 257
 455 57 l 257
EndSplineSet
Refer: 171 711 N 1 0 0 1 -30 200 2
PickledDataWithLists: "(dp0
Vcom.schriftgestaltung.Glyphs.lastChange
p1
V2016-06-09 18:35:33 +0000
p2
s."
EndChar

StartChar: lfblock
Encoding: 9612 9612 276
GlifName: lfblock
Width: 575
VWidth: 0
Flags: W
LayerCount: 2
Fore
SplineSet
0 -250 m 257
 287 -250 l 257
 287 900 l 257
 0 900 l 257
 0 -250 l 257
EndSplineSet
PickledDataWithLists: "(dp0
Vcom.schriftgestaltung.Glyphs.lastChange
p1
V2016-06-10 08:26:49 +0000
p2
s."
EndChar

StartChar: logicalnot
Encoding: 172 172 277
GlifName: logicalnot
Width: 575
VWidth: 0
Flags: W
LayerCount: 2
Fore
SplineSet
136 414 m 258
 120 414 110 405 107 389 c 258
 103 362 l 258
 100 346 108 337 124 337 c 258
 419 337 l 257
 389 150 l 258
 387 134 394 125 410 125 c 258
 445 125 l 258
 462 125 472 134 474 150 c 258
 512 389 l 258
 515 405 507 414 491 414 c 258
 136 414 l 258
EndSplineSet
PickledDataWithLists: "(dp0
Vcom.schriftgestaltung.Glyphs.lastChange
p1
V2015-12-22 14:15:53 +0000
p2
s."
EndChar

StartChar: lslash
Encoding: 322 322 278
GlifName: lslash
Width: 575
VWidth: 0
Flags: W
LayerCount: 2
Fore
SplineSet
141 332 m 258
 128 323 121 306 130 294 c 258
 147 271 l 258
 154 262 168 259 180 267 c 258
 447 446 l 258
 461 455 465 471 457 484 c 258
 442 507 l 258
 436 517 421 520 409 512 c 258
 141 332 l 258
EndSplineSet
Refer: 269 108 N 1 0 0 1 0 0 2
PickledDataWithLists: "(dp0
Vcom.schriftgestaltung.Glyphs.lastChange
p1
V2016-06-09 18:35:33 +0000
p2
s."
EndChar

StartChar: ltshade
Encoding: 9617 9617 279
GlifName: ltshade
Width: 575
VWidth: 0
Flags: W
LayerCount: 2
Fore
SplineSet
0 -250 m 257
 28 -250 l 257
 0 -194 l 257
 0 -250 l 257
287 -250 m 257
 315 -250 l 257
 0 380 l 257
 0 324 l 257
 287 -250 l 257
575 -250 m 257
 575 -194 l 257
 28 900 l 257
 0 900 l 257
 575 -250 l 257
575 324 m 257
 575 380 l 257
 315 900 l 257
 287 900 l 257
 575 324 l 257
EndSplineSet
PickledDataWithLists: "(dp0
Vcom.schriftgestaltung.Glyphs.lastChange
p1
V2016-06-10 08:26:49 +0000
p2
s."
EndChar

StartChar: m
Encoding: 109 109 280
GlifName: m
Width: 575
VWidth: 0
Flags: W
AnchorPoint: "top" 328 550 basechar 0
AnchorPoint: "bottom" 248 0 basechar 0
LayerCount: 2
Fore
SplineSet
172 475 m 257
 174 491 167 500 151 500 c 258
 114 500 l 258
 98 500 88 486 86 470 c 258
 15 25 l 258
 13 9 20 0 36 0 c 258
 71 0 l 258
 87 0 98 9 100 25 c 258
 153 359 l 257
 207 399 236 418 252 418 c 256
 267 418 267 398 261 358 c 258
 208 25 l 258
 206 9 213 0 229 0 c 258
 264 0 l 258
 281 0 291 9 293 25 c 258
 346 357 l 257
 400 398 431 418 447 418 c 256
 462 418 462 398 456 358 c 258
 403 25 l 258
 401 9 408 0 424 0 c 258
 459 0 l 258
 476 0 486 9 488 25 c 258
 540 348 l 258
 557 460 540 507 496 507 c 256
 462 507 412 478 351 430 c 257
 350 483 332 507 301 507 c 256
 269 507 222 481 166 437 c 257
 172 475 l 257
EndSplineSet
PickledDataWithLists: "(dp0
Vcom.schriftgestaltung.Glyphs.lastChange
p1
V2016-06-09 18:35:33 +0000
p2
sVcom.typemytype.robofont.layerData
p3
(dp4
Vbackground
p5
(dp6
Vanchors
p7
(lp8
sVcomponents
p9
(lp10
sVcontours
p11
(lp12
(dp13
Vpoints
p14
(lp15
(dp16
VsegmentType
p17
Vline
p18
sVsmooth
p19
I01
sVx
p20
I51
sVy
p21
I25
sa(dp22
g19
I00
sg20
I51
sg21
I9
sa(dp23
g19
I00
sg20
I60
sg21
I0
sa(dp24
g17
Vcurve
p25
sg19
I01
sg20
I76
sg21
I0
sa(dp26
g17
Vline
p27
sg19
I01
sg20
I111
sg21
I0
sa(dp28
g19
I00
sg20
I128
sg21
I0
sa(dp29
g19
I00
sg20
I136
sg21
I9
sa(dp30
g17
Vcurve
p31
sg19
I01
sg20
I136
sg21
I25
sa(dp32
g17
Vline
p33
sg19
I00
sg20
I136
sg21
I427
sa(dp34
g19
I00
sg20
I175
sg21
I429
sa(dp35
g19
I00
sg20
I212
sg21
I431
sa(dp36
g17
Vcurve
p37
sg19
I00
sg20
I245
sg21
I432
sa(dp38
g17
Vline
p39
sg19
I01
sg20
I245
sg21
I25
sa(dp40
g19
I00
sg20
I245
sg21
I9
sa(dp41
g19
I00
sg20
I254
sg21
I0
sa(dp42
g17
Vcurve
p43
sg19
I01
sg20
I270
sg21
I0
sa(dp44
g17
Vline
p45
sg19
I01
sg20
I305
sg21
I0
sa(dp46
g19
I00
sg20
I322
sg21
I0
sa(dp47
g19
I00
sg20
I330
sg21
I9
sa(dp48
g17
Vcurve
p49
sg19
I01
sg20
I330
sg21
I25
sa(dp50
g17
Vline
p51
sg19
I00
sg20
I330
sg21
I434
sa(dp52
g17
Vline
p53
sg19
I01
sg20
I356
sg21
I434
sa(dp54
g19
I00
sg20
I418
sg21
I434
sa(dp55
g19
I00
sg20
I439
sg21
I413
sa(dp56
g17
Vcurve
p57
sg19
I01
sg20
I439
sg21
I352
sa(dp58
g17
Vline
p59
sg19
I01
sg20
I439
sg21
I25
sa(dp60
g19
I00
sg20
I439
sg21
I9
sa(dp61
g19
I00
sg20
I448
sg21
I0
sa(dp62
g17
Vcurve
p63
sg19
I01
sg20
I464
sg21
I0
sa(dp64
g17
Vline
p65
sg19
I01
sg20
I499
sg21
I0
sa(dp66
g19
I00
sg20
I515
sg21
I0
sa(dp67
g19
I00
sg20
I524
sg21
I9
sa(dp68
g17
Vcurve
p69
sg19
I01
sg20
I524
sg21
I25
sa(dp70
g17
Vline
p71
sg19
I01
sg20
I524
sg21
I352
sa(dp72
g19
I00
sg20
I524
sg21
I468
sa(dp73
g19
I00
sg20
I477
sg21
I510
sa(dp74
g17
Vcurve
p75
sg19
I01
sg20
I356
sg21
I510
sa(dp76
g19
I00
sg20
I303
sg21
I510
sa(dp77
g19
I00
sg20
I195
sg21
I508
sa(dp78
g17
Vcurve
p79
sg19
I01
sg20
I75
sg21
I496
sa(dp80
g19
I00
sg20
I59
sg21
I494
sa(dp81
g19
I00
sg20
I51
sg21
I485
sa(dp82
g17
Vcurve
p83
sg19
I01
sg20
I51
sg21
I470
sasasVlib
p84
(dp85
sVname
p86
Vm
p87
sVunicodes
p88
(lp89
sVwidth
p90
I575
sss."
EndChar

StartChar: macron
Encoding: 175 175 281
GlifName: macron
Width: 575
VWidth: 0
Flags: W
AnchorPoint: "top" 328 500 mark 0
LayerCount: 2
Fore
SplineSet
237 649 m 258
 235 632 242 624 258 624 c 258
 496 624 l 258
 512 624 523 632 525 648 c 258
 529 675 l 258
 532 691 524 700 508 700 c 258
 270 700 l 258
 254 700 244 691 241 675 c 258
 237 649 l 258
EndSplineSet
PickledDataWithLists: "(dp0
Vcom.schriftgestaltung.Glyphs.lastChange
p1
V2015-12-22 16:32:42 +0000
p2
s."
EndChar

StartChar: multiply
Encoding: 215 215 283
GlifName: multiply
Width: 575
VWidth: 0
Flags: W
LayerCount: 2
Fore
SplineSet
340 262 m 257
 521 457 l 258
 533 470 533 482 521 492 c 258
 497 510 l 258
 486 519 473 517 461 504 c 258
 300 329 l 257
 194 504 l 258
 187 517 175 519 160 510 c 258
 131 492 l 258
 116 482 112 470 120 457 c 258
 238 263 l 257
 34 44 l 258
 22 31 22 18 35 9 c 258
 58 -10 l 258
 69 -19 82 -17 94 -4 c 258
 279 196 l 257
 402 -4 l 258
 409 -17 420 -19 436 -10 c 258
 465 9 l 258
 479 18 483 31 475 44 c 258
 340 262 l 257
EndSplineSet
PickledDataWithLists: "(dp0
Vcom.schriftgestaltung.Glyphs.lastChange
p1
V2015-12-22 14:16:31 +0000
p2
s."
EndChar

StartChar: n
Encoding: 110 110 284
GlifName: n
Width: 575
VWidth: 0
Flags: W
AnchorPoint: "top" 328 550 basechar 0
AnchorPoint: "bottom" 248 0 basechar 0
LayerCount: 2
Fore
SplineSet
206 475 m 258
 208 491 201 500 185 500 c 258
 148 500 l 258
 132 500 122 486 120 470 c 258
 49 25 l 258
 47 9 54 0 70 0 c 258
 105 0 l 258
 121 0 132 9 134 25 c 258
 186 349 l 257
 239 405 291 434 332 434 c 256
 390 434 431 414 409 278 c 258
 369 25 l 258
 367 9 374 0 390 0 c 258
 425 0 l 258
 442 0 452 9 454 25 c 258
 494 278 l 258
 525 469 452 510 362 510 c 256
 311 510 252 485 200 437 c 257
 206 475 l 258
EndSplineSet
PickledDataWithLists: "(dp0
Vcom.schriftgestaltung.Glyphs.lastChange
p1
V2016-06-09 18:35:33 +0000
p2
sVcom.typemytype.robofont.layerData
p3
(dp4
VRegular Italic Dec 4 14, 09:47
p5
(dp6
Vanchors
p7
(lp8
sVcomponents
p9
(lp10
sVcontours
p11
(lp12
(dp13
Vpoints
p14
(lp15
(dp16
VsegmentType
p17
Vline
p18
sVsmooth
p19
I01
sVx
p20
I206
sVy
p21
I475
sa(dp22
g19
I00
sg20
I208
sg21
I491
sa(dp23
g19
I00
sg20
I201
sg21
I500
sa(dp24
g17
Vcurve
p25
sg19
I01
sg20
I185
sg21
I500
sa(dp26
g17
Vline
p27
sg19
I01
sg20
I148
sg21
I500
sa(dp28
g19
I00
sg20
I132
sg21
I500
sa(dp29
g19
I00
sg20
I122
sg21
I486
sa(dp30
g17
Vcurve
p31
sg19
I01
sg20
I120
sg21
I470
sa(dp32
g17
Vline
p33
sg19
I01
sg20
I49
sg21
I25
sa(dp34
g19
I00
sg20
I47
sg21
I9
sa(dp35
g19
I00
sg20
I54
sg21
I0
sa(dp36
g17
Vcurve
p37
sg19
I01
sg20
I70
sg21
I0
sa(dp38
g17
Vline
p39
sg19
I01
sg20
I105
sg21
I0
sa(dp40
g19
I00
sg20
I121
sg21
I0
sa(dp41
g19
I00
sg20
I132
sg21
I9
sa(dp42
g17
Vcurve
p43
sg19
I01
sg20
I134
sg21
I25
sa(dp44
g17
Vline
p45
sg19
I00
sg20
I186
sg21
I349
sa(dp46
g19
I00
sg20
I239
sg21
I405
sa(dp47
g19
I00
sg20
I291
sg21
I434
sa(dp48
g17
Vcurve
p49
sg19
I01
sg20
I332
sg21
I434
sa(dp50
g19
I00
sg20
I390
sg21
I434
sa(dp51
g19
I00
sg20
I431
sg21
I414
sa(dp52
g17
Vcurve
p53
sg19
I01
sg20
I409
sg21
I278
sa(dp54
g17
Vline
p55
sg19
I01
sg20
I369
sg21
I25
sa(dp56
g19
I00
sg20
I367
sg21
I9
sa(dp57
g19
I00
sg20
I374
sg21
I0
sa(dp58
g17
Vcurve
p59
sg19
I01
sg20
I390
sg21
I0
sa(dp60
g17
Vline
p61
sg19
I01
sg20
I425
sg21
I0
sa(dp62
g19
I00
sg20
I442
sg21
I0
sa(dp63
g19
I00
sg20
I452
sg21
I9
sa(dp64
g17
Vcurve
p65
sg19
I01
sg20
I454
sg21
I25
sa(dp66
g17
Vline
p67
sg19
I01
sg20
I494
sg21
I278
sa(dp68
g19
I00
sg20
I525
sg21
I469
sa(dp69
g19
I00
sg20
I452
sg21
I510
sa(dp70
g17
Vcurve
p71
sg19
I01
sg20
I362
sg21
I510
sa(dp72
g19
I00
sg20
I311
sg21
I510
sa(dp73
g19
I00
sg20
I252
sg21
I485
sa(dp74
g17
Vcurve
p75
sg19
I00
sg20
I200
sg21
I437
sasasVlib
p76
(dp77
sVname
p78
Vn
p79
sVunicodes
p80
(lp81
sVwidth
p82
I575
ssVRegular Italic Nov 30 14, 14:35
p83
(dp84
g7
(lp85
sg9
(lp86
sg11
(lp87
(dp88
g14
(lp89
(dp90
g17
Vline
p91
sg19
I01
sg20
I170
sg21
I475
sa(dp92
g19
I00
sg20
I170
sg21
I491
sa(dp93
g19
I00
sg20
I161
sg21
I500
sa(dp94
g17
Vcurve
p95
sg19
I01
sg20
I145
sg21
I500
sa(dp96
g17
Vline
p97
sg19
I01
sg20
I108
sg21
I500
sa(dp98
g19
I00
sg20
I92
sg21
I500
sa(dp99
g19
I00
sg20
I85
sg21
I486
sa(dp100
g17
Vcurve
p101
sg19
I01
sg20
I85
sg21
I470
sa(dp102
g17
Vline
p103
sg19
I01
sg20
I85
sg21
I25
sa(dp104
g19
I00
sg20
I85
sg21
I9
sa(dp105
g19
I00
sg20
I94
sg21
I0
sa(dp106
g17
Vcurve
p107
sg19
I01
sg20
I110
sg21
I0
sa(dp108
g17
Vline
p109
sg19
I01
sg20
I145
sg21
I0
sa(dp110
g19
I00
sg20
I161
sg21
I0
sa(dp111
g19
I00
sg20
I170
sg21
I9
sa(dp112
g17
Vcurve
p113
sg19
I01
sg20
I170
sg21
I25
sa(dp114
g17
Vline
p115
sg19
I00
sg20
I170
sg21
I349
sa(dp116
g19
I00
sg20
I214
sg21
I405
sa(dp117
g19
I00
sg20
I262
sg21
I434
sa(dp118
g17
Vcurve
p119
sg19
I01
sg20
I303
sg21
I434
sa(dp120
g19
I00
sg20
I361
sg21
I434
sa(dp121
g19
I00
sg20
I405
sg21
I414
sa(dp122
g17
Vcurve
p123
sg19
I01
sg20
I405
sg21
I278
sa(dp124
g17
Vline
p125
sg19
I01
sg20
I405
sg21
I25
sa(dp126
g19
I00
sg20
I405
sg21
I9
sa(dp127
g19
I00
sg20
I414
sg21
I0
sa(dp128
g17
Vcurve
p129
sg19
I01
sg20
I430
sg21
I0
sa(dp130
g17
Vline
p131
sg19
I01
sg20
I465
sg21
I0
sa(dp132
g19
I00
sg20
I482
sg21
I0
sa(dp133
g19
I00
sg20
I490
sg21
I9
sa(dp134
g17
Vcurve
p135
sg19
I01
sg20
I490
sg21
I25
sa(dp136
g17
Vline
p137
sg19
I01
sg20
I490
sg21
I278
sa(dp138
g19
I00
sg20
I490
sg21
I469
sa(dp139
g19
I00
sg20
I411
sg21
I510
sa(dp140
g17
Vcurve
p141
sg19
I01
sg20
I321
sg21
I510
sa(dp142
g19
I00
sg20
I270
sg21
I510
sa(dp143
g19
I00
sg20
I215
sg21
I485
sa(dp144
g17
Vcurve
p145
sg19
I00
sg20
I170
sg21
I437
sasasg76
(dp146
sg78
g79
sg80
(lp147
sg82
I600
ssVbackground
p148
(dp149
g7
(lp150
sg9
(lp151
sg11
(lp152
(dp153
g14
(lp154
(dp155
g17
Vline
p156
sg19
I01
sg20
I207
sg21
I644
sa(dp157
g19
I00
sg20
I224
sg21
I644
sa(dp158
g19
I00
sg20
I234
sg21
I653
sa(dp159
g17
Vcurve
p160
sg19
I01
sg20
I236
sg21
I669
sa(dp161
g17
Vline
p162
sg19
I01
sg20
I247
sg21
I735
sa(dp163
g19
I00
sg20
I250
sg21
I752
sa(dp164
g19
I00
sg20
I242
sg21
I760
sa(dp165
g17
Vcurve
p166
sg19
I01
sg20
I226
sg21
I760
sa(dp167
g17
Vline
p168
sg19
I01
sg20
I161
sg21
I760
sa(dp169
g19
I00
sg20
I145
sg21
I760
sa(dp170
g19
I00
sg20
I134
sg21
I751
sa(dp171
g17
Vcurve
p172
sg19
I01
sg20
I132
sg21
I735
sa(dp173
g17
Vline
p174
sg19
I01
sg20
I121
sg21
I669
sa(dp175
g19
I00
sg20
I119
sg21
I653
sa(dp176
g19
I00
sg20
I126
sg21
I644
sa(dp177
g17
Vcurve
p178
sg19
I01
sg20
I142
sg21
I644
sasa(dp179
g14
(lp180
(dp181
g17
Vline
p182
sg19
I00
sg20
I295
sg21
I57
sa(dp183
g19
I00
sg20
I292
sg21
I72
sa(dp184
g19
I00
sg20
I283
sg21
I77
sa(dp185
g17
Vcurve
p186
sg19
I00
sg20
I266
sg21
I74
sa(dp187
g19
I00
sg20
I240
sg21
I68
sa(dp188
g19
I00
sg20
I216
sg21
I67
sa(dp189
g17
Vcurve
p190
sg19
I01
sg20
I200
sg21
I67
sa(dp191
g19
I00
sg20
I150
sg21
I68
sa(dp192
g19
I00
sg20
I137
sg21
I93
sa(dp193
g17
Vcurve
p194
sg19
I01
sg20
I149
sg21
I150
sa(dp195
g17
Vline
p196
sg19
I01
sg20
I191
sg21
I350
sa(dp197
g19
I00
sg20
I214
sg21
I458
sa(dp198
g19
I00
sg20
I171
sg21
I510
sa(dp199
g17
Vcurve
p200
sg19
I01
sg20
I67
sg21
I510
sa(dp201
g19
I00
sg20
I47
sg21
I510
sa(dp202
g19
I00
sg20
I16
sg21
I509
sa(dp203
g17
Vcurve
p204
sg19
I01
sg20
I-22
sg21
I500
sa(dp205
g19
I00
sg20
I-40
sg21
I496
sa(dp206
g19
I00
sg20
I-48
sg21
I484
sa(dp207
g17
Vcurve
p208
sg19
I00
sg20
I-44
sg21
I469
sa(dp209
g17
Vline
p210
sg19
I00
sg20
I-40
sg21
I443
sa(dp211
g19
I00
sg20
I-37
sg21
I428
sa(dp212
g19
I00
sg20
I-28
sg21
I423
sa(dp213
g17
Vcurve
p214
sg19
I00
sg20
I-11
sg21
I426
sa(dp215
g19
I00
sg20
I15
sg21
I432
sa(dp216
g19
I00
sg20
I39
sg21
I433
sa(dp217
g17
Vcurve
p218
sg19
I01
sg20
I55
sg21
I433
sa(dp219
g19
I00
sg20
I105
sg21
I432
sa(dp220
g19
I00
sg20
I118
sg21
I407
sa(dp221
g17
Vcurve
p222
sg19
I01
sg20
I106
sg21
I350
sa(dp223
g17
Vline
p224
sg19
I01
sg20
I64
sg21
I150
sa(dp225
g19
I00
sg20
I41
sg21
I42
sa(dp226
g19
I00
sg20
I84
sg21
I-10
sa(dp227
g17
Vcurve
p228
sg19
I01
sg20
I188
sg21
I-10
sa(dp229
g19
I00
sg20
I208
sg21
I-10
sa(dp230
g19
I00
sg20
I239
sg21
I-9
sa(dp231
g17
Vcurve
p232
sg19
I01
sg20
I277
sg21
I0
sa(dp233
g19
I00
sg20
I295
sg21
I4
sa(dp234
g19
I00
sg20
I303
sg21
I16
sa(dp235
g17
Vcurve
p236
sg19
I00
sg20
I299
sg21
I31
sasasg76
(dp237
sg78
g79
sg80
(lp238
sg82
I575
sss."
EndChar

StartChar: nine.dnom
Encoding: 65570 -1 288
GlifName: nine.dnom
Width: 250
VWidth: 0
Flags: W
LayerCount: 2
Fore
SplineSet
11 18 m 258
 6 6 13 -6 25 -9 c 257
 41 -12 57 -13 72 -13 c 256
 154 -13 228 38 254 202 c 256
 271 308 236 367 154 367 c 256
 77 367 28 325 16 250 c 256
 6 186 42 143 108 143 c 256
 129 143 153 146 176 152 c 257
 155 67 121 46 82 46 c 256
 70 46 60 47 48 50 c 257
 35 52 21 44 16 32 c 258
 11 18 l 258
188 215 m 257
 161 206 139 202 117 202 c 256
 92 202 78 220 83 250 c 256
 90 294 106 308 144 308 c 256
 181 308 197 284 188 215 c 257
  PathStart: -2
EndSplineSet
PickledDataWithLists: "(dp0
Vcom.schriftgestaltung.Glyphs.Export
p1
I00
sVcom.schriftgestaltung.Glyphs.lastChange
p2
V2015-12-22 13:07:35 +0000
p3
s."
EndChar

StartChar: nine.hex
Encoding: 65571 -1 289
GlifName: nine.hex
Width: 575
VWidth: 0
Flags: W
LayerCount: 2
Fore
SplineSet
214 875 m 258
 214 891 205 900 189 900 c 258
 154 900 l 258
 138 900 129 891 129 875 c 258
 129 829 l 258
 129 813 137 804 154 804 c 258
 189 804 l 258
 205 804 214 812 214 829 c 258
 214 875 l 258
646 875 m 258
 646 891 637 900 621 900 c 258
 586 900 l 258
 570 900 561 891 561 875 c 258
 561 829 l 258
 561 813 569 804 586 804 c 258
 621 804 l 258
 637 804 646 812 646 829 c 258
 646 875 l 258
EndSplineSet
Refer: 287 57 N 1 0 0 1 0 0 2
PickledDataWithLists: "(dp0
Vcom.schriftgestaltung.Glyphs.lastChange
p1
V2016-02-10 13:40:56 +0000
p2
s."
EndChar

StartChar: notequal
Encoding: 8800 8800 291
GlifName: notequal
Width: 575
VWidth: 0
Flags: W
LayerCount: 2
Fore
SplineSet
424 404 m 257
 521 551 l 258
 532 568 527 580 507 580 c 258
 466 580 l 258
 452 580 441 574 433 562 c 258
 329 404 l 257
 100 404 l 258
 84 404 74 395 71 378 c 258
 67 352 l 258
 65 336 72 327 88 327 c 258
 279 327 l 257
 178 174 l 257
 64 174 l 258
 48 174 38 165 35 148 c 258
 31 122 l 258
 28 106 36 97 52 97 c 258
 127 97 l 257
 30 -51 l 257
 20 -68 25 -80 44 -80 c 258
 86 -80 l 258
 100 -80 110 -74 118 -62 c 258
 223 97 l 257
 475 97 l 258
 492 97 501 106 504 122 c 257
 508 149 l 257
 511 165 504 174 487 174 c 258
 273 174 l 257
 374 327 l 257
 511 327 l 258
 528 327 538 336 540 352 c 258
 544 379 l 257
 547 395 540 404 523 404 c 258
 424 404 l 257
EndSplineSet
PickledDataWithLists: "(dp0
Vcom.schriftgestaltung.Glyphs.lastChange
p1
V2015-12-22 14:16:56 +0000
p2
s."
EndChar

StartChar: numbersign
Encoding: 35 35 294
GlifName: numbersign
Width: 575
VWidth: 0
Flags: W
LayerCount: 2
Fore
SplineSet
436 270 m 257
 461 424 l 257
 527 424 l 258
 543 424 553 433 556 449 c 258
 560 476 l 258
 562 492 555 501 539 501 c 258
 473 501 l 257
 500 675 l 258
 503 692 495 700 479 700 c 258
 444 700 l 258
 427 700 418 691 415 675 c 258
 388 501 l 257
 268 501 l 257
 295 675 l 258
 298 692 290 700 274 700 c 258
 239 700 l 258
 223 700 213 691 210 675 c 258
 183 501 l 257
 116 501 l 258
 100 501 89 492 87 475 c 258
 83 449 l 258
 80 433 88 424 104 424 c 258
 171 424 l 257
 146 270 l 257
 79 270 l 258
 63 270 53 261 50 244 c 258
 46 218 l 258
 43 202 51 193 67 193 c 258
 134 193 l 257
 107 25 l 258
 105 9 112 0 128 0 c 258
 163 0 l 258
 179 0 190 9 192 25 c 258
 219 193 l 257
 339 193 l 257
 312 25 l 258
 310 9 316 0 333 0 c 258
 368 0 l 258
 384 0 395 9 397 25 c 258
 424 193 l 257
 490 193 l 258
 506 193 516 202 519 218 c 258
 523 245 l 258
 526 261 518 270 502 270 c 258
 436 270 l 257
256 424 m 257
 376 424 l 257
 351 270 l 257
 231 270 l 257
 256 424 l 257
EndSplineSet
PickledDataWithLists: "(dp0
Vcom.schriftgestaltung.Glyphs.lastChange
p1
V2015-12-23 09:14:39 +0000
p2
s."
EndChar

StartChar: o
Encoding: 111 111 295
GlifName: o
Width: 575
VWidth: 0
Flags: W
AnchorPoint: "bottom" 248 0 basechar 0
AnchorPoint: "ogonek" 477 10 basechar 0
AnchorPoint: "top" 328 550 basechar 0
AnchorPoint: "topright" 595 500 basechar 0
AnchorPoint: "center" 288 250 basechar 0
LayerCount: 2
Fore
SplineSet
79 189 m 256
 79 49 155 -12 250 -12 c 256
 410 -12 496 155 496 315 c 256
 496 452 426 512 332 512 c 256
 171 512 79 347 79 189 c 256
  PathStart: -2
165 200 m 256
 165 300 216 435 317 435 c 256
 375 435 410 390 410 300 c 256
 410 200 359 65 259 65 c 256
 201 65 165 111 165 200 c 256
  PathStart: -2
EndSplineSet
PickledDataWithLists: "(dp0
Vcom.schriftgestaltung.Glyphs.lastChange
p1
V2016-06-09 18:35:33 +0000
p2
s."
EndChar

StartChar: oe
Encoding: 339 339 299
GlifName: oe
Width: 575
VWidth: 0
Flags: W
LayerCount: 2
Fore
SplineSet
456 57 m 258
 455 73 446 79 429 76 c 256
 391 70 367 67 362 67 c 256
 330 67 321 122 336 222 c 257
 481 222 l 258
 497 222 507 231 510 247 c 256
 518 297 521 330 521 363 c 256
 521 459 488 510 424 510 c 256
 389 510 357 493 329 442 c 257
 317 494 291 512 257 512 c 256
 132 512 75 297 75 141 c 256
 75 42 107 -12 169 -12 c 256
 206 -12 239 7 270 67 c 257
 283 8 311 -10 350 -10 c 256
 362 -10 391 -6 434 1 c 256
 451 4 460 15 458 31 c 258
 456 57 l 258
159 133 m 256
 159 214 192 435 242 435 c 256
 258 435 266 412 266 368 c 256
 266 286 233 65 183 65 c 256
 167 65 159 89 159 133 c 256
  PathStart: -2
349 299 m 257
 368 386 389 434 412 434 c 256
 435 434 443 386 433 299 c 257
 349 299 l 257
EndSplineSet
PickledDataWithLists: "(dp0
Vcom.schriftgestaltung.Glyphs.lastChange
p1
V2016-06-09 18:35:34 +0000
p2
s."
EndChar

StartChar: ogonek
Encoding: 731 731 300
GlifName: ogonek
Width: 575
VWidth: 0
Flags: W
AnchorPoint: "ogonek" 314 5 mark 0
LayerCount: 2
Fore
SplineSet
251 28 m 256
 191 -13 183 -53 178 -83 c 256
 171 -131 187 -177 216 -212 c 256
 226 -224 239 -223 251 -211 c 258
 276 -188 l 258
 289 -176 289 -165 281 -152 c 256
 267 -131 260 -105 268 -53 c 256
 271 -37 279 -14 286 6 c 256
 293 21 291 30 283 34 c 256
 273 37 264 36 251 28 c 256
  PathStart: -2
EndSplineSet
PickledDataWithLists: "(dp0
Vcom.schriftgestaltung.Glyphs.lastChange
p1
V2015-12-22 16:32:43 +0000
p2
s."
EndChar

StartChar: omega
Encoding: 969 969 304
GlifName: omega
Width: 575
VWidth: 0
Flags: W
LayerCount: 2
Fore
SplineSet
456 453 m 257
 449 438 454 431 463 421 c 256
 478 406 480 377 473 330 c 258
 447 170 l 258
 436 97 412 67 366 67 c 256
 320 67 306 97 317 170 c 258
 339 305 l 258
 341 321 334 330 318 330 c 258
 283 330 l 258
 267 330 256 321 254 305 c 258
 232 170 l 258
 221 97 197 67 151 67 c 256
 115 67 98 86 98 129 c 256
 98 141 100 154 102 170 c 258
 128 330 l 258
 135 377 147 406 166 421 c 256
 179 431 186 438 183 453 c 257
 176 484 l 258
 173 498 163 505 148 500 c 257
 90 479 58 425 43 330 c 258
 17 170 l 258
 14 148 12 128 12 110 c 256
 12 26 52 -10 139 -10 c 256
 191 -10 229 7 257 55 c 257
 269 7 302 -10 354 -10 c 256
 460 -10 512 43 532 170 c 258
 558 330 l 258
 562 353 563 373 563 391 c 256
 563 449 545 484 507 500 c 257
 492 505 480 498 473 484 c 258
 456 453 l 257
EndSplineSet
PickledDataWithLists: "(dp0
Vcom.schriftgestaltung.Glyphs.lastChange
p1
V2015-12-22 12:55:46 +0000
p2
s."
EndChar

StartChar: one
Encoding: 49 49 306
GlifName: one
Width: 575
VWidth: 0
Flags: W
LayerCount: 2
Fore
SplineSet
335 77 m 257
 429 675 l 258
 432 691 424 700 408 700 c 258
 389 700 l 258
 375 700 365 694 357 680 c 256
 320 618 263 597 165 597 c 256
 149 597 139 588 136 572 c 258
 132 545 l 258
 129 529 137 520 153 520 c 258
 320 520 l 257
 250 77 l 257
 83 77 l 258
 67 77 56 68 54 52 c 258
 49 25 l 258
 47 9 54 0 70 0 c 258
 425 0 l 258
 442 0 452 9 454 25 c 258
 459 52 l 258
 461 68 455 77 438 77 c 258
 335 77 l 257
EndSplineSet
PickledDataWithLists: "(dp0
Vcom.schriftgestaltung.Glyphs.lastChange
p1
V2015-12-22 20:51:40 +0000
p2
s."
EndChar

StartChar: one.dnom
Encoding: 65573 -1 307
GlifName: one.dnom
Width: 250
VWidth: 0
Flags: W
LayerCount: 2
Fore
SplineSet
161 49 m 257
 207 338 l 257
 209 350 200 360 186 360 c 257
 176 360 l 257
 165 360 154 353 149 344 c 257
 132 316 111 309 64 309 c 257
 50 309 38 297 37 286 c 257
 35 273 l 257
 33 262 41 250 55 250 c 257
 127 250 l 257
 95 49 l 257
 23 49 l 257
 9 49 -3 37 -4 26 c 257
 -7 13 l 257
 -8 2 -1 -10 14 -10 c 257
 192 -10 l 257
 206 -10 218 2 219 13 c 257
 222 26 l 257
 223 37 216 49 201 49 c 257
 161 49 l 257
EndSplineSet
PickledDataWithLists: "(dp0
Vcom.schriftgestaltung.Glyphs.Export
p1
I00
sVcom.schriftgestaltung.Glyphs.lastChange
p2
V2015-12-22 13:04:47 +0000
p3
s."
EndChar

StartChar: one.hex
Encoding: 65574 -1 308
GlifName: one.hex
Width: 575
VWidth: 0
Flags: W
LayerCount: 2
Fore
SplineSet
646 875 m 258
 646 891 637 900 621 900 c 258
 586 900 l 258
 570 900 561 891 561 875 c 258
 561 829 l 258
 561 813 569 804 586 804 c 258
 621 804 l 258
 637 804 646 812 646 829 c 258
 646 875 l 258
EndSplineSet
Refer: 306 49 N 1 0 0 1 0 0 2
PickledDataWithLists: "(dp0
Vcom.schriftgestaltung.Glyphs.lastChange
p1
V2016-02-10 13:18:28 +0000
p2
s."
EndChar

StartChar: onedotenleader
Encoding: 8228 8228 310
GlifName: onedotenleader
Width: 575
VWidth: 0
Flags: W
LayerCount: 2
Fore
SplineSet
174 25 m 258
 172 9 179 0 195 0 c 258
 300 0 l 258
 317 0 327 9 329 25 c 258
 343 112 l 258
 346 129 339 137 322 137 c 258
 217 137 l 258
 201 137 191 129 188 112 c 258
 174 25 l 258
EndSplineSet
PickledDataWithLists: "(dp0
Vcom.schriftgestaltung.Glyphs.lastChange
p1
V2015-12-23 09:15:15 +0000
p2
s."
EndChar

StartChar: ordfeminine
Encoding: 170 170 314
GlifName: ordfeminine
Width: 575
VWidth: 0
Flags: W
LayerCount: 2
Fore
SplineSet
488 695 m 258
 491 712 482 724 466 727 c 258
 465 727 l 257
 424 732 387 733 368 733 c 256
 243 733 171 651 171 509 c 256
 171 416 205 367 271 367 c 256
 302 367 336 379 366 401 c 257
 366 402 l 257
 363 385 373 373 390 373 c 258
 415 373 l 258
 428 373 439 384 443 401 c 257
 488 695 l 258
380 489 m 257
 348 455 316 437 291 437 c 256
 262 437 249 460 249 519 c 256
 249 613 288 663 360 663 c 256
 370 663 387 662 407 661 c 257
 380 489 l 257
EndSplineSet
PickledDataWithLists: "(dp0
Vcom.schriftgestaltung.Glyphs.lastChange
p1
V2016-06-09 18:35:34 +0000
p2
s."
EndChar

StartChar: ordmasculine
Encoding: 186 186 315
GlifName: ordmasculine
Width: 575
VWidth: 0
Flags: W
AnchorPoint: "bottom" 261 83 basechar 0
AnchorPoint: "ogonek" 414 90 basechar 0
AnchorPoint: "top" 315 450 basechar 0
AnchorPoint: "topright" 493 417 basechar 0
AnchorPoint: "center" 288 250 basechar 0
LayerCount: 2
Fore
SplineSet
201 489 m 256
 201 399 247 345 325 345 c 256
 425 345 499 444 499 573 c 256
 499 662 455 715 379 715 c 256
 277 715 201 616 201 489 c 256
  PathStart: -2
278 497 m 256
 278 576 319 643 369 643 c 256
 403 643 421 617 421 563 c 256
 421 484 380 417 331 417 c 256
 297 417 278 444 278 497 c 256
  PathStart: -2
EndSplineSet
PickledDataWithLists: "(dp0
Vcom.schriftgestaltung.Glyphs.lastChange
p1
V2016-06-09 18:35:34 +0000
p2
s."
EndChar

StartChar: oslash
Encoding: 248 248 316
GlifName: oslash
Width: 575
VWidth: 0
Flags: W
LayerCount: 2
Fore
SplineSet
388 559 m 258
 98 -40 l 258
 91 -55 97 -67 112 -73 c 258
 145 -86 l 258
 160 -92 170 -87 177 -72 c 258
 467 527 l 258
 475 542 469 554 453 560 c 258
 421 573 l 258
 406 579 396 574 388 559 c 258
  PathStart: -2
EndSplineSet
Refer: 295 111 N 1 0 0 1 0 0 2
PickledDataWithLists: "(dp0
Vcom.schriftgestaltung.Glyphs.lastChange
p1
V2016-06-09 18:35:33 +0000
p2
s."
EndChar

StartChar: p
Encoding: 112 112 318
GlifName: p
Width: 575
VWidth: 0
Flags: W
AnchorPoint: "top" 328 550 basechar 0
AnchorPoint: "bottom" 248 0 basechar 0
LayerCount: 2
Fore
SplineSet
67 -250 m 258
 83 -250 94 -241 96 -225 c 258
 129 -6 l 257
 165 -9 197 -10 217 -10 c 256
 417 -10 497 120 497 311 c 256
 497 454 438 510 362 510 c 256
 311 510 252 485 199 437 c 257
 205 475 l 258
 208 491 200 500 184 500 c 258
 147 500 l 258
 131 500 123 486 120 470 c 258
 11 -225 l 258
 8 -241 16 -250 32 -250 c 258
 67 -250 l 258
186 349 m 257
 238 405 291 434 332 434 c 256
 379 434 411 396 411 296 c 256
 411 164 365 66 229 66 c 256
 211 66 179 67 141 70 c 257
 186 349 l 257
EndSplineSet
PickledDataWithLists: "(dp0
Vcom.schriftgestaltung.Glyphs.lastChange
p1
V2016-06-09 18:35:34 +0000
p2
sVcom.typemytype.robofont.layerData
p3
(dp4
Vbackground
p5
(dp6
Vanchors
p7
(lp8
sVcomponents
p9
(lp10
sVcontours
p11
(lp12
(dp13
Vpoints
p14
(lp15
(dp16
VsegmentType
p17
Vline
p18
sVsmooth
p19
I01
sVx
p20
I74
sVy
p21
I-200
sa(dp22
g19
I00
sg20
I90
sg21
I-200
sa(dp23
g19
I00
sg20
I101
sg21
I-191
sa(dp24
g17
Vcurve
p25
sg19
I01
sg20
I103
sg21
I-175
sa(dp26
g17
Vline
p27
sg19
I00
sg20
I129
sg21
I-6
sa(dp28
g19
I00
sg20
I165
sg21
I-9
sa(dp29
g19
I00
sg20
I197
sg21
I-10
sa(dp30
g17
Vcurve
p31
sg19
I01
sg20
I217
sg21
I-10
sa(dp32
g19
I00
sg20
I358
sg21
I-10
sa(dp33
g19
I00
sg20
I456
sg21
I36
sa(dp34
g17
Vcurve
p35
sg19
I01
sg20
I490
sg21
I250
sa(dp36
g19
I00
sg20
I519
sg21
I431
sa(dp37
g19
I00
sg20
I452
sg21
I510
sa(dp38
g17
Vcurve
p39
sg19
I01
sg20
I362
sg21
I510
sa(dp40
g19
I00
sg20
I311
sg21
I510
sa(dp41
g19
I00
sg20
I252
sg21
I485
sa(dp42
g17
Vcurve
p43
sg19
I00
sg20
I199
sg21
I437
sa(dp44
g17
Vline
p45
sg19
I01
sg20
I205
sg21
I475
sa(dp46
g19
I00
sg20
I208
sg21
I491
sa(dp47
g19
I00
sg20
I200
sg21
I500
sa(dp48
g17
Vcurve
p49
sg19
I01
sg20
I184
sg21
I500
sa(dp50
g17
Vline
p51
sg19
I01
sg20
I147
sg21
I500
sa(dp52
g19
I00
sg20
I131
sg21
I500
sa(dp53
g19
I00
sg20
I123
sg21
I486
sa(dp54
g17
Vcurve
p55
sg19
I01
sg20
I120
sg21
I470
sa(dp56
g17
Vline
p57
sg19
I01
sg20
I18
sg21
I-175
sa(dp58
g19
I00
sg20
I15
sg21
I-191
sa(dp59
g19
I00
sg20
I23
sg21
I-200
sa(dp60
g17
Vcurve
p61
sg19
I01
sg20
I39
sg21
I-200
sasa(dp62
g14
(lp63
(dp64
g17
Vline
p65
sg19
I00
sg20
I186
sg21
I349
sa(dp66
g19
I00
sg20
I238
sg21
I405
sa(dp67
g19
I00
sg20
I291
sg21
I434
sa(dp68
g17
Vcurve
p69
sg19
I01
sg20
I332
sg21
I434
sa(dp70
g19
I00
sg20
I390
sg21
I434
sa(dp71
g19
I00
sg20
I425
sg21
I376
sa(dp72
g17
Vcurve
p73
sg19
I01
sg20
I405
sg21
I250
sa(dp74
g19
I00
sg20
I381
sg21
I98
sa(dp75
g19
I00
sg20
I328
sg21
I66
sa(dp76
g17
Vcurve
p77
sg19
I01
sg20
I229
sg21
I66
sa(dp78
g19
I00
sg20
I211
sg21
I66
sa(dp79
g19
I00
sg20
I179
sg21
I67
sa(dp80
g17
Vcurve
p81
sg19
I00
sg20
I141
sg21
I70
sasasVlib
p82
(dp83
sVname
p84
Vp
p85
sVunicodes
p86
(lp87
sVwidth
p88
I575
sss."
EndChar

StartChar: paragraph
Encoding: 182 182 319
GlifName: paragraph
Width: 575
VWidth: 0
Flags: W
LayerCount: 2
Fore
SplineSet
321 700 m 258
 177 700 117 615 100 511 c 256
 98 495 96 480 96 466 c 256
 96 384 138 322 261 322 c 257
 199 -75 l 258
 196 -91 204 -100 220 -100 c 258
 255 -100 l 258
 272 -100 281 -91 284 -75 c 258
 402 675 l 258
 405 692 398 700 381 700 c 258
 321 700 l 258
531 700 m 258
 515 700 505 691 502 675 c 258
 384 -75 l 258
 381 -91 389 -100 405 -100 c 258
 440 -100 l 258
 457 -100 466 -91 469 -75 c 258
 587 675 l 258
 590 692 583 700 566 700 c 258
 531 700 l 258
EndSplineSet
PickledDataWithLists: "(dp0
Vcom.schriftgestaltung.Glyphs.lastChange
p1
V2016-05-30 08:36:51 +0000
p2
s."
EndChar

StartChar: parenleft
Encoding: 40 40 320
GlifName: parenleft
Width: 575
VWidth: 0
Flags: W
LayerCount: 2
Fore
SplineSet
536 725 m 258
 539 742 531 750 515 750 c 256
 285 750 112 442 112 178 c 256
 112 -28 214 -178 368 -178 c 256
 384 -178 394 -170 397 -153 c 258
 401 -127 l 258
 404 -110 397 -102 380 -102 c 256
 270 -102 198 18 198 184 c 256
 198 396 324 674 503 674 c 256
 520 674 529 682 532 699 c 258
 536 725 l 258
EndSplineSet
PickledDataWithLists: "(dp0
Vcom.schriftgestaltung.Glyphs.lastChange
p1
V2016-05-19 19:23:15 +0000
p2
s."
EndChar

StartChar: parenright
Encoding: 41 41 321
GlifName: parenright
Width: 575
VWidth: 0
Flags: W
LayerCount: 2
Fore
SplineSet
40 -153 m 258
 37 -170 45 -178 61 -178 c 256
 291 -178 464 130 464 394 c 256
 464 600 362 750 208 750 c 256
 192 750 182 742 179 725 c 258
 175 699 l 258
 172 682 179 674 196 674 c 256
 306 674 378 554 378 388 c 256
 378 176 252 -102 73 -102 c 256
 56 -102 47 -110 44 -127 c 258
 40 -153 l 258
EndSplineSet
PickledDataWithLists: "(dp0
Vcom.schriftgestaltung.Glyphs.lastChange
p1
V2016-05-19 19:22:51 +0000
p2
s."
EndChar

StartChar: partialdiff
Encoding: 8706 8706 322
GlifName: partialdiff
Width: 575
VWidth: 0
Flags: W
LayerCount: 2
Fore
SplineSet
500 366 m 256
 500 486 471 618 415 749 c 256
 409 763 398 766 382 758 c 258
 353 743 l 258
 337 735 332 722 340 708 c 256
 369 650 392 579 406 508 c 257
 387 510 370 511 358 510 c 256
 177 509 76 353 76 173 c 256
 76 51 136 -11 247 -11 c 256
 423 -11 500 166 500 366 c 256
  PathStart: -1
346 434 m 256
 366 434 390 432 414 428 c 257
 416 412 416 395 416 378 c 256
 416 224 373 58 252 67 c 256
 193 70 163 110 163 189 c 256
 163 307 225 433 346 434 c 256
  PathStart: -1
EndSplineSet
PickledDataWithLists: "(dp0
Vcom.schriftgestaltung.Glyphs.lastChange
p1
V2015-12-22 14:17:42 +0000
p2
s."
EndChar

StartChar: percent
Encoding: 37 37 323
GlifName: percent
Width: 575
VWidth: 0
Flags: W
LayerCount: 2
Fore
SplineSet
47 66 m 258
 57 55 69 55 82 66 c 258
 560 479 l 258
 573 490 575 503 565 514 c 258
 544 535 l 258
 534 546 522 545 509 534 c 258
 32 122 l 258
 18 110 17 98 27 87 c 258
 47 66 l 258
143 600 m 258
 126 600 117 592 114 575 c 258
 100 485 l 258
 98 469 105 460 121 460 c 258
 221 460 l 258
 237 460 248 469 250 485 c 258
 264 575 l 258
 267 592 259 600 243 600 c 258
 143 600 l 258
371 140 m 258
 354 140 344 132 342 115 c 258
 327 25 l 258
 325 9 332 0 348 0 c 258
 448 0 l 258
 464 0 475 9 477 25 c 258
 492 115 l 258
 494 132 487 140 471 140 c 258
 371 140 l 258
EndSplineSet
PickledDataWithLists: "(dp0
Vcom.schriftgestaltung.Glyphs.lastChange
p1
V2015-12-22 14:18:08 +0000
p2
s."
EndChar

StartChar: period
Encoding: 46 46 324
GlifName: period
Width: 575
VWidth: 0
Flags: W
LayerCount: 2
Fore
SplineSet
220 140 m 258
 204 140 193 132 191 115 c 258
 176 25 l 258
 174 9 181 0 197 0 c 258
 297 0 l 258
 314 0 324 9 326 25 c 258
 341 115 l 258
 343 132 336 140 320 140 c 258
 220 140 l 258
EndSplineSet
PickledDataWithLists: "(dp0
Vcom.schriftgestaltung.Glyphs.lastChange
p1
V2015-12-23 09:15:27 +0000
p2
s."
EndChar

StartChar: periodcentered
Encoding: 183 183 325
GlifName: periodcentered
Width: 575
VWidth: 0
Flags: W
LayerCount: 2
Fore
SplineSet
334 274 m 258
 336 290 330 299 313 299 c 258
 278 299 l 258
 262 299 251 290 249 273 c 258
 241 227 l 258
 239 211 246 202 262 202 c 258
 297 202 l 258
 314 202 324 211 326 227 c 258
 334 274 l 258
EndSplineSet
PickledDataWithLists: "(dp0
Vcom.schriftgestaltung.Glyphs.lastChange
p1
V2015-12-22 20:53:09 +0000
p2
s."
EndChar

StartChar: perthousand
Encoding: 8240 8240 326
GlifName: perthousand
Width: 575
VWidth: 0
Flags: W
LayerCount: 2
Fore
SplineSet
12 66 m 258
 22 55 34 55 47 66 c 258
 525 479 l 258
 538 490 540 503 530 514 c 258
 509 535 l 258
 499 546 487 545 474 534 c 258
 -3 122 l 258
 -17 110 -18 98 -8 87 c 258
 12 66 l 258
143 600 m 258
 126 600 117 592 114 575 c 258
 100 485 l 258
 98 469 105 460 121 460 c 258
 221 460 l 258
 237 460 248 469 250 485 c 258
 264 575 l 258
 267 592 259 600 243 600 c 258
 143 600 l 258
236 140 m 258
 219 140 209 132 207 115 c 258
 192 25 l 258
 190 9 197 0 213 0 c 258
 288 0 l 258
 304 0 315 9 317 25 c 258
 332 115 l 258
 334 132 327 140 311 140 c 258
 236 140 l 258
441 140 m 258
 424 140 414 132 412 115 c 258
 397 25 l 258
 395 9 402 0 418 0 c 258
 493 0 l 258
 509 0 520 9 522 25 c 258
 537 115 l 258
 539 132 532 140 516 140 c 258
 441 140 l 258
EndSplineSet
PickledDataWithLists: "(dp0
Vcom.schriftgestaltung.Glyphs.lastChange
p1
V2015-12-22 14:18:32 +0000
p2
s."
EndChar

StartChar: phi
Encoding: 966 966 327
GlifName: phi
Width: 575
VWidth: 0
Flags: W
LayerCount: 2
Fore
SplineSet
259 330 m 258
 218 77 l 257
 143 77 110 104 110 168 c 256
 110 181 112 195 114 210 c 258
 143 395 l 258
 146 412 139 420 122 420 c 258
 87 420 l 258
 71 420 61 412 58 395 c 258
 29 210 l 258
 25 187 23 166 23 146 c 256
 23 43 79 0 205 0 c 257
 190 -96 l 258
 188 -113 195 -121 211 -121 c 258
 246 -121 l 258
 263 -121 273 -113 275 -96 c 258
 290 0 l 257
 439 0 510 61 534 210 c 258
 553 330 l 258
 557 353 558 373 558 392 c 256
 558 474 520 510 436 510 c 256
 331 510 279 457 259 330 c 258
  PathStart: -2
449 210 m 258
 434 116 392 77 303 77 c 257
 343 333 l 258
 354 404 378 433 424 433 c 256
 457 433 472 415 472 373 c 256
 472 361 470 346 468 330 c 258
 449 210 l 258
EndSplineSet
PickledDataWithLists: "(dp0
Vcom.schriftgestaltung.Glyphs.lastChange
p1
V2015-12-22 12:48:44 +0000
p2
s."
EndChar

StartChar: pi
Encoding: 960 960 328
GlifName: pi
Width: 575
VWidth: 0
Flags: W
LayerCount: 2
Fore
SplineSet
168 424 m 257
 104 25 l 258
 102 9 109 0 125 0 c 258
 160 0 l 258
 177 0 187 9 189 25 c 258
 252 423 l 257
 377 423 l 257
 345 220 l 257
 332 135 323 80 338 23 c 256
 342 9 349 0 365 0 c 258
 400 0 l 258
 417 0 427 9 423 23 c 256
 408 80 417 135 430 220 c 257
 462 423 l 257
 507 423 l 257
 525 424 534 432 537 449 c 258
 541 475 l 258
 543 492 537 500 520 500 c 258
 135 500 l 258
 119 500 108 492 106 475 c 258
 102 449 l 258
 99 432 107 424 123 424 c 258
 168 424 l 257
EndSplineSet
PickledDataWithLists: "(dp0
Vcom.schriftgestaltung.Glyphs.lastChange
p1
V2015-12-22 16:32:58 +0000
p2
s."
EndChar

StartChar: plus
Encoding: 43 43 329
GlifName: plus
Width: 575
VWidth: 0
Flags: W
LayerCount: 2
Fore
SplineSet
526 264 m 258
 529 280 522 289 505 289 c 258
 336 289 l 257
 365 474 l 258
 368 491 361 499 344 499 c 258
 309 499 l 258
 293 499 283 490 280 474 c 258
 251 289 l 257
 82 289 l 258
 66 289 56 280 53 263 c 258
 49 237 l 258
 46 221 54 212 70 212 c 258
 239 212 l 257
 210 26 l 258
 207 10 215 1 231 1 c 258
 266 1 l 258
 283 1 292 10 295 26 c 258
 324 212 l 257
 493 212 l 258
 510 212 519 221 522 237 c 258
 526 264 l 258
EndSplineSet
PickledDataWithLists: "(dp0
Vcom.schriftgestaltung.Glyphs.lastChange
p1
V2015-12-22 14:19:00 +0000
p2
s."
EndChar

StartChar: plusminus
Encoding: 177 177 330
GlifName: plusminus
Width: 575
VWidth: 0
Flags: W
LayerCount: 2
Fore
SplineSet
362 452 m 257
 389 625 l 258
 392 641 385 650 368 650 c 258
 333 650 l 258
 317 650 307 641 304 625 c 258
 277 452 l 257
 108 452 l 258
 92 452 82 443 79 426 c 258
 75 400 l 258
 72 384 80 375 96 375 c 258
 265 375 l 257
 237 202 l 258
 235 186 242 177 258 177 c 258
 293 177 l 258
 310 177 320 185 322 202 c 258
 350 375 l 257
 519 375 l 258
 536 375 545 384 548 400 c 258
 552 427 l 258
 555 443 548 452 531 452 c 258
 362 452 l 257
15 25 m 258
 13 9 20 0 36 0 c 258
 459 0 l 258
 476 0 486 9 488 25 c 258
 493 52 l 258
 495 68 489 77 472 77 c 258
 49 77 l 258
 33 77 22 68 20 52 c 258
 15 25 l 258
EndSplineSet
PickledDataWithLists: "(dp0
Vcom.schriftgestaltung.Glyphs.lastChange
p1
V2015-12-22 14:19:26 +0000
p2
s."
EndChar

StartChar: product
Encoding: 8719 8719 331
GlifName: product
Width: 575
VWidth: 0
Flags: W
LayerCount: 2
Fore
SplineSet
148 699 m 258
 132 699 122 690 119 673 c 258
 115 647 l 258
 112 631 120 622 136 622 c 258
 179 622 l 257
 71 -58 l 258
 69 -74 76 -83 92 -83 c 258
 127 -83 l 258
 144 -83 154 -74 156 -58 c 258
 264 622 l 257
 429 622 l 257
 321 -58 l 258
 319 -74 326 -83 342 -83 c 258
 377 -83 l 258
 394 -83 404 -74 406 -58 c 258
 514 622 l 257
 559 622 l 258
 575 622 585 631 588 647 c 258
 592 674 l 258
 595 690 587 699 571 699 c 258
 148 699 l 258
EndSplineSet
PickledDataWithLists: "(dp0
Vcom.schriftgestaltung.Glyphs.lastChange
p1
V2015-12-22 14:19:57 +0000
p2
s."
EndChar

StartChar: psi
Encoding: 968 968 332
GlifName: psi
Width: 575
VWidth: 0
Flags: W
LayerCount: 2
Fore
SplineSet
520 500 m 258
 504 500 493 492 491 475 c 258
 449 210 l 258
 434 116 392 77 303 77 c 257
 366 475 l 258
 368 492 362 500 345 500 c 258
 310 500 l 258
 294 500 283 492 281 475 c 258
 218 77 l 257
 143 77 110 104 110 168 c 256
 110 181 112 195 114 210 c 258
 156 475 l 258
 158 492 152 500 135 500 c 258
 100 500 l 258
 84 500 73 492 71 475 c 258
 29 210 l 258
 25 187 23 166 23 146 c 256
 23 43 79 0 205 0 c 257
 190 -96 l 258
 188 -113 195 -121 211 -121 c 258
 246 -121 l 258
 263 -121 273 -113 275 -96 c 258
 290 0 l 257
 439 0 510 61 534 210 c 258
 576 475 l 258
 578 492 572 500 555 500 c 258
 520 500 l 258
EndSplineSet
PickledDataWithLists: "(dp0
Vcom.schriftgestaltung.Glyphs.lastChange
p1
V2015-12-22 12:55:00 +0000
p2
s."
EndChar

StartChar: question
Encoding: 63 63 334
GlifName: question
Width: 575
VWidth: 0
Flags: W
LayerCount: 2
Fore
SplineSet
129 651 m 258
 126 635 134 626 150 626 c 256
 339 625 454 579 454 503 c 256
 454 434 363 401 268 401 c 258
 207 401 l 258
 191 401 180 392 178 376 c 258
 155 230 l 258
 152 214 160 205 176 205 c 258
 211 205 l 258
 227 205 237 214 240 230 c 258
 255 327 l 257
 256 327 l 258
 401 327 540 390 540 510 c 256
 540 605 430 698 161 700 c 256
 145 700 135 691 132 675 c 258
 129 651 l 258
121 25 m 258
 118 8 126 0 142 0 c 258
 177 0 l 258
 193 0 203 8 206 25 c 258
 213 72 l 258
 216 88 208 97 192 97 c 258
 157 97 l 258
 141 97 131 88 128 72 c 258
 121 25 l 258
EndSplineSet
PickledDataWithLists: "(dp0
Vcom.schriftgestaltung.Glyphs.lastChange
p1
V2015-12-23 09:17:54 +0000
p2
s."
EndChar

StartChar: quotedbl
Encoding: 34 34 336
GlifName: quotedbl
Width: 575
VWidth: 0
Flags: W
LayerCount: 2
Fore
SplineSet
225 750 m 258
 208 750 199 741 196 725 c 258
 164 437 l 258
 162 421 170 413 186 413 c 258
 213 413 l 258
 229 413 239 421 243 437 c 258
 300 725 l 258
 304 741 296 750 280 750 c 258
 225 750 l 258
454 750 m 258
 437 750 427 741 425 725 c 258
 393 437 l 258
 391 421 398 413 414 413 c 258
 442 413 l 258
 458 413 468 421 471 437 c 258
 529 725 l 258
 533 741 525 750 509 750 c 258
 454 750 l 258
EndSplineSet
PickledDataWithLists: "(dp0
Vcom.schriftgestaltung.Glyphs.lastChange
p1
V2015-12-23 09:18:16 +0000
p2
s."
EndChar

StartChar: quotereversed
Encoding: 8219 8219 341
GlifName: quotereversed
Width: 575
VWidth: 0
Flags: W
LayerCount: 2
Fore
SplineSet
292 724 m 258
 279 632 l 258
 274 605 272 580 272 556 c 256
 272 482 297 427 370 427 c 256
 386 427 396 435 400 451 c 258
 403 478 l 258
 407 494 399 503 383 503 c 256
 344 503 345 559 359 634 c 257
 384 634 l 258
 400 634 409 643 413 659 c 258
 422 724 l 258
 426 741 418 749 401 749 c 258
 321 749 l 258
 305 749 296 741 292 724 c 258
  PathStart: -2
EndSplineSet
PickledDataWithLists: "(dp0
Vcom.schriftgestaltung.Glyphs.lastChange
p1
V2015-12-22 14:00:15 +0000
p2
s."
EndChar

StartChar: quotesinglbase
Encoding: 8218 8218 343
GlifName: quotesinglbase
Width: 575
VWidth: 0
Flags: W
LayerCount: 2
Fore
SplineSet
227 115 m 258
 210 115 200 107 198 90 c 258
 187 25 l 258
 185 9 192 0 208 0 c 258
 233 0 l 257
 223 -75 206 -131 167 -131 c 256
 151 -131 141 -140 139 -156 c 258
 134 -183 l 258
 132 -199 140 -207 156 -207 c 256
 252 -207 296 -111 313 -2 c 258
 328 90 l 258
 330 107 323 115 307 115 c 258
 227 115 l 258
EndSplineSet
PickledDataWithLists: "(dp0
Vcom.schriftgestaltung.Glyphs.lastChange
p1
V2015-12-22 14:00:50 +0000
p2
s."
EndChar

StartChar: quotesingle
Encoding: 39 39 344
GlifName: quotesingle
Width: 575
VWidth: 0
Flags: W
LayerCount: 2
Fore
SplineSet
339 750 m 258
 323 750 313 741 311 725 c 258
 278 437 l 258
 276 421 284 413 300 413 c 258
 328 413 l 258
 344 413 353 421 357 437 c 258
 415 725 l 258
 418 741 411 750 394 750 c 258
 339 750 l 258
EndSplineSet
PickledDataWithLists: "(dp0
Vcom.schriftgestaltung.Glyphs.lastChange
p1
V2015-12-22 13:46:53 +0000
p2
s."
EndChar

StartChar: r
Encoding: 114 114 345
GlifName: r
Width: 575
VWidth: 0
Flags: W
AnchorPoint: "top" 328 550 basechar 0
AnchorPoint: "bottom" 248 0 basechar 0
LayerCount: 2
Fore
SplineSet
206 475 m 258
 208 491 201 500 185 500 c 258
 148 500 l 258
 132 500 122 486 120 470 c 258
 49 25 l 258
 47 9 54 0 70 0 c 258
 105 0 l 258
 121 0 132 9 134 25 c 258
 186 349 l 257
 239 405 291 434 332 434 c 256
 378 434 415 422 415 349 c 256
 415 332 423 323 440 323 c 258
 475 323 l 258
 491 323 501 332 501 348 c 256
 505 479 440 510 362 510 c 256
 311 510 252 485 200 437 c 257
 206 475 l 258
EndSplineSet
PickledDataWithLists: "(dp0
Vcom.schriftgestaltung.Glyphs.lastChange
p1
V2016-06-09 18:35:34 +0000
p2
s."
EndChar

StartChar: radical
Encoding: 8730 8730 347
GlifName: radical
Width: 575
VWidth: 0
Flags: W
LayerCount: 2
Fore
SplineSet
453 701 m 258
 438 701 428 693 423 678 c 258
 236 107 l 257
 171 331 l 258
 167 344 159 350 145 350 c 258
 72 350 l 258
 56 350 46 342 43 325 c 258
 39 298 l 258
 36 282 43 273 60 273 c 258
 112 273 l 257
 189 19 l 258
 193 6 201 0 215 0 c 258
 235 0 l 258
 250 0 261 8 266 23 c 258
 477 624 l 257
 571 624 l 258
 588 624 598 632 600 649 c 258
 604 676 l 258
 607 692 600 701 583 701 c 258
 453 701 l 258
EndSplineSet
PickledDataWithLists: "(dp0
Vcom.schriftgestaltung.Glyphs.lastChange
p1
V2015-12-22 14:20:21 +0000
p2
s."
EndChar

StartChar: registered
Encoding: 174 174 349
GlifName: registered
Width: 575
VWidth: 0
Flags: W
LayerCount: 2
Fore
SplineSet
349 637 m 256
 280 637 208 609 151 561 c 256
 95 512 57 444 46 375 c 256
 35 307 52 238 92 190 c 256
 134 141 197 113 266 113 c 256
 334 113 408 141 463 190 c 256
 520 238 559 307 570 375 c 256
 581 444 563 512 522 561 c 256
 482 609 417 637 349 637 c 256
  PathStart: -2
276 176 m 256
 224 176 176 197 144 234 c 256
 113 271 100 323 108 375 c 256
 116 427 146 479 189 516 c 256
 232 553 287 575 339 575 c 256
 391 575 440 553 471 516 c 256
 502 479 515 427 507 375 c 256
 499 323 469 271 426 234 c 256
 384 197 328 176 276 176 c 256
  PathStart: -2
246 500 m 257
 230 500 219 492 217 475 c 258
 185 275 l 258
 182 259 190 250 206 250 c 258
 218 250 l 258
 235 250 244 259 247 275 c 258
 258 344 l 257
 287 344 l 257
 334 265 l 258
 341 255 349 250 362 250 c 258
 383 250 l 258
 404 250 413 264 403 281 c 258
 363 347 l 257
 375 349 386 353 396 359 c 256
 408 366 418 376 426 386 c 256
 433 397 439 410 441 422 c 256
 443 435 441 447 437 458 c 256
 433 469 426 478 416 485 c 256
 407 492 396 496 384 498 c 256
 372 500 360 500 347 500 c 257
 246 500 l 257
268 407 m 257
 273 438 l 257
 347 438 l 258
 358 438 380 435 378 422 c 256
 377 407 354 407 342 407 c 258
 268 407 l 257
EndSplineSet
PickledDataWithLists: "(dp0
Vcom.schriftgestaltung.Glyphs.lastChange
p1
V2015-12-22 14:24:37 +0000
p2
s."
EndChar

StartChar: rho
Encoding: 961 961 350
GlifName: rho
Width: 575
VWidth: 0
Flags: W
LayerCount: 2
Fore
SplineSet
10 -225 m 258
 7 -241 15 -250 31 -250 c 258
 66 -250 l 258
 82 -250 92 -241 95 -225 c 258
 130 -4 l 257
 167 -8 198 -9 218 -9 c 256
 417 -9 498 122 498 324 c 256
 498 462 446 512 330 512 c 256
 186 512 116 445 83 240 c 258
 10 -225 l 258
168 240 m 258
 192 391 234 435 318 435 c 256
 382 435 412 403 412 307 c 256
 412 169 367 68 230 68 c 256
 210 68 178 69 142 72 c 257
 168 240 l 258
EndSplineSet
PickledDataWithLists: "(dp0
Vcom.schriftgestaltung.Glyphs.lastChange
p1
V2015-12-22 12:46:09 +0000
p2
s."
EndChar

StartChar: ring
Encoding: 730 730 351
GlifName: ring
Width: 575
VWidth: 0
Flags: W
AnchorPoint: "top" 328 500 mark 0
LayerCount: 2
Fore
SplineSet
369 508 m 256
 436 508 484 545 493 604 c 256
 502 663 466 700 399 700 c 256
 332 700 284 663 275 604 c 256
 266 545 302 508 369 508 c 256
  PathStart: -2
379 569 m 256
 359 569 348 583 351 604 c 256
 355 626 370 639 390 639 c 256
 410 639 420 626 416 604 c 256
 413 583 399 569 379 569 c 256
  PathStart: -2
EndSplineSet
PickledDataWithLists: "(dp0
Vcom.schriftgestaltung.Glyphs.lastChange
p1
V2015-12-22 16:32:43 +0000
p2
s."
EndChar

StartChar: rtblock
Encoding: 9616 9616 352
GlifName: rtblock
Width: 575
VWidth: 0
Flags: W
LayerCount: 2
Fore
SplineSet
287 -250 m 257
 575 -250 l 257
 575 900 l 257
 287 900 l 257
 287 -250 l 257
EndSplineSet
PickledDataWithLists: "(dp0
Vcom.schriftgestaltung.Glyphs.lastChange
p1
V2016-06-10 08:26:49 +0000
p2
s."
EndChar

StartChar: s
Encoding: 115 115 353
GlifName: s
Width: 575
VWidth: 0
Flags: W
AnchorPoint: "top" 328 550 basechar 0
AnchorPoint: "bottom" 248 0 basechar 0
LayerCount: 2
Fore
SplineSet
471 469 m 258
 477 485 472 496 456 499 c 256
 410 508 366 510 340 510 c 256
 224 510 123 450 123 352 c 256
 123 285 176 232 279 222 c 256
 344 216 368 187 368 153 c 256
 368 99 305 67 230 67 c 256
 207 67 162 68 112 77 c 256
 96 79 85 73 79 57 c 258
 69 31 l 258
 63 15 68 4 85 1 c 256
 139 -8 186 -10 218 -10 c 256
 346 -10 455 56 455 165 c 256
 455 233 410 286 301 299 c 256
 241 306 209 333 209 366 c 256
 209 409 269 432 328 434 c 256
 355 435 385 432 427 425 c 256
 442 422 453 428 460 443 c 258
 471 469 l 258
EndSplineSet
PickledDataWithLists: "(dp0
Vcom.schriftgestaltung.Glyphs.lastChange
p1
V2016-06-09 18:35:34 +0000
p2
s."
EndChar

StartChar: section
Encoding: 167 167 358
GlifName: section
Width: 575
VWidth: 0
Flags: W
LayerCount: 2
Fore
SplineSet
372 710 m 256
 247 710 171 659 156 564 c 256
 147 509 170 462 222 428 c 257
 161 408 125 372 117 320 c 256
 106 250 146 210 266 172 c 256
 331 151 363 116 356 73 c 256
 349 32 305 8 229 7 c 256
 209 7 156 8 115 16 c 256
 99 19 87 13 81 -3 c 258
 71 -29 l 257
 64 -45 69 -56 85 -59 c 256
 132 -68 190 -70 216 -70 c 256
 347 -70 426 -19 441 76 c 256
 450 132 427 178 376 212 c 257
 436 232 472 269 480 321 c 256
 491 391 452 430 333 469 c 256
 267 489 234 524 241 568 c 256
 248 609 290 632 360 634 c 256
 379 634 417 632 458 625 c 256
 474 622 485 628 491 643 c 258
 502 669 l 258
 509 685 504 696 488 699 c 256
 442 708 398 710 372 710 c 256
  PathStart: -2
316 242 m 257
 298 248 l 258
 222 271 198 294 204 335 c 256
 209 364 235 386 278 400 c 257
 285 397 292 394 300 392 c 257
 375 369 400 346 393 306 c 256
 388 278 362 256 316 242 c 257
  PathStart: -2
EndSplineSet
PickledDataWithLists: "(dp0
Vcom.schriftgestaltung.Glyphs.lastChange
p1
V2015-12-22 14:24:59 +0000
p2
s."
EndChar

StartChar: semicolon
Encoding: 59 59 359
GlifName: semicolon
Width: 575
VWidth: 0
Flags: W
LayerCount: 2
Fore
SplineSet
278 500 m 258
 261 500 251 492 249 475 c 258
 234 385 l 258
 232 369 239 360 255 360 c 258
 355 360 l 258
 371 360 382 369 384 385 c 258
 399 475 l 258
 401 492 394 500 378 500 c 258
 278 500 l 258
221 140 m 258
 204 140 194 132 192 115 c 258
 177 25 l 258
 175 9 182 0 198 0 c 258
 238 0 l 257
 220 -125 169 -171 50 -171 c 256
 34 -171 25 -180 22 -196 c 258
 18 -223 l 258
 16 -239 23 -247 39 -247 c 256
 218 -247 295 -181 323 -2 c 258
 342 115 l 258
 344 132 337 140 321 140 c 258
 221 140 l 258
EndSplineSet
PickledDataWithLists: "(dp0
Vcom.schriftgestaltung.Glyphs.lastChange
p1
V2015-12-23 09:18:29 +0000
p2
s."
EndChar

StartChar: seven
Encoding: 55 55 360
GlifName: seven
Width: 575
VWidth: 0
Flags: W
LayerCount: 2
Fore
SplineSet
181 700 m 258
 165 700 155 692 152 675 c 258
 127 518 l 258
 125 502 132 493 148 493 c 258
 183 493 l 258
 200 493 210 501 212 518 c 258
 229 624 l 257
 489 624 l 257
 483 587 467 552 427 492 c 258
 309 312 l 258
 237 202 194 105 181 24 c 256
 179 8 185 0 202 0 c 258
 236 0 l 258
 253 0 264 8 266 24 c 257
 279 104 317 191 377 280 c 258
 504 465 l 258
 547 528 566 572 575 626 c 258
 582 676 l 258
 585 692 578 700 562 700 c 258
 181 700 l 258
EndSplineSet
PickledDataWithLists: "(dp0
Vcom.schriftgestaltung.Glyphs.lastChange
p1
V2015-12-22 20:52:37 +0000
p2
s."
EndChar

StartChar: seven.dnom
Encoding: 65576 -1 361
GlifName: seven.dnom
Width: 250
VWidth: 0
Flags: W
LayerCount: 2
Fore
SplineSet
72 360 m 257
 59 360 47 350 45 338 c 257
 32 259 l 257
 31 247 39 237 53 237 c 257
 71 237 l 257
 84 237 97 247 98 259 c 257
 105 302 l 257
 211 302 l 257
 207 288 199 273 184 250 c 257
 125 160 l 257
 88 104 66 54 59 12 c 257
 57 0 66 -10 80 -10 c 257
 97 -10 l 257
 111 -10 123 0 125 12 c 257
 131 51 150 93 178 135 c 257
 242 228 l 257
 265 261 276 285 280 313 c 257
 284 338 l 257
 286 350 277 360 263 360 c 257
 72 360 l 257
EndSplineSet
PickledDataWithLists: "(dp0
Vcom.schriftgestaltung.Glyphs.Export
p1
I00
sVcom.schriftgestaltung.Glyphs.lastChange
p2
V2015-12-22 13:07:01 +0000
p3
s."
EndChar

StartChar: seven.hex
Encoding: 65577 -1 362
GlifName: seven.hex
Width: 575
VWidth: 0
Flags: W
LayerCount: 2
Fore
SplineSet
358 875 m 258
 358 891 349 900 333 900 c 258
 298 900 l 258
 282 900 273 891 273 875 c 258
 273 829 l 258
 273 813 281 804 298 804 c 258
 333 804 l 258
 349 804 358 812 358 829 c 258
 358 875 l 258
502 875 m 258
 502 891 493 900 477 900 c 258
 442 900 l 258
 426 900 417 891 417 875 c 258
 417 829 l 258
 417 813 425 804 442 804 c 258
 477 804 l 258
 493 804 502 812 502 829 c 258
 502 875 l 258
646 875 m 258
 646 891 637 900 621 900 c 258
 586 900 l 258
 570 900 561 891 561 875 c 258
 561 829 l 258
 561 813 569 804 586 804 c 258
 621 804 l 258
 637 804 646 812 646 829 c 258
 646 875 l 258
EndSplineSet
Refer: 360 55 N 1 0 0 1 0 0 2
PickledDataWithLists: "(dp0
Vcom.schriftgestaltung.Glyphs.lastChange
p1
V2016-02-10 13:21:27 +0000
p2
s."
EndChar

StartChar: shade
Encoding: 9618 9618 365
GlifName: shade
Width: 575
VWidth: 0
Flags: W
LayerCount: 2
Fore
SplineSet
0 -250 m 257
 28 -250 l 257
 0 -194 l 257
 0 -250 l 257
143 -250 m 257
 171 -250 l 257
 0 92 l 257
 0 36 l 257
 143 -250 l 257
286 -250 m 257
 314 -250 l 257
 0 378 l 257
 0 322 l 257
 286 -250 l 257
429 -250 m 257
 457 -250 l 257
 0 664 l 257
 0 608 l 257
 429 -250 l 257
575 -250 m 257
 575 -194 l 257
 28 900 l 257
 0 900 l 257
 575 -250 l 257
575 36 m 257
 575 92 l 257
 171 900 l 257
 143 900 l 257
 575 36 l 257
575 322 m 257
 575 378 l 257
 314 900 l 257
 286 900 l 257
 575 322 l 257
575 608 m 257
 575 664 l 257
 457 900 l 257
 429 900 l 257
 575 608 l 257
EndSplineSet
PickledDataWithLists: "(dp0
Vcom.schriftgestaltung.Glyphs.lastChange
p1
V2016-06-10 08:26:49 +0000
p2
s."
EndChar

StartChar: sigma
Encoding: 963 963 366
GlifName: sigma
Width: 575
VWidth: 0
Flags: W
LayerCount: 2
Fore
SplineSet
532 423 m 258
 548 423 559 432 561 448 c 258
 566 475 l 258
 568 491 561 500 545 500 c 258
 355 500 l 258
 168 500 60 376 60 187 c 256
 60 61 126 -15 243 -15 c 256
 413 -15 513 115 513 287 c 256
 513 331 503 377 484 423 c 257
 532 423 l 258
396 423 m 257
 417 378 427 332 427 287 c 256
 427 168 372 62 255 62 c 256
 185 62 146 114 146 200 c 256
 146 332 210 423 342 423 c 258
 396 423 l 257
EndSplineSet
PickledDataWithLists: "(dp0
Vcom.schriftgestaltung.Glyphs.lastChange
p1
V2015-12-22 12:47:01 +0000
p2
s."
EndChar

StartChar: six
Encoding: 54 54 367
GlifName: six
Width: 575
VWidth: 0
Flags: W
LayerCount: 2
Fore
SplineSet
502 672 m 258
 507 688 502 699 487 702 c 256
 456 707 427 710 403 710 c 256
 178 710 55 461 55 223 c 256
 55 61 125 -10 242 -10 c 256
 390 -10 494 112 494 251 c 256
 494 365 418 429 313 429 c 256
 271 429 225 419 168 402 c 257
 215 586 313 632 393 632 c 256
 410 632 432 630 458 625 c 256
 474 622 485 629 491 644 c 257
 502 672 l 258
142 237 m 256
 142 262 145 284 150 317 c 257
 217 349 269 351 297 351 c 256
 366 351 407 312 407 240 c 256
 407 158 350 68 257 68 c 256
 193 68 142 112 142 237 c 256
EndSplineSet
PickledDataWithLists: "(dp0
Vcom.schriftgestaltung.Glyphs.lastChange
p1
V2015-12-22 20:52:27 +0000
p2
s."
EndChar

StartChar: six.dnom
Encoding: 65579 -1 368
GlifName: six.dnom
Width: 250
VWidth: 0
Flags: W
LayerCount: 2
Fore
SplineSet
244 334 m 257
 247 345 243 359 228 361 c 257
 213 364 197 365 182 365 c 256
 101 365 26 315 0 150 c 256
 -16 45 18 -15 101 -15 c 256
 177 -15 226 29 238 103 c 256
 248 167 211 210 146 210 c 256
 124 210 100 206 77 200 c 257
 99 286 132 306 173 306 c 256
 184 306 194 305 207 303 c 257
 220 300 234 310 239 319 c 257
 244 334 l 257
65 137 m 257
 93 146 115 151 136 151 c 256
 162 151 175 133 171 103 c 256
 164 58 148 44 110 44 c 256
 73 44 56 68 65 137 c 257
  PathStart: -2
EndSplineSet
PickledDataWithLists: "(dp0
Vcom.schriftgestaltung.Glyphs.Export
p1
I00
sVcom.schriftgestaltung.Glyphs.lastChange
p2
V2015-12-22 13:06:37 +0000
p3
s."
EndChar

StartChar: six.hex
Encoding: 65580 -1 369
GlifName: six.hex
Width: 575
VWidth: 0
Flags: W
LayerCount: 2
Fore
SplineSet
358 875 m 258
 358 891 349 900 333 900 c 258
 298 900 l 258
 282 900 273 891 273 875 c 258
 273 829 l 258
 273 813 281 804 298 804 c 258
 333 804 l 258
 349 804 358 812 358 829 c 258
 358 875 l 258
502 875 m 258
 502 891 493 900 477 900 c 258
 442 900 l 258
 426 900 417 891 417 875 c 258
 417 829 l 258
 417 813 425 804 442 804 c 258
 477 804 l 258
 493 804 502 812 502 829 c 258
 502 875 l 258
EndSplineSet
Refer: 367 54 N 1 0 0 1 0 0 2
PickledDataWithLists: "(dp0
Vcom.schriftgestaltung.Glyphs.lastChange
p1
V2016-02-10 13:21:08 +0000
p2
s."
EndChar

StartChar: sterling
Encoding: 163 163 373
GlifName: sterling
Width: 575
VWidth: 0
Flags: W
LayerCount: 2
Fore
SplineSet
522 518 m 258
 538 518 549 527 549 544 c 256
 549 631 520 710 400 710 c 256
 308 710 230 664 210 538 c 258
 186 389 l 257
 132 389 l 258
 116 389 106 380 103 363 c 258
 99 337 l 258
 96 321 104 312 120 312 c 258
 174 312 l 257
 137 77 l 257
 83 77 l 258
 67 77 56 68 54 52 c 258
 49 25 l 258
 47 9 54 0 70 0 c 258
 425 0 l 258
 442 0 452 9 454 25 c 258
 459 52 l 258
 461 68 455 77 438 77 c 258
 222 77 l 257
 259 312 l 257
 435 312 l 258
 451 312 461 321 464 337 c 258
 468 364 l 258
 471 380 463 389 447 389 c 258
 271 389 l 257
 295 538 l 258
 304 600 343 634 388 634 c 256
 445 634 462 588 462 544 c 256
 462 527 471 518 487 518 c 258
 522 518 l 258
EndSplineSet
PickledDataWithLists: "(dp0
Vcom.schriftgestaltung.Glyphs.lastChange
p1
V2015-12-22 14:04:47 +0000
p2
s."
EndChar

StartChar: summation
Encoding: 8721 8721 374
GlifName: summation
Width: 575
VWidth: 0
Flags: W
LayerCount: 2
Fore
SplineSet
592 674 m 257
 595 690 587 699 571 699 c 258
 148 699 l 258
 132 699 122 690 119 673 c 258
 116 656 l 258
 114 642 115 634 121 626 c 257
 353 349 l 257
 33 73 l 257
 25 65 21 57 19 43 c 258
 17 26 l 258
 14 9 21 0 37 0 c 258
 460 0 l 258
 476 0 487 9 489 25 c 258
 494 52 l 258
 496 68 489 77 473 77 c 258
 146 77 l 257
 442 332 l 258
 456 344 458 356 448 367 c 258
 232 622 l 257
 559 622 l 258
 575 622 585 631 588 647 c 257
 592 674 l 257
EndSplineSet
PickledDataWithLists: "(dp0
Vcom.schriftgestaltung.Glyphs.lastChange
p1
V2015-12-22 12:21:09 +0000
p2
s."
EndChar

StartChar: t
Encoding: 116 116 375
GlifName: t
Width: 575
VWidth: 0
Flags: W
AnchorPoint: "bottom" 248 0 basechar 0
AnchorPoint: "top" 328 500 basechar 0
AnchorPoint: "topright" 595 500 basechar 0
AnchorPoint: "center" 288 250 basechar 0
LayerCount: 2
Fore
SplineSet
456 57 m 258
 455 73 446 79 429 76 c 256
 385 69 345 67 322 67 c 256
 272 67 253 82 253 123 c 256
 253 131 253 141 255 152 c 258
 299 424 l 257
 463 424 l 258
 479 424 489 433 492 449 c 258
 496 475 l 258
 498 492 491 500 475 500 c 258
 311 500 l 257
 332 635 l 258
 335 651 327 660 311 660 c 258
 275 660 l 258
 259 660 249 651 246 635 c 258
 225 500 l 257
 150 500 l 258
 134 500 123 492 121 475 c 258
 117 449 l 258
 114 433 122 424 138 424 c 258
 214 424 l 257
 170 152 l 258
 167 135 166 119 166 105 c 256
 166 23 211 -10 310 -10 c 256
 337 -10 380 -9 435 1 c 256
 451 4 460 15 458 31 c 258
 456 57 l 258
EndSplineSet
PickledDataWithLists: "(dp0
Vcom.schriftgestaltung.Glyphs.lastChange
p1
V2016-06-09 18:35:34 +0000
p2
s."
EndChar

StartChar: tau
Encoding: 964 964 376
GlifName: tau
Width: 575
VWidth: 0
Flags: W
LayerCount: 2
Fore
SplineSet
475 57 m 257
 472 72 463 77 446 74 c 257
 420 68 396 67 380 67 c 256
 320 68 305 91 314 150 c 258
 357 423 l 257
 507 423 l 257
 525 424 534 432 537 449 c 258
 541 475 l 258
 543 492 537 500 520 500 c 257
 135 500 l 257
 119 500 108 492 106 475 c 258
 102 449 l 258
 99 432 107 424 123 424 c 258
 273 424 l 257
 229 150 l 258
 212 40 254 -10 368 -10 c 256
 388 -10 419 -9 457 0 c 256
 475 4 483 16 479 31 c 257
 475 57 l 257
EndSplineSet
PickledDataWithLists: "(dp0
Vcom.schriftgestaltung.Glyphs.lastChange
p1
V2016-05-30 08:33:06 +0000
p2
s."
EndChar

StartChar: tbar
Encoding: 359 359 377
GlifName: tbar
Width: 575
VWidth: 0
Flags: W
LayerCount: 2
Fore
SplineSet
447 68 m 257
 443 83 432 88 416 82 c 256
 388 72 364 68 339 68 c 256
 291 68 260 87 260 154 c 256
 260 172 262 191 267 224 c 257
 431 224 l 258
 447 224 457 233 460 249 c 258
 464 275 l 258
 467 292 459 300 443 300 c 258
 279 300 l 257
 299 424 l 257
 463 424 l 258
 479 424 489 433 492 449 c 258
 496 475 l 258
 498 492 491 500 475 500 c 258
 311 500 l 257
 332 635 l 258
 335 651 327 660 311 660 c 258
 276 660 l 258
 260 660 250 651 247 635 c 258
 226 500 l 257
 150 500 l 258
 134 500 123 492 121 475 c 258
 117 449 l 258
 114 433 122 424 138 424 c 258
 214 424 l 257
 194 300 l 257
 118 300 l 258
 102 300 92 292 89 275 c 258
 85 249 l 258
 82 233 90 224 106 224 c 258
 182 224 l 257
 176 187 174 168 174 148 c 256
 174 54 220 -10 327 -10 c 256
 362 -10 400 -2 435 10 c 257
 452 15 458 27 454 42 c 258
 447 68 l 257
EndSplineSet
PickledDataWithLists: "(dp0
Vcom.schriftgestaltung.Glyphs.lastChange
p1
V2016-06-09 18:35:34 +0000
p2
s."
EndChar

StartChar: therefore
Encoding: 8756 8756 379
GlifName: therefore
Width: 575
VWidth: 0
Flags: W
LayerCount: 2
Fore
SplineSet
44 86 m 258
 41 69 49 61 65 61 c 258
 170 61 l 258
 187 61 196 69 199 86 c 258
 213 173 l 258
 215 189 209 198 192 198 c 258
 87 198 l 258
 71 198 60 189 58 173 c 258
 44 86 l 258
324 86 m 258
 321 69 329 61 345 61 c 258
 450 61 l 258
 467 61 476 69 479 86 c 258
 493 173 l 258
 495 189 489 198 472 198 c 258
 367 198 l 258
 351 198 340 189 338 173 c 258
 324 86 l 258
232 388 m 258
 229 372 237 363 253 363 c 258
 358 363 l 258
 375 363 384 372 387 388 c 258
 401 475 l 258
 403 492 397 500 380 500 c 258
 275 500 l 258
 259 500 248 492 246 475 c 258
 232 388 l 258
EndSplineSet
PickledDataWithLists: "(dp0
Vcom.schriftgestaltung.Glyphs.lastChange
p1
V2015-12-22 14:20:54 +0000
p2
s."
EndChar

StartChar: theta
Encoding: 952 952 380
GlifName: theta
Width: 575
VWidth: 0
Flags: W
LayerCount: 2
Fore
SplineSet
99 350 m 256
 91 299 87 253 87 212 c 256
 87 65 140 -10 245 -10 c 256
 379 -10 467 112 504 350 c 256
 512 402 516 449 516 490 c 256
 516 636 464 710 359 710 c 256
 225 710 137 588 99 350 c 256
  PathStart: -2
191 389 m 257
 222 551 275 634 347 634 c 256
 402 634 431 584 431 485 c 256
 431 457 429 425 424 389 c 257
 191 389 l 257
412 311 m 257
 382 150 328 67 257 67 c 256
 201 67 172 118 172 217 c 256
 172 245 175 276 179 311 c 257
 412 311 l 257
EndSplineSet
PickledDataWithLists: "(dp0
Vcom.schriftgestaltung.Glyphs.lastChange
p1
V2015-12-22 16:32:52 +0000
p2
s."
EndChar

StartChar: thorn
Encoding: 254 254 381
GlifName: thorn
Width: 575
VWidth: 0
Flags: W
AnchorPoint: "top" 340 500 basechar 0
AnchorPoint: "bottom" 260 0 basechar 0
LayerCount: 2
Fore
SplineSet
237 676 m 257
 240 693 232 700 215 700 c 258
 180 700 l 258
 164 700 155 689 152 674 c 258
 18 -176 l 258
 15 -193 24 -200 40 -200 c 258
 75 -200 l 258
 91 -200 100 -190 103 -174 c 258
 130 -4 l 257
 167 -7 198 -8 218 -8 c 256
 416 -8 498 122 498 319 c 256
 498 461 437 512 300 512 c 256
 278 512 247 511 211 507 c 257
 237 676 l 257
199 432 m 257
 238 435 270 435 288 435 c 256
 378 435 412 403 412 305 c 256
 412 168 366 68 230 68 c 256
 210 68 178 69 142 72 c 257
 199 432 l 257
EndSplineSet
PickledDataWithLists: "(dp0
Vcom.schriftgestaltung.Glyphs.lastChange
p1
V2016-06-09 18:35:34 +0000
p2
s."
EndChar

StartChar: three
Encoding: 51 51 382
GlifName: three
Width: 575
VWidth: 0
Flags: W
LayerCount: 2
Fore
SplineSet
184 637 m 258
 186 622 196 617 213 621 c 256
 244 628 276 632 309 632 c 256
 390 632 440 610 440 539 c 256
 440 459 375 401 274 401 c 258
 223 401 l 258
 207 401 196 392 194 376 c 258
 190 349 l 258
 187 333 195 324 211 324 c 258
 262 324 l 258
 343 324 396 279 396 204 c 256
 396 115 325 68 214 68 c 256
 178 68 146 72 117 79 c 256
 102 83 90 78 83 63 c 258
 71 35 l 258
 65 20 68 8 83 4 c 256
 119 -5 160 -10 202 -10 c 256
 353 -10 481 66 481 202 c 256
 481 287 435 338 384 364 c 257
 469 407 527 466 527 553 c 256
 527 670 428 710 321 710 c 256
 281 710 240 705 203 696 c 256
 186 692 179 680 181 665 c 258
 184 637 l 258
EndSplineSet
PickledDataWithLists: "(dp0
Vcom.schriftgestaltung.Glyphs.lastChange
p1
V2015-12-22 20:51:58 +0000
p2
s."
EndChar

StartChar: three.dnom
Encoding: 65582 -1 383
GlifName: three.dnom
Width: 250
VWidth: 0
Flags: W
LayerCount: 2
Fore
SplineSet
60 316 m 258
 62 304 76 298 88 301 c 257
 87 301 l 257
 103 304 118 306 133 306 c 256
 173 306 192 294 187 263 c 256
 182 228 155 206 118 206 c 258
 93 206 l 258
 79 206 66 195 64 183 c 258
 62 170 l 258
 60 158 70 147 84 147 c 258
 109 147 l 258
 147 147 170 126 165 92 c 256
 159 56 133 44 89 44 c 256
 72 44 58 46 43 50 c 256
 31 53 16 45 11 35 c 258
 5 21 l 257
 1 10 3 -4 17 -8 c 256
 36 -13 58 -15 80 -15 c 256
 144 -15 219 13 232 92 c 256
 238 129 225 158 196 175 c 257
 230 193 248 222 254 263 c 256
 266 338 204 365 142 365 c 256
 121 365 99 363 80 358 c 256
 64 354 58 340 59 330 c 257
 60 316 l 258
EndSplineSet
PickledDataWithLists: "(dp0
Vcom.schriftgestaltung.Glyphs.Export
p1
I00
sVcom.schriftgestaltung.Glyphs.lastChange
p2
V2015-12-22 13:05:35 +0000
p3
s."
EndChar

StartChar: three.hex
Encoding: 65583 -1 384
GlifName: three.hex
Width: 575
VWidth: 0
Flags: W
LayerCount: 2
Fore
SplineSet
502 875 m 258
 502 891 494 900 477 900 c 258
 442 900 l 258
 426 900 417 891 417 875 c 258
 417 829 l 258
 417 813 426 804 442 804 c 258
 477 804 l 258
 494 804 502 812 502 829 c 258
 502 875 l 258
646 875 m 258
 646 891 637 900 621 900 c 258
 586 900 l 258
 570 900 561 891 561 875 c 258
 561 829 l 258
 561 813 569 804 586 804 c 258
 621 804 l 258
 637 804 646 812 646 829 c 258
 646 875 l 258
EndSplineSet
Refer: 382 51 N 1 0 0 1 0 0 2
PickledDataWithLists: "(dp0
Vcom.schriftgestaltung.Glyphs.lastChange
p1
V2016-02-10 13:19:26 +0000
p2
s."
EndChar

StartChar: tilde
Encoding: 732 732 388
GlifName: tilde
Width: 575
VWidth: 0
Flags: W
AnchorPoint: "top" 328 500 mark 0
LayerCount: 2
Fore
SplineSet
204 585 m 258
 215 577 228 579 240 591 c 256
 258 607 275 616 291 616 c 256
 309 616 332 608 353 593 c 256
 386 570 417 557 440 557 c 256
 478 557 521 581 563 626 c 256
 576 639 576 651 563 661 c 258
 552 670 l 258
 540 678 527 676 516 664 c 257
 498 647 478 638 459 638 c 256
 442 638 423 646 402 661 c 256
 370 685 339 698 315 698 c 256
 276 698 233 673 192 629 c 256
 180 615 180 603 192 594 c 258
 204 585 l 258
EndSplineSet
PickledDataWithLists: "(dp0
Vcom.schriftgestaltung.Glyphs.lastChange
p1
V2015-12-22 16:32:44 +0000
p2
s."
EndChar

StartChar: trademark
Encoding: 8482 8482 389
GlifName: trademark
Width: 575
VWidth: 0
Flags: W
LayerCount: 2
Fore
SplineSet
296 684 m 258
 297 694 292 699 282 699 c 258
 119 699 l 258
 109 699 103 693 102 684 c 258
 99 667 l 258
 97 657 102 651 112 651 c 258
 167 651 l 257
 122 371 l 258
 121 361 125 355 136 355 c 258
 157 355 l 258
 168 355 174 361 175 371 c 258
 220 651 l 257
 275 651 l 258
 285 651 291 657 293 667 c 258
 296 684 l 258
597 686 m 258
 599 696 595 702 584 702 c 256
 573 702 566 701 561 699 c 256
 550 695 545 689 539 680 c 258
 461 531 l 258
 456 524 450 518 442 518 c 256
 434 518 430 524 429 531 c 258
 396 679 l 258
 394 688 390 694 382 699 c 256
 375 701 371 702 360 702 c 256
 349 702 342 696 340 686 c 258
 290 371 l 258
 289 361 294 355 304 355 c 258
 325 355 l 258
 336 355 341 360 343 367 c 256
 353 434 368 531 375 590 c 257
 393 512 l 258
 399 490 414 478 436 478 c 256
 456 478 474 490 486 512 c 258
 532 590 l 257
 519 517 503 419 495 367 c 256
 493 360 499 355 509 355 c 258
 530 355 l 258
 540 355 546 361 547 371 c 258
 597 686 l 258
EndSplineSet
PickledDataWithLists: "(dp0
Vcom.schriftgestaltung.Glyphs.lastChange
p1
V2015-12-22 14:25:18 +0000
p2
s."
EndChar

StartChar: two
Encoding: 50 50 390
GlifName: two
Width: 575
VWidth: 0
Flags: W
LayerCount: 2
Fore
SplineSet
143 77 m 257
 160 144 233 194 312 248 c 256
 425 327 541 410 541 547 c 256
 541 663 449 710 338 710 c 256
 287 710 231 699 180 681 c 256
 164 675 158 664 161 649 c 258
 166 623 l 258
 170 608 180 603 197 608 c 256
 244 624 285 632 326 632 c 256
 406 632 454 605 454 535 c 256
 454 438 363 375 268 309 c 256
 190 256 73 183 52 48 c 258
 48 24 l 258
 46 8 53 -1 69 -1 c 258
 449 -1 l 258
 465 -1 476 8 478 24 c 258
 483 52 l 258
 485 68 478 77 462 77 c 258
 143 77 l 257
EndSplineSet
PickledDataWithLists: "(dp0
Vcom.schriftgestaltung.Glyphs.lastChange
p1
V2015-12-22 20:51:50 +0000
p2
s."
EndChar

StartChar: two.dnom
Encoding: 65585 -1 391
GlifName: two.dnom
Width: 250
VWidth: 0
Flags: W
LayerCount: 2
Fore
SplineSet
68 49 m 257
 80 73 108 93 142 116 c 256
 193 152 251 192 261 257 c 256
 273 333 216 365 151 365 c 256
 124 365 94 360 68 350 c 257
 55 345 46 332 49 321 c 257
 52 308 l 258
 55 297 68 291 81 295 c 257
 105 302 122 306 142 306 c 256
 180 306 200 292 194 257 c 256
 188 219 155 195 109 163 c 256
 69 136 6 97 -6 24 c 258
 -8 12 l 258
 -10 0 0 -11 14 -11 c 258
 204 -11 l 258
 218 -11 230 1 231 12 c 258
 234 26 l 258
 235 37 228 49 213 49 c 258
 68 49 l 257
EndSplineSet
PickledDataWithLists: "(dp0
Vcom.schriftgestaltung.Glyphs.Export
p1
I00
sVcom.schriftgestaltung.Glyphs.lastChange
p2
V2015-12-22 13:05:14 +0000
p3
s."
EndChar

StartChar: two.hex
Encoding: 65586 -1 392
GlifName: two.hex
Width: 575
VWidth: 0
Flags: W
LayerCount: 2
Fore
SplineSet
502 875 m 258
 502 891 494 900 477 900 c 258
 442 900 l 258
 426 900 417 891 417 875 c 258
 417 829 l 258
 417 813 426 804 442 804 c 258
 477 804 l 258
 494 804 502 812 502 829 c 258
 502 875 l 258
EndSplineSet
Refer: 390 50 N 1 0 0 1 0 0 2
PickledDataWithLists: "(dp0
Vcom.schriftgestaltung.Glyphs.lastChange
p1
V2016-05-30 08:38:37 +0000
p2
s."
EndChar

StartChar: u
Encoding: 117 117 395
GlifName: u
Width: 575
VWidth: 0
Flags: W
AnchorPoint: "ogonek" 477 10 basechar 0
AnchorPoint: "top" 328 550 basechar 0
AnchorPoint: "topright" 595 500 basechar 0
AnchorPoint: "bottom" 248 0 basechar 0
LayerCount: 2
Fore
SplineSet
368 25 m 258
 366 9 373 0 389 0 c 258
 426 0 l 258
 442 0 452 14 454 30 c 258
 525 475 l 258
 527 491 520 500 504 500 c 258
 469 500 l 258
 453 500 442 491 440 475 c 258
 388 151 l 257
 335 95 283 66 242 66 c 256
 184 66 143 86 165 222 c 258
 205 475 l 258
 207 491 200 500 184 500 c 258
 149 500 l 258
 132 500 122 491 120 475 c 258
 80 222 l 258
 49 31 122 -10 212 -10 c 256
 263 -10 322 15 374 63 c 257
 368 25 l 258
EndSplineSet
PickledDataWithLists: "(dp0
Vcom.schriftgestaltung.Glyphs.lastChange
p1
V2016-06-09 18:35:34 +0000
p2
sVcom.typemytype.robofont.layerData
p3
(dp4
Vbackground
p5
(dp6
Vanchors
p7
(lp8
sVcomponents
p9
(lp10
sVcontours
p11
(lp12
(dp13
Vpoints
p14
(lp15
(dp16
VsegmentType
p17
Vline
p18
sVsmooth
p19
I01
sVx
p20
I206
sVy
p21
I475
sa(dp22
g19
I00
sg20
I208
sg21
I491
sa(dp23
g19
I00
sg20
I201
sg21
I500
sa(dp24
g17
Vcurve
p25
sg19
I01
sg20
I185
sg21
I500
sa(dp26
g17
Vline
p27
sg19
I01
sg20
I148
sg21
I500
sa(dp28
g19
I00
sg20
I132
sg21
I500
sa(dp29
g19
I00
sg20
I122
sg21
I486
sa(dp30
g17
Vcurve
p31
sg19
I01
sg20
I120
sg21
I470
sa(dp32
g17
Vline
p33
sg19
I01
sg20
I49
sg21
I25
sa(dp34
g19
I00
sg20
I47
sg21
I9
sa(dp35
g19
I00
sg20
I54
sg21
I0
sa(dp36
g17
Vcurve
p37
sg19
I01
sg20
I70
sg21
I0
sa(dp38
g17
Vline
p39
sg19
I01
sg20
I105
sg21
I0
sa(dp40
g19
I00
sg20
I121
sg21
I0
sa(dp41
g19
I00
sg20
I132
sg21
I9
sa(dp42
g17
Vcurve
p43
sg19
I01
sg20
I134
sg21
I25
sa(dp44
g17
Vline
p45
sg19
I00
sg20
I186
sg21
I349
sa(dp46
g19
I00
sg20
I239
sg21
I405
sa(dp47
g19
I00
sg20
I291
sg21
I434
sa(dp48
g17
Vcurve
p49
sg19
I01
sg20
I332
sg21
I434
sa(dp50
g19
I00
sg20
I390
sg21
I434
sa(dp51
g19
I00
sg20
I431
sg21
I414
sa(dp52
g17
Vcurve
p53
sg19
I01
sg20
I409
sg21
I278
sa(dp54
g17
Vline
p55
sg19
I01
sg20
I369
sg21
I25
sa(dp56
g19
I00
sg20
I367
sg21
I9
sa(dp57
g19
I00
sg20
I374
sg21
I0
sa(dp58
g17
Vcurve
p59
sg19
I01
sg20
I390
sg21
I0
sa(dp60
g17
Vline
p61
sg19
I01
sg20
I425
sg21
I0
sa(dp62
g19
I00
sg20
I442
sg21
I0
sa(dp63
g19
I00
sg20
I452
sg21
I9
sa(dp64
g17
Vcurve
p65
sg19
I01
sg20
I454
sg21
I25
sa(dp66
g17
Vline
p67
sg19
I01
sg20
I494
sg21
I278
sa(dp68
g19
I00
sg20
I525
sg21
I469
sa(dp69
g19
I00
sg20
I452
sg21
I510
sa(dp70
g17
Vcurve
p71
sg19
I01
sg20
I362
sg21
I510
sa(dp72
g19
I00
sg20
I311
sg21
I510
sa(dp73
g19
I00
sg20
I252
sg21
I485
sa(dp74
g17
Vcurve
p75
sg19
I00
sg20
I200
sg21
I437
sasasVlib
p76
(dp77
sVname
p78
Vu
p79
sVunicodes
p80
(lp81
sVwidth
p82
I575
sss."
EndChar

StartChar: underscore
Encoding: 95 95 403
GlifName: underscore
Width: 575
VWidth: 0
Flags: W
LayerCount: 2
Fore
SplineSet
3 -52 m 258
 1 -68 8 -77 24 -77 c 258
 447 -77 l 258
 464 -77 474 -68 476 -52 c 258
 480 -25 l 258
 483 -9 475 0 459 0 c 258
 36 0 l 258
 20 0 10 -9 7 -25 c 258
 3 -52 l 258
EndSplineSet
PickledDataWithLists: "(dp0
Vcom.schriftgestaltung.Glyphs.lastChange
p1
V2015-12-23 09:18:36 +0000
p2
s."
EndChar

StartChar: mu
Encoding: 181 181 405
GlifName: uni00B_5
Width: 575
VWidth: 0
Flags: W
LayerCount: 2
Fore
SplineSet
470 500 m 258
 454 500 443 491 441 475 c 258
 377 71 l 257
 331 68 293 67 269 67 c 256
 177 67 146 99 161 193 c 258
 206 475 l 258
 208 491 202 500 185 500 c 258
 150 500 l 258
 134 500 123 492 121 475 c 258
 12 -213 l 258
 9 -229 17 -238 33 -238 c 258
 68 -238 l 258
 84 -238 94 -229 97 -213 c 258
 134 23 l 257
 159 0 200 -10 257 -10 c 256
 290 -10 353 -9 428 3 c 256
 444 5 453 14 455 30 c 258
 526 475 l 258
 528 492 522 500 505 500 c 258
 470 500 l 258
EndSplineSet
PickledDataWithLists: "(dp0
Vcom.schriftgestaltung.Glyphs.lastChange
p1
V2015-12-22 16:32:55 +0000
p2
s."
EndChar

StartChar: uni0237
Encoding: 567 567 408
GlifName: uni0237
Width: 575
VWidth: 0
Flags: W
LayerCount: 2
Fore
SplineSet
504 365 m 256
 504 478 440 512 348 512 c 256
 317 512 283 508 246 502 c 256
 229 499 221 488 221 473 c 258
 222 445 l 258
 221 429 231 422 248 425 c 256
 281 431 309 435 333 435 c 256
 389 435 417 413 417 351 c 256
 417 336 415 319 412 300 c 258
 383 120 l 258
 359 -36 283 -82 194 -82 c 256
 153 -82 119 -75 77 -59 c 256
 63 -53 51 -58 43 -73 c 258
 29 -97 l 258
 21 -112 23 -124 37 -130 c 256
 81 -150 131 -160 182 -160 c 256
 308 -160 436 -90 469 120 c 258
 498 300 l 258
 502 324 504 345 504 365 c 256
  PathStart: -1
EndSplineSet
PickledDataWithLists: "(dp0
Vcom.schriftgestaltung.Glyphs.lastChange
p1
V2016-06-09 18:35:33 +0000
p2
s."
EndChar

StartChar: uni0394
Encoding: 916 916 409
GlifName: uni0394
Width: 575
VWidth: 0
Flags: W
LayerCount: 2
Fore
SplineSet
439 621 m 258
 430 681 397 712 360 712 c 256
 323 712 281 682 254 621 c 258
 -18 28 l 258
 -26 11 -19 0 -1 0 c 257
 497 0 l 257
 514 0 525 11 523 28 c 257
 439 621 l 258
336 607 m 258
 344 625 350 625 354 607 c 258
 432 75 l 257
 88 75 l 257
 336 607 l 258
EndSplineSet
PickledDataWithLists: "(dp0
Vcom.schriftgestaltung.Glyphs.lastChange
p1
V2015-12-22 12:15:12 +0000
p2
s."
EndChar

StartChar: uni03A9
Encoding: 937 937 410
GlifName: uni03A_9
Width: 575
VWidth: 0
Flags: W
LayerCount: 2
Fore
SplineSet
361 76 m 257
 368 120 l 257
 448 162 489 244 505 343 c 258
 523 457 l 258
 527 482 529 505 529 527 c 256
 529 635 480 710 361 710 c 256
 218 710 142 602 119 457 c 258
 101 343 l 258
 85 244 100 162 166 120 c 257
 159 76 l 257
 60 76 l 258
 44 76 34 67 31 51 c 258
 27 25 l 258
 25 8 32 0 48 0 c 258
 197 0 l 258
 214 0 224 9 226 25 c 258
 246 147 l 258
 248 162 242 170 229 176 c 256
 179 200 174 269 186 343 c 258
 204 457 l 258
 218 549 257 634 349 634 c 256
 420 634 443 583 443 517 c 256
 443 498 441 478 438 457 c 258
 420 343 l 258
 408 269 381 200 323 176 c 256
 308 170 300 162 298 147 c 258
 278 25 l 258
 276 9 282 0 299 0 c 258
 448 0 l 258
 464 0 475 8 477 25 c 258
 481 51 l 258
 484 67 476 76 460 76 c 258
 361 76 l 257
EndSplineSet
PickledDataWithLists: "(dp0
Vcom.schriftgestaltung.Glyphs.lastChange
p1
V2015-12-22 12:25:35 +0000
p2
s."
EndChar

